<?xml version="1.0" encoding="utf-8" standalone="no"?>
<!DOCTYPE svg PUBLIC "-//W3C//DTD SVG 1.1//EN"
  "http://www.w3.org/Graphics/SVG/1.1/DTD/svg11.dtd">
<!-- Created with matplotlib (http://matplotlib.org/) -->
<svg height="230pt" version="1.1" viewBox="0 0 460 230" width="460pt" xmlns="http://www.w3.org/2000/svg" xmlns:xlink="http://www.w3.org/1999/xlink">
 <defs>
  <style type="text/css">
*{stroke-linecap:butt;stroke-linejoin:round;}
  </style>
 </defs>
 <g id="figure_1">
  <g id="patch_1">
   <path d="
M0 230.4
L460.8 230.4
L460.8 0
L0 0
z
" style="fill:#ffffff;"/>
  </g>
  <g id="axes_1">
   <g id="patch_2">
    <path d="
M57.6 201.6
L414.72 201.6
L414.72 23.04
L57.6 23.04
z
" style="fill:#ffffff;"/>
   </g>
   <g id="matplotlib.axis_1">
    <g id="xtick_1">
     <g id="line2d_1">
      <path clip-path="url(#pa16bc83be2)" d="
M57.6 201.6
L57.6 23.04" style="fill:none;stroke:#ffffff;stroke-linecap:square;stroke-width:0.5;"/>
     </g>
     <g id="line2d_2">
      <defs>
       <path d="
M0 0
L0 4" id="m64c3aef5f4" style="stroke:#555555;stroke-width:0.5;"/>
      </defs>
      <g>
       <use style="fill:#555555;stroke:#555555;stroke-width:0.5;" x="57.6" xlink:href="#m64c3aef5f4" y="201.6"/>
      </g>
     </g>
     <g id="text_1">
      <!-- 2008 -->
      <defs>
       <path d="
M19.1875 8.29688
L53.6094 8.29688
L53.6094 0
L7.32812 0
L7.32812 8.29688
Q12.9375 14.1094 22.625 23.8906
Q32.3281 33.6875 34.8125 36.5312
Q39.5469 41.8438 41.4219 45.5312
Q43.3125 49.2188 43.3125 52.7812
Q43.3125 58.5938 39.2344 62.25
Q35.1562 65.9219 28.6094 65.9219
Q23.9688 65.9219 18.8125 64.3125
Q13.6719 62.7031 7.8125 59.4219
L7.8125 69.3906
Q13.7656 71.7812 18.9375 73
Q24.125 74.2188 28.4219 74.2188
Q39.75 74.2188 46.4844 68.5469
Q53.2188 62.8906 53.2188 53.4219
Q53.2188 48.9219 51.5312 44.8906
Q49.8594 40.875 45.4062 35.4062
Q44.1875 33.9844 37.6406 27.2188
Q31.1094 20.4531 19.1875 8.29688" id="BitstreamVeraSans-Roman-32"/>
       <path d="
M31.7812 66.4062
Q24.1719 66.4062 20.3281 58.9062
Q16.5 51.4219 16.5 36.375
Q16.5 21.3906 20.3281 13.8906
Q24.1719 6.39062 31.7812 6.39062
Q39.4531 6.39062 43.2812 13.8906
Q47.125 21.3906 47.125 36.375
Q47.125 51.4219 43.2812 58.9062
Q39.4531 66.4062 31.7812 66.4062
M31.7812 74.2188
Q44.0469 74.2188 50.5156 64.5156
Q56.9844 54.8281 56.9844 36.375
Q56.9844 17.9688 50.5156 8.26562
Q44.0469 -1.42188 31.7812 -1.42188
Q19.5312 -1.42188 13.0625 8.26562
Q6.59375 17.9688 6.59375 36.375
Q6.59375 54.8281 13.0625 64.5156
Q19.5312 74.2188 31.7812 74.2188" id="BitstreamVeraSans-Roman-30"/>
       <path d="
M31.7812 34.625
Q24.75 34.625 20.7188 30.8594
Q16.7031 27.0938 16.7031 20.5156
Q16.7031 13.9219 20.7188 10.1562
Q24.75 6.39062 31.7812 6.39062
Q38.8125 6.39062 42.8594 10.1719
Q46.9219 13.9688 46.9219 20.5156
Q46.9219 27.0938 42.8906 30.8594
Q38.875 34.625 31.7812 34.625
M21.9219 38.8125
Q15.5781 40.375 12.0312 44.7188
Q8.5 49.0781 8.5 55.3281
Q8.5 64.0625 14.7188 69.1406
Q20.9531 74.2188 31.7812 74.2188
Q42.6719 74.2188 48.875 69.1406
Q55.0781 64.0625 55.0781 55.3281
Q55.0781 49.0781 51.5312 44.7188
Q48 40.375 41.7031 38.8125
Q48.8281 37.1562 52.7969 32.3125
Q56.7812 27.4844 56.7812 20.5156
Q56.7812 9.90625 50.3125 4.23438
Q43.8438 -1.42188 31.7812 -1.42188
Q19.7344 -1.42188 13.25 4.23438
Q6.78125 9.90625 6.78125 20.5156
Q6.78125 27.4844 10.7812 32.3125
Q14.7969 37.1562 21.9219 38.8125
M18.3125 54.3906
Q18.3125 48.7344 21.8438 45.5625
Q25.3906 42.3906 31.7812 42.3906
Q38.1406 42.3906 41.7188 45.5625
Q45.3125 48.7344 45.3125 54.3906
Q45.3125 60.0625 41.7188 63.2344
Q38.1406 66.4062 31.7812 66.4062
Q25.3906 66.4062 21.8438 63.2344
Q18.3125 60.0625 18.3125 54.3906" id="BitstreamVeraSans-Roman-38"/>
      </defs>
      <g style="fill:#555555;" transform="translate(45.58359375 217.1984375)scale(0.1 -0.1)">
       <use xlink:href="#BitstreamVeraSans-Roman-32"/>
       <use x="63.623046875" xlink:href="#BitstreamVeraSans-Roman-30"/>
       <use x="127.24609375" xlink:href="#BitstreamVeraSans-Roman-30"/>
       <use x="190.869140625" xlink:href="#BitstreamVeraSans-Roman-38"/>
      </g>
     </g>
    </g>
    <g id="xtick_2">
     <g id="line2d_3">
      <path clip-path="url(#pa16bc83be2)" d="
M101.78 201.6
L101.78 23.04" style="fill:none;stroke:#ffffff;stroke-linecap:square;stroke-width:0.5;"/>
     </g>
     <g id="line2d_4">
      <g>
       <use style="fill:#555555;stroke:#555555;stroke-width:0.5;" x="101.779793814" xlink:href="#m64c3aef5f4" y="201.6"/>
      </g>
     </g>
     <g id="text_2">
      <!-- 2009 -->
      <defs>
       <path d="
M10.9844 1.51562
L10.9844 10.5
Q14.7031 8.73438 18.5 7.8125
Q22.3125 6.89062 25.9844 6.89062
Q35.75 6.89062 40.8906 13.4531
Q46.0469 20.0156 46.7812 33.4062
Q43.9531 29.2031 39.5938 26.9531
Q35.25 24.7031 29.9844 24.7031
Q19.0469 24.7031 12.6719 31.3125
Q6.29688 37.9375 6.29688 49.4219
Q6.29688 60.6406 12.9375 67.4219
Q19.5781 74.2188 30.6094 74.2188
Q43.2656 74.2188 49.9219 64.5156
Q56.5938 54.8281 56.5938 36.375
Q56.5938 19.1406 48.4062 8.85938
Q40.2344 -1.42188 26.4219 -1.42188
Q22.7031 -1.42188 18.8906 -0.6875
Q15.0938 0.046875 10.9844 1.51562
M30.6094 32.4219
Q37.25 32.4219 41.125 36.9531
Q45.0156 41.5 45.0156 49.4219
Q45.0156 57.2812 41.125 61.8438
Q37.25 66.4062 30.6094 66.4062
Q23.9688 66.4062 20.0938 61.8438
Q16.2188 57.2812 16.2188 49.4219
Q16.2188 41.5 20.0938 36.9531
Q23.9688 32.4219 30.6094 32.4219" id="BitstreamVeraSans-Roman-39"/>
      </defs>
      <g style="fill:#555555;" transform="translate(89.7727625644 217.1984375)scale(0.1 -0.1)">
       <use xlink:href="#BitstreamVeraSans-Roman-32"/>
       <use x="63.623046875" xlink:href="#BitstreamVeraSans-Roman-30"/>
       <use x="127.24609375" xlink:href="#BitstreamVeraSans-Roman-30"/>
       <use x="190.869140625" xlink:href="#BitstreamVeraSans-Roman-39"/>
      </g>
     </g>
    </g>
    <g id="xtick_3">
     <g id="line2d_5">
      <path clip-path="url(#pa16bc83be2)" d="
M145.96 201.6
L145.96 23.04" style="fill:none;stroke:#ffffff;stroke-linecap:square;stroke-width:0.5;"/>
     </g>
     <g id="line2d_6">
      <g>
       <use style="fill:#555555;stroke:#555555;stroke-width:0.5;" x="145.959587629" xlink:href="#m64c3aef5f4" y="201.6"/>
      </g>
     </g>
     <g id="text_3">
      <!-- 2010 -->
      <defs>
       <path d="
M12.4062 8.29688
L28.5156 8.29688
L28.5156 63.9219
L10.9844 60.4062
L10.9844 69.3906
L28.4219 72.9062
L38.2812 72.9062
L38.2812 8.29688
L54.3906 8.29688
L54.3906 0
L12.4062 0
z
" id="BitstreamVeraSans-Roman-31"/>
      </defs>
      <g style="fill:#555555;" transform="translate(133.933025129 217.1984375)scale(0.1 -0.1)">
       <use xlink:href="#BitstreamVeraSans-Roman-32"/>
       <use x="63.623046875" xlink:href="#BitstreamVeraSans-Roman-30"/>
       <use x="127.24609375" xlink:href="#BitstreamVeraSans-Roman-31"/>
       <use x="190.869140625" xlink:href="#BitstreamVeraSans-Roman-30"/>
      </g>
     </g>
    </g>
    <g id="xtick_4">
     <g id="line2d_7">
      <path clip-path="url(#pa16bc83be2)" d="
M190.139 201.6
L190.139 23.04" style="fill:none;stroke:#ffffff;stroke-linecap:square;stroke-width:0.5;"/>
     </g>
     <g id="line2d_8">
      <g>
       <use style="fill:#555555;stroke:#555555;stroke-width:0.5;" x="190.139381443" xlink:href="#m64c3aef5f4" y="201.6"/>
      </g>
     </g>
     <g id="text_4">
      <!-- 2011 -->
      <g style="fill:#555555;" transform="translate(178.242506443 217.1984375)scale(0.1 -0.1)">
       <use xlink:href="#BitstreamVeraSans-Roman-32"/>
       <use x="63.623046875" xlink:href="#BitstreamVeraSans-Roman-30"/>
       <use x="127.24609375" xlink:href="#BitstreamVeraSans-Roman-31"/>
       <use x="190.869140625" xlink:href="#BitstreamVeraSans-Roman-31"/>
      </g>
     </g>
    </g>
    <g id="xtick_5">
     <g id="line2d_9">
      <path clip-path="url(#pa16bc83be2)" d="
M234.319 201.6
L234.319 23.04" style="fill:none;stroke:#ffffff;stroke-linecap:square;stroke-width:0.5;"/>
     </g>
     <g id="line2d_10">
      <g>
       <use style="fill:#555555;stroke:#555555;stroke-width:0.5;" x="234.319175258" xlink:href="#m64c3aef5f4" y="201.6"/>
      </g>
     </g>
     <g id="text_5">
      <!-- 2012 -->
      <g style="fill:#555555;" transform="translate(222.461362758 217.1984375)scale(0.1 -0.1)">
       <use xlink:href="#BitstreamVeraSans-Roman-32"/>
       <use x="63.623046875" xlink:href="#BitstreamVeraSans-Roman-30"/>
       <use x="127.24609375" xlink:href="#BitstreamVeraSans-Roman-31"/>
       <use x="190.869140625" xlink:href="#BitstreamVeraSans-Roman-32"/>
      </g>
     </g>
    </g>
    <g id="xtick_6">
     <g id="line2d_11">
      <path clip-path="url(#pa16bc83be2)" d="
M278.499 201.6
L278.499 23.04" style="fill:none;stroke:#ffffff;stroke-linecap:square;stroke-width:0.5;"/>
     </g>
     <g id="line2d_12">
      <g>
       <use style="fill:#555555;stroke:#555555;stroke-width:0.5;" x="278.498969072" xlink:href="#m64c3aef5f4" y="201.6"/>
      </g>
     </g>
     <g id="text_6">
      <!-- 2013 -->
      <defs>
       <path d="
M40.5781 39.3125
Q47.6562 37.7969 51.625 33
Q55.6094 28.2188 55.6094 21.1875
Q55.6094 10.4062 48.1875 4.48438
Q40.7656 -1.42188 27.0938 -1.42188
Q22.5156 -1.42188 17.6562 -0.515625
Q12.7969 0.390625 7.625 2.20312
L7.625 11.7188
Q11.7188 9.32812 16.5938 8.10938
Q21.4844 6.89062 26.8125 6.89062
Q36.0781 6.89062 40.9375 10.5469
Q45.7969 14.2031 45.7969 21.1875
Q45.7969 27.6406 41.2812 31.2656
Q36.7656 34.9062 28.7188 34.9062
L20.2188 34.9062
L20.2188 43.0156
L29.1094 43.0156
Q36.375 43.0156 40.2344 45.9219
Q44.0938 48.8281 44.0938 54.2969
Q44.0938 59.9062 40.1094 62.9062
Q36.1406 65.9219 28.7188 65.9219
Q24.6562 65.9219 20.0156 65.0312
Q15.375 64.1562 9.8125 62.3125
L9.8125 71.0938
Q15.4375 72.6562 20.3438 73.4375
Q25.25 74.2188 29.5938 74.2188
Q40.8281 74.2188 47.3594 69.1094
Q53.9062 64.0156 53.9062 55.3281
Q53.9062 49.2656 50.4375 45.0938
Q46.9688 40.9219 40.5781 39.3125" id="BitstreamVeraSans-Roman-33"/>
      </defs>
      <g style="fill:#555555;" transform="translate(266.541156572 217.1984375)scale(0.1 -0.1)">
       <use xlink:href="#BitstreamVeraSans-Roman-32"/>
       <use x="63.623046875" xlink:href="#BitstreamVeraSans-Roman-30"/>
       <use x="127.24609375" xlink:href="#BitstreamVeraSans-Roman-31"/>
       <use x="190.869140625" xlink:href="#BitstreamVeraSans-Roman-33"/>
      </g>
     </g>
    </g>
    <g id="xtick_7">
     <g id="line2d_13">
      <path clip-path="url(#pa16bc83be2)" d="
M322.679 201.6
L322.679 23.04" style="fill:none;stroke:#ffffff;stroke-linecap:square;stroke-width:0.5;"/>
     </g>
     <g id="line2d_14">
      <g>
       <use style="fill:#555555;stroke:#555555;stroke-width:0.5;" x="322.678762887" xlink:href="#m64c3aef5f4" y="201.6"/>
      </g>
     </g>
     <g id="text_7">
      <!-- 2014 -->
      <defs>
       <path d="
M37.7969 64.3125
L12.8906 25.3906
L37.7969 25.3906
z

M35.2031 72.9062
L47.6094 72.9062
L47.6094 25.3906
L58.0156 25.3906
L58.0156 17.1875
L47.6094 17.1875
L47.6094 0
L37.7969 0
L37.7969 17.1875
L4.89062 17.1875
L4.89062 26.7031
z
" id="BitstreamVeraSans-Roman-34"/>
      </defs>
      <g style="fill:#555555;" transform="translate(310.600637887 217.1984375)scale(0.1 -0.1)">
       <use xlink:href="#BitstreamVeraSans-Roman-32"/>
       <use x="63.623046875" xlink:href="#BitstreamVeraSans-Roman-30"/>
       <use x="127.24609375" xlink:href="#BitstreamVeraSans-Roman-31"/>
       <use x="190.869140625" xlink:href="#BitstreamVeraSans-Roman-34"/>
      </g>
     </g>
    </g>
    <g id="xtick_8">
     <g id="line2d_15">
      <path clip-path="url(#pa16bc83be2)" d="
M366.859 201.6
L366.859 23.04" style="fill:none;stroke:#ffffff;stroke-linecap:square;stroke-width:0.5;"/>
     </g>
     <g id="line2d_16">
      <g>
       <use style="fill:#555555;stroke:#555555;stroke-width:0.5;" x="366.858556701" xlink:href="#m64c3aef5f4" y="201.6"/>
      </g>
     </g>
     <g id="text_8">
      <!-- 2015 -->
      <defs>
       <path d="
M10.7969 72.9062
L49.5156 72.9062
L49.5156 64.5938
L19.8281 64.5938
L19.8281 46.7344
Q21.9688 47.4688 24.1094 47.8281
Q26.2656 48.1875 28.4219 48.1875
Q40.625 48.1875 47.75 41.5
Q54.8906 34.8125 54.8906 23.3906
Q54.8906 11.625 47.5625 5.09375
Q40.2344 -1.42188 26.9062 -1.42188
Q22.3125 -1.42188 17.5469 -0.640625
Q12.7969 0.140625 7.71875 1.70312
L7.71875 11.625
Q12.1094 9.23438 16.7969 8.0625
Q21.4844 6.89062 26.7031 6.89062
Q35.1562 6.89062 40.0781 11.3281
Q45.0156 15.7656 45.0156 23.3906
Q45.0156 31 40.0781 35.4375
Q35.1562 39.8906 26.7031 39.8906
Q22.75 39.8906 18.8125 39.0156
Q14.8906 38.1406 10.7969 36.2812
z
" id="BitstreamVeraSans-Roman-35"/>
      </defs>
      <g style="fill:#555555;" transform="translate(354.936681701 217.1984375)scale(0.1 -0.1)">
       <use xlink:href="#BitstreamVeraSans-Roman-32"/>
       <use x="63.623046875" xlink:href="#BitstreamVeraSans-Roman-30"/>
       <use x="127.24609375" xlink:href="#BitstreamVeraSans-Roman-31"/>
       <use x="190.869140625" xlink:href="#BitstreamVeraSans-Roman-35"/>
      </g>
     </g>
    </g>
    <g id="xtick_9">
     <g id="line2d_17">
      <path clip-path="url(#pa16bc83be2)" d="
M411.038 201.6
L411.038 23.04" style="fill:none;stroke:#ffffff;stroke-linecap:square;stroke-width:0.5;"/>
     </g>
     <g id="line2d_18">
      <g>
       <use style="fill:#555555;stroke:#555555;stroke-width:0.5;" x="411.038350515" xlink:href="#m64c3aef5f4" y="201.6"/>
      </g>
     </g>
     <g id="text_9">
      <!-- 2016 -->
      <defs>
       <path d="
M33.0156 40.375
Q26.375 40.375 22.4844 35.8281
Q18.6094 31.2969 18.6094 23.3906
Q18.6094 15.5312 22.4844 10.9531
Q26.375 6.39062 33.0156 6.39062
Q39.6562 6.39062 43.5312 10.9531
Q47.4062 15.5312 47.4062 23.3906
Q47.4062 31.2969 43.5312 35.8281
Q39.6562 40.375 33.0156 40.375
M52.5938 71.2969
L52.5938 62.3125
Q48.875 64.0625 45.0938 64.9844
Q41.3125 65.9219 37.5938 65.9219
Q27.8281 65.9219 22.6719 59.3281
Q17.5312 52.7344 16.7969 39.4062
Q19.6719 43.6562 24.0156 45.9219
Q28.375 48.1875 33.5938 48.1875
Q44.5781 48.1875 50.9531 41.5156
Q57.3281 34.8594 57.3281 23.3906
Q57.3281 12.1562 50.6875 5.35938
Q44.0469 -1.42188 33.0156 -1.42188
Q20.3594 -1.42188 13.6719 8.26562
Q6.98438 17.9688 6.98438 36.375
Q6.98438 53.6562 15.1875 63.9375
Q23.3906 74.2188 37.2031 74.2188
Q40.9219 74.2188 44.7031 73.4844
Q48.4844 72.75 52.5938 71.2969" id="BitstreamVeraSans-Roman-36"/>
      </defs>
      <g style="fill:#555555;" transform="translate(398.994600515 217.1984375)scale(0.1 -0.1)">
       <use xlink:href="#BitstreamVeraSans-Roman-32"/>
       <use x="63.623046875" xlink:href="#BitstreamVeraSans-Roman-30"/>
       <use x="127.24609375" xlink:href="#BitstreamVeraSans-Roman-31"/>
       <use x="190.869140625" xlink:href="#BitstreamVeraSans-Roman-36"/>
      </g>
     </g>
    </g>
    <g id="xtick_10"/>
    <g id="xtick_11"/>
    <g id="xtick_12"/>
    <g id="xtick_13"/>
    <g id="xtick_14"/>
    <g id="xtick_15"/>
    <g id="xtick_16"/>
    <g id="xtick_17"/>
    <g id="xtick_18"/>
    <g id="xtick_19"/>
    <g id="xtick_20"/>
    <g id="xtick_21"/>
    <g id="xtick_22"/>
    <g id="xtick_23"/>
    <g id="xtick_24"/>
    <g id="xtick_25"/>
    <g id="xtick_26"/>
    <g id="xtick_27"/>
    <g id="xtick_28"/>
    <g id="xtick_29"/>
    <g id="xtick_30"/>
    <g id="xtick_31"/>
    <g id="xtick_32"/>
    <g id="xtick_33"/>
    <g id="xtick_34"/>
    <g id="xtick_35"/>
    <g id="xtick_36"/>
    <g id="xtick_37"/>
    <g id="xtick_38"/>
    <g id="xtick_39"/>
    <g id="xtick_40"/>
    <g id="xtick_41"/>
    <g id="xtick_42"/>
   </g>
   <g id="matplotlib.axis_2">
    <g id="ytick_1">
     <g id="line2d_19">
      <path clip-path="url(#pa16bc83be2)" d="
M57.6 201.6
L414.72 201.6" style="fill:none;stroke:#ffffff;stroke-linecap:square;stroke-width:0.5;"/>
     </g>
     <g id="line2d_20">
      <defs>
       <path d="
M0 0
L-4 0" id="mf591f037a3" style="stroke:#555555;stroke-width:0.5;"/>
      </defs>
      <g>
       <use style="fill:#555555;stroke:#555555;stroke-width:0.5;" x="57.6" xlink:href="#mf591f037a3" y="201.6"/>
      </g>
     </g>
     <g id="text_10">
      <!-- 0 -->
      <g style="fill:#555555;" transform="translate(44.5609375 204.359375)scale(0.1 -0.1)">
       <use xlink:href="#BitstreamVeraSans-Roman-30"/>
      </g>
     </g>
    </g>
    <g id="ytick_2">
     <g id="line2d_21">
      <path clip-path="url(#pa16bc83be2)" d="
M57.6 171.84
L414.72 171.84" style="fill:none;stroke:#ffffff;stroke-linecap:square;stroke-width:0.5;"/>
     </g>
     <g id="line2d_22">
      <g>
       <use style="fill:#555555;stroke:#555555;stroke-width:0.5;" x="57.6" xlink:href="#mf591f037a3" y="171.84"/>
      </g>
     </g>
     <g id="text_11">
      <!-- 2 -->
      <g style="fill:#555555;" transform="translate(44.971875 174.599375)scale(0.1 -0.1)">
       <use xlink:href="#BitstreamVeraSans-Roman-32"/>
      </g>
     </g>
    </g>
    <g id="ytick_3">
     <g id="line2d_23">
      <path clip-path="url(#pa16bc83be2)" d="
M57.6 142.08
L414.72 142.08" style="fill:none;stroke:#ffffff;stroke-linecap:square;stroke-width:0.5;"/>
     </g>
     <g id="line2d_24">
      <g>
       <use style="fill:#555555;stroke:#555555;stroke-width:0.5;" x="57.6" xlink:href="#mf591f037a3" y="142.08"/>
      </g>
     </g>
     <g id="text_12">
      <!-- 4 -->
      <g style="fill:#555555;" transform="translate(44.2875 144.839375)scale(0.1 -0.1)">
       <use xlink:href="#BitstreamVeraSans-Roman-34"/>
      </g>
     </g>
    </g>
    <g id="ytick_4">
     <g id="line2d_25">
      <path clip-path="url(#pa16bc83be2)" d="
M57.6 112.32
L414.72 112.32" style="fill:none;stroke:#ffffff;stroke-linecap:square;stroke-width:0.5;"/>
     </g>
     <g id="line2d_26">
      <g>
       <use style="fill:#555555;stroke:#555555;stroke-width:0.5;" x="57.6" xlink:href="#mf591f037a3" y="112.32"/>
      </g>
     </g>
     <g id="text_13">
      <!-- 6 -->
      <g style="fill:#555555;" transform="translate(44.565625 115.079375)scale(0.1 -0.1)">
       <use xlink:href="#BitstreamVeraSans-Roman-36"/>
      </g>
     </g>
    </g>
    <g id="ytick_5">
     <g id="line2d_27">
      <path clip-path="url(#pa16bc83be2)" d="
M57.6 82.56
L414.72 82.56" style="fill:none;stroke:#ffffff;stroke-linecap:square;stroke-width:0.5;"/>
     </g>
     <g id="line2d_28">
      <g>
       <use style="fill:#555555;stroke:#555555;stroke-width:0.5;" x="57.6" xlink:href="#mf591f037a3" y="82.56"/>
      </g>
     </g>
     <g id="text_14">
      <!-- 8 -->
      <g style="fill:#555555;" transform="translate(44.6 85.319375)scale(0.1 -0.1)">
       <use xlink:href="#BitstreamVeraSans-Roman-38"/>
      </g>
     </g>
    </g>
    <g id="ytick_6">
     <g id="line2d_29">
      <path clip-path="url(#pa16bc83be2)" d="
M57.6 52.8
L414.72 52.8" style="fill:none;stroke:#ffffff;stroke-linecap:square;stroke-width:0.5;"/>
     </g>
     <g id="line2d_30">
      <g>
       <use style="fill:#555555;stroke:#555555;stroke-width:0.5;" x="57.6" xlink:href="#mf591f037a3" y="52.8"/>
      </g>
     </g>
     <g id="text_15">
      <!-- 10 -->
      <g style="fill:#555555;" transform="translate(38.6375 55.559375)scale(0.1 -0.1)">
       <use xlink:href="#BitstreamVeraSans-Roman-31"/>
       <use x="63.623046875" xlink:href="#BitstreamVeraSans-Roman-30"/>
      </g>
     </g>
    </g>
    <g id="ytick_7">
     <g id="line2d_31">
      <path clip-path="url(#pa16bc83be2)" d="
M57.6 23.04
L414.72 23.04" style="fill:none;stroke:#ffffff;stroke-linecap:square;stroke-width:0.5;"/>
     </g>
     <g id="line2d_32">
      <g>
       <use style="fill:#555555;stroke:#555555;stroke-width:0.5;" x="57.6" xlink:href="#mf591f037a3" y="23.04"/>
      </g>
     </g>
     <g id="text_16">
      <!-- 12 -->
      <g style="fill:#555555;" transform="translate(38.975 25.799375)scale(0.1 -0.1)">
       <use xlink:href="#BitstreamVeraSans-Roman-31"/>
       <use x="63.623046875" xlink:href="#BitstreamVeraSans-Roman-32"/>
      </g>
     </g>
    </g>
   </g>
   <g id="line2d_33">
    <path clip-path="url(#pa16bc83be2)" d="
M57.6 182.256
L61.2816 173.328
L64.9633 170.352
L68.6449 182.256
L72.3266 168.864
L76.0082 171.84
L79.6899 170.352
L83.3715 158.448
L87.0532 171.84
L90.7348 170.352
L94.4165 188.208
L98.0981 188.208
L101.78 159.936
L105.461 164.4
L109.143 145.056
L112.825 159.936
L116.506 180.768
L120.188 174.816
L123.87 171.84
L127.551 183.744
L131.233 173.328
L134.915 139.104
L138.596 153.984
L142.278 164.4
L145.96 133.152
L149.641 137.616
L153.323 122.736
L157.005 33.456
L160.686 145.056
L164.368 162.912
L168.049 165.888
L171.731 158.448
L175.413 162.912
L179.094 168.864
L182.776 162.912
L186.458 158.448
L190.139 170.352
L193.821 174.816
L197.503 170.352
L201.184 176.304
L204.866 177.792
L208.548 176.304
L212.229 170.352
L215.911 177.792
L219.593 174.816
L223.274 168.864
L226.956 177.792
L230.638 176.304
L234.319 173.328
L238.001 168.864
L241.682 159.936
L245.364 161.424
L249.046 171.84
L252.727 164.4
L256.409 174.816
L260.091 158.448
L263.772 165.888
L267.454 164.4
L271.136 173.328
L274.817 168.864
L278.499 164.4
L282.181 167.376
L285.862 170.352
L289.544 161.424
L293.226 176.304
L296.907 179.28
L300.589 174.816
L304.271 180.768
L307.952 176.304
L311.634 177.792
L315.315 176.304
L318.997 177.792
L322.679 176.304
L326.36 170.352
L330.042 159.936
L333.724 167.376
L337.405 167.376
L341.087 164.4
L344.769 173.328
L348.45 164.4
L352.132 167.376
L355.814 171.84
L359.495 171.84
L363.177 167.376
L366.859 165.888
L370.54 152.496
L374.222 156.96
L377.904 159.936
L381.585 161.424
L385.267 167.376
L388.948 165.888
L392.63 167.376
L396.312 171.84
L399.993 168.864
L403.675 164.4
L407.357 159.936
L411.038 159.936
L414.72 149.52" style="fill:none;stroke:#e24a33;stroke-dasharray:1.000000,3.000000;stroke-dashoffset:0.0;"/>
   </g>
   <g id="line2d_34">
    <path clip-path="url(#pa16bc83be2)" d="
M57.6 194.16
L61.2816 195.648
L64.9633 197.136
L68.6449 195.648
L72.3266 198.624
L76.0082 197.136
L79.6899 198.624
L83.3715 198.624
L87.0532 198.624
L90.7348 197.136
L94.4165 198.624
L98.0981 195.648
L101.78 197.136
L105.461 198.624
L109.143 197.136
L112.825 195.648
L116.506 167.376
L120.188 168.864
L123.87 197.136
L127.551 198.624
L131.233 198.624
L134.915 197.136
L138.596 191.184
L142.278 195.648
L145.96 198.624
L149.641 195.648
L153.323 194.16
L157.005 191.184
L160.686 183.744
L164.368 90
L168.049 125.712
L171.731 139.104
L175.413 156.96
L179.094 189.696
L182.776 195.648
L186.458 198.624
L190.139 197.136
L193.821 197.136
L197.503 197.136
L201.184 195.648
L204.866 197.136
L208.548 195.648
L212.229 195.648
L215.911 191.184
L219.593 194.16
L223.274 195.648
L226.956 195.648
L230.638 197.136
L234.319 198.624
L238.001 197.136
L241.682 197.136
L245.364 197.136
L249.046 197.136
L252.727 195.648
L256.409 197.136
L260.091 194.16
L263.772 194.16
L267.454 192.672
L271.136 194.16
L274.817 192.672
L278.499 198.624
L282.181 189.696
L285.862 191.184
L289.544 192.672
L293.226 194.16
L296.907 195.648
L300.589 195.648
L304.271 195.648
L307.952 197.136
L311.634 192.672
L315.315 195.648
L318.997 194.16
L322.679 194.16
L326.36 197.136
L330.042 195.648
L333.724 195.648
L337.405 197.136
L341.087 195.648
L344.769 197.136
L348.45 197.136
L352.132 194.16
L355.814 195.648
L359.495 195.648
L363.177 197.136
L366.859 192.672
L370.54 195.648
L374.222 194.16
L377.904 195.648
L381.585 194.16
L385.267 195.648
L388.948 192.672
L392.63 195.648
L396.312 197.136
L399.993 195.648
L403.675 195.648
L407.357 195.648
L411.038 194.16
L414.72 197.136" style="fill:none;stroke:#e24a33;stroke-linecap:square;"/>
   </g>
   <g id="patch_3">
    <path d="
M57.6 201.6
L414.72 201.6" style="fill:none;stroke:#d3d3d3;stroke-linecap:square;stroke-linejoin:miter;"/>
   </g>
   <g id="patch_4">
    <path d="
M57.6 201.6
L57.6 23.04" style="fill:none;stroke:#d3d3d3;stroke-linecap:square;stroke-linejoin:miter;"/>
   </g>
   <g id="text_17">
    <!-- Rates (%) -->
    <defs>
     <path id="BitstreamVeraSans-Roman-20"/>
     <path d="
M72.7031 32.0781
Q68.4531 32.0781 66.0312 28.4688
Q63.625 24.8594 63.625 18.4062
Q63.625 12.0625 66.0312 8.42188
Q68.4531 4.78125 72.7031 4.78125
Q76.8594 4.78125 79.2656 8.42188
Q81.6875 12.0625 81.6875 18.4062
Q81.6875 24.8125 79.2656 28.4375
Q76.8594 32.0781 72.7031 32.0781
M72.7031 38.2812
Q80.4219 38.2812 84.9531 32.9062
Q89.5 27.5469 89.5 18.4062
Q89.5 9.28125 84.9375 3.92188
Q80.375 -1.42188 72.7031 -1.42188
Q64.8906 -1.42188 60.3438 3.92188
Q55.8125 9.28125 55.8125 18.4062
Q55.8125 27.5938 60.375 32.9375
Q64.9375 38.2812 72.7031 38.2812
M22.3125 68.0156
Q18.1094 68.0156 15.6875 64.375
Q13.2812 60.75 13.2812 54.3906
Q13.2812 47.9531 15.6719 44.3281
Q18.0625 40.7188 22.3125 40.7188
Q26.5625 40.7188 28.9688 44.3281
Q31.3906 47.9531 31.3906 54.3906
Q31.3906 60.6875 28.9531 64.3438
Q26.5156 68.0156 22.3125 68.0156
M66.4062 74.2188
L74.2188 74.2188
L28.6094 -1.42188
L20.7969 -1.42188
z

M22.3125 74.2188
Q30.0312 74.2188 34.6094 68.875
Q39.2031 63.5312 39.2031 54.3906
Q39.2031 45.1719 34.6406 39.8438
Q30.0781 34.5156 22.3125 34.5156
Q14.5469 34.5156 10.0312 39.8594
Q5.51562 45.2188 5.51562 54.3906
Q5.51562 63.4844 10.0469 68.8438
Q14.5938 74.2188 22.3125 74.2188" id="BitstreamVeraSans-Roman-25"/>
     <path d="
M8.01562 75.875
L15.8281 75.875
Q23.1406 64.3594 26.7812 53.3125
Q30.4219 42.2812 30.4219 31.3906
Q30.4219 20.4531 26.7812 9.375
Q23.1406 -1.70312 15.8281 -13.1875
L8.01562 -13.1875
Q14.5 -2 17.7031 9.0625
Q20.9062 20.125 20.9062 31.3906
Q20.9062 42.6719 17.7031 53.6562
Q14.5 64.6562 8.01562 75.875" id="BitstreamVeraSans-Roman-29"/>
     <path d="
M31 75.875
Q24.4688 64.6562 21.2812 53.6562
Q18.1094 42.6719 18.1094 31.3906
Q18.1094 20.125 21.3125 9.0625
Q24.5156 -2 31 -13.1875
L23.1875 -13.1875
Q15.875 -1.70312 12.2344 9.375
Q8.59375 20.4531 8.59375 31.3906
Q8.59375 42.2812 12.2031 53.3125
Q15.8281 64.3594 23.1875 75.875
z
" id="BitstreamVeraSans-Roman-28"/>
     <path d="
M44.3906 34.1875
Q47.5625 33.1094 50.5625 29.5938
Q53.5625 26.0781 56.5938 19.9219
L66.6094 0
L56 0
L46.6875 18.7031
Q43.0625 26.0312 39.6719 28.4219
Q36.2812 30.8125 30.4219 30.8125
L19.6719 30.8125
L19.6719 0
L9.8125 0
L9.8125 72.9062
L32.0781 72.9062
Q44.5781 72.9062 50.7344 67.6719
Q56.8906 62.4531 56.8906 51.9062
Q56.8906 45.0156 53.6875 40.4688
Q50.4844 35.9375 44.3906 34.1875
M19.6719 64.7969
L19.6719 38.9219
L32.0781 38.9219
Q39.2031 38.9219 42.8438 42.2188
Q46.4844 45.5156 46.4844 51.9062
Q46.4844 58.2969 42.8438 61.5469
Q39.2031 64.7969 32.0781 64.7969
z
" id="BitstreamVeraSans-Roman-52"/>
     <path d="
M56.2031 29.5938
L56.2031 25.2031
L14.8906 25.2031
Q15.4844 15.9219 20.4844 11.0625
Q25.4844 6.20312 34.4219 6.20312
Q39.5938 6.20312 44.4531 7.46875
Q49.3125 8.73438 54.1094 11.2812
L54.1094 2.78125
Q49.2656 0.734375 44.1875 -0.34375
Q39.1094 -1.42188 33.8906 -1.42188
Q20.7969 -1.42188 13.1562 6.1875
Q5.51562 13.8125 5.51562 26.8125
Q5.51562 40.2344 12.7656 48.1094
Q20.0156 56 32.3281 56
Q43.3594 56 49.7812 48.8906
Q56.2031 41.7969 56.2031 29.5938
M47.2188 32.2344
Q47.125 39.5938 43.0938 43.9844
Q39.0625 48.3906 32.4219 48.3906
Q24.9062 48.3906 20.3906 44.1406
Q15.875 39.8906 15.1875 32.1719
z
" id="BitstreamVeraSans-Roman-65"/>
     <path d="
M18.3125 70.2188
L18.3125 54.6875
L36.8125 54.6875
L36.8125 47.7031
L18.3125 47.7031
L18.3125 18.0156
Q18.3125 11.3281 20.1406 9.42188
Q21.9688 7.51562 27.5938 7.51562
L36.8125 7.51562
L36.8125 0
L27.5938 0
Q17.1875 0 13.2344 3.875
Q9.28125 7.76562 9.28125 18.0156
L9.28125 47.7031
L2.6875 47.7031
L2.6875 54.6875
L9.28125 54.6875
L9.28125 70.2188
z
" id="BitstreamVeraSans-Roman-74"/>
     <path d="
M34.2812 27.4844
Q23.3906 27.4844 19.1875 25
Q14.9844 22.5156 14.9844 16.5
Q14.9844 11.7188 18.1406 8.90625
Q21.2969 6.10938 26.7031 6.10938
Q34.1875 6.10938 38.7031 11.4062
Q43.2188 16.7031 43.2188 25.4844
L43.2188 27.4844
z

M52.2031 31.2031
L52.2031 0
L43.2188 0
L43.2188 8.29688
Q40.1406 3.32812 35.5469 0.953125
Q30.9531 -1.42188 24.3125 -1.42188
Q15.9219 -1.42188 10.9531 3.29688
Q6 8.01562 6 15.9219
Q6 25.1406 12.1719 29.8281
Q18.3594 34.5156 30.6094 34.5156
L43.2188 34.5156
L43.2188 35.4062
Q43.2188 41.6094 39.1406 45
Q35.0625 48.3906 27.6875 48.3906
Q23 48.3906 18.5469 47.2656
Q14.1094 46.1406 10.0156 43.8906
L10.0156 52.2031
Q14.9375 54.1094 19.5781 55.0469
Q24.2188 56 28.6094 56
Q40.4844 56 46.3438 49.8438
Q52.2031 43.7031 52.2031 31.2031" id="BitstreamVeraSans-Roman-61"/>
     <path d="
M44.2812 53.0781
L44.2812 44.5781
Q40.4844 46.5312 36.375 47.5
Q32.2812 48.4844 27.875 48.4844
Q21.1875 48.4844 17.8438 46.4375
Q14.5 44.3906 14.5 40.2812
Q14.5 37.1562 16.8906 35.375
Q19.2812 33.5938 26.5156 31.9844
L29.5938 31.2969
Q39.1562 29.25 43.1875 25.5156
Q47.2188 21.7812 47.2188 15.0938
Q47.2188 7.46875 41.1875 3.01562
Q35.1562 -1.42188 24.6094 -1.42188
Q20.2188 -1.42188 15.4531 -0.5625
Q10.6875 0.296875 5.42188 2
L5.42188 11.2812
Q10.4062 8.6875 15.2344 7.39062
Q20.0625 6.10938 24.8125 6.10938
Q31.1562 6.10938 34.5625 8.28125
Q37.9844 10.4531 37.9844 14.4062
Q37.9844 18.0625 35.5156 20.0156
Q33.0625 21.9688 24.7031 23.7812
L21.5781 24.5156
Q13.2344 26.2656 9.51562 29.9062
Q5.8125 33.5469 5.8125 39.8906
Q5.8125 47.6094 11.2812 51.7969
Q16.75 56 26.8125 56
Q31.7812 56 36.1719 55.2656
Q40.5781 54.5469 44.2812 53.0781" id="BitstreamVeraSans-Roman-73"/>
    </defs>
    <g style="fill:#808080;" transform="translate(30.24628125 201.6)rotate(-90.0)scale(0.11 -0.11)">
     <use xlink:href="#BitstreamVeraSans-Roman-52"/>
     <use x="67.232421875" xlink:href="#BitstreamVeraSans-Roman-61"/>
     <use x="128.51171875" xlink:href="#BitstreamVeraSans-Roman-74"/>
     <use x="167.720703125" xlink:href="#BitstreamVeraSans-Roman-65"/>
     <use x="229.244140625" xlink:href="#BitstreamVeraSans-Roman-73"/>
     <use x="281.34375" xlink:href="#BitstreamVeraSans-Roman-20"/>
     <use x="313.130859375" xlink:href="#BitstreamVeraSans-Roman-28"/>
     <use x="352.14453125" xlink:href="#BitstreamVeraSans-Roman-25"/>
     <use x="447.1640625" xlink:href="#BitstreamVeraSans-Roman-29"/>
    </g>
   </g>
   <g id="text_18">
    <!-- By: Erica J. Kim. Source: Bureau of Labor Statistics -->
    <defs>
     <path d="
M37.1094 75.9844
L37.1094 68.5
L28.5156 68.5
Q23.6875 68.5 21.7969 66.5469
Q19.9219 64.5938 19.9219 59.5156
L19.9219 54.6875
L34.7188 54.6875
L34.7188 47.7031
L19.9219 47.7031
L19.9219 0
L10.8906 0
L10.8906 47.7031
L2.29688 47.7031
L2.29688 54.6875
L10.8906 54.6875
L10.8906 58.5
Q10.8906 67.625 15.1406 71.7969
Q19.3906 75.9844 28.6094 75.9844
z
" id="BitstreamVeraSans-Roman-66"/>
     <path d="
M53.5156 70.5156
L53.5156 60.8906
Q47.9062 63.5781 42.9219 64.8906
Q37.9375 66.2188 33.2969 66.2188
Q25.25 66.2188 20.875 63.0938
Q16.5 59.9688 16.5 54.2031
Q16.5 49.3594 19.4062 46.8906
Q22.3125 44.4375 30.4219 42.9219
L36.375 41.7031
Q47.4062 39.5938 52.6562 34.2969
Q57.9062 29 57.9062 20.125
Q57.9062 9.51562 50.7969 4.04688
Q43.7031 -1.42188 29.9844 -1.42188
Q24.8125 -1.42188 18.9688 -0.25
Q13.1406 0.921875 6.89062 3.21875
L6.89062 13.375
Q12.8906 10.0156 18.6562 8.29688
Q24.4219 6.59375 29.9844 6.59375
Q38.4219 6.59375 43.0156 9.90625
Q47.6094 13.2344 47.6094 19.3906
Q47.6094 24.75 44.3125 27.7812
Q41.0156 30.8125 33.5 32.3281
L27.4844 33.5
Q16.4531 35.6875 11.5156 40.375
Q6.59375 45.0625 6.59375 53.4219
Q6.59375 63.0938 13.4062 68.6562
Q20.2188 74.2188 32.1719 74.2188
Q37.3125 74.2188 42.625 73.2812
Q47.9531 72.3594 53.5156 70.5156" id="BitstreamVeraSans-Roman-53"/>
     <path d="
M9.8125 72.9062
L19.6719 72.9062
L19.6719 42.0938
L52.3906 72.9062
L65.0938 72.9062
L28.9062 38.9219
L67.6719 0
L54.6875 0
L19.6719 35.1094
L19.6719 0
L9.8125 0
z
" id="BitstreamVeraSans-Roman-4b"/>
     <path d="
M9.8125 72.9062
L19.6719 72.9062
L19.6719 5.07812
Q19.6719 -8.10938 14.6719 -14.0625
Q9.67188 -20.0156 -1.42188 -20.0156
L-5.17188 -20.0156
L-5.17188 -11.7188
L-2.09375 -11.7188
Q4.4375 -11.7188 7.125 -8.04688
Q9.8125 -4.39062 9.8125 5.07812
z
" id="BitstreamVeraSans-Roman-4a"/>
     <path d="
M52 44.1875
Q55.375 50.25 60.0625 53.125
Q64.75 56 71.0938 56
Q79.6406 56 84.2812 50.0156
Q88.9219 44.0469 88.9219 33.0156
L88.9219 0
L79.8906 0
L79.8906 32.7188
Q79.8906 40.5781 77.0938 44.375
Q74.3125 48.1875 68.6094 48.1875
Q61.625 48.1875 57.5625 43.5469
Q53.5156 38.9219 53.5156 30.9062
L53.5156 0
L44.4844 0
L44.4844 32.7188
Q44.4844 40.625 41.7031 44.4062
Q38.9219 48.1875 33.1094 48.1875
Q26.2188 48.1875 22.1562 43.5312
Q18.1094 38.875 18.1094 30.9062
L18.1094 0
L9.07812 0
L9.07812 54.6875
L18.1094 54.6875
L18.1094 46.1875
Q21.1875 51.2188 25.4844 53.6094
Q29.7812 56 35.6875 56
Q41.6562 56 45.8281 52.9688
Q50 49.9531 52 44.1875" id="BitstreamVeraSans-Roman-6d"/>
     <path d="
M30.6094 48.3906
Q23.3906 48.3906 19.1875 42.75
Q14.9844 37.1094 14.9844 27.2969
Q14.9844 17.4844 19.1562 11.8438
Q23.3438 6.20312 30.6094 6.20312
Q37.7969 6.20312 41.9844 11.8594
Q46.1875 17.5312 46.1875 27.2969
Q46.1875 37.0156 41.9844 42.7031
Q37.7969 48.3906 30.6094 48.3906
M30.6094 56
Q42.3281 56 49.0156 48.375
Q55.7188 40.7656 55.7188 27.2969
Q55.7188 13.875 49.0156 6.21875
Q42.3281 -1.42188 30.6094 -1.42188
Q18.8438 -1.42188 12.1719 6.21875
Q5.51562 13.875 5.51562 27.2969
Q5.51562 40.7656 12.1719 48.375
Q18.8438 56 30.6094 56" id="BitstreamVeraSans-Roman-6f"/>
     <path d="
M9.8125 72.9062
L19.6719 72.9062
L19.6719 8.29688
L55.1719 8.29688
L55.1719 0
L9.8125 0
z
" id="BitstreamVeraSans-Roman-4c"/>
     <path d="
M9.8125 72.9062
L55.9062 72.9062
L55.9062 64.5938
L19.6719 64.5938
L19.6719 43.0156
L54.3906 43.0156
L54.3906 34.7188
L19.6719 34.7188
L19.6719 8.29688
L56.7812 8.29688
L56.7812 0
L9.8125 0
z
" id="BitstreamVeraSans-Roman-45"/>
     <path d="
M11.7188 12.4062
L22.0156 12.4062
L22.0156 0
L11.7188 0
z

M11.7188 51.7031
L22.0156 51.7031
L22.0156 39.3125
L11.7188 39.3125
z
" id="BitstreamVeraSans-Roman-3a"/>
     <path d="
M9.42188 54.6875
L18.4062 54.6875
L18.4062 0
L9.42188 0
z

M9.42188 75.9844
L18.4062 75.9844
L18.4062 64.5938
L9.42188 64.5938
z
" id="BitstreamVeraSans-Roman-69"/>
     <path d="
M19.6719 34.8125
L19.6719 8.10938
L35.5 8.10938
Q43.4531 8.10938 47.2812 11.4062
Q51.125 14.7031 51.125 21.4844
Q51.125 28.3281 47.2812 31.5625
Q43.4531 34.8125 35.5 34.8125
z

M19.6719 64.7969
L19.6719 42.8281
L34.2812 42.8281
Q41.5 42.8281 45.0312 45.5312
Q48.5781 48.25 48.5781 53.8125
Q48.5781 59.3281 45.0312 62.0625
Q41.5 64.7969 34.2812 64.7969
z

M9.8125 72.9062
L35.0156 72.9062
Q46.2969 72.9062 52.3906 68.2188
Q58.5 63.5312 58.5 54.8906
Q58.5 48.1875 55.375 44.2344
Q52.25 40.2812 46.1875 39.3125
Q53.4688 37.75 57.5 32.7812
Q61.5312 27.8281 61.5312 20.4062
Q61.5312 10.6406 54.8906 5.3125
Q48.25 0 35.9844 0
L9.8125 0
z
" id="BitstreamVeraSans-Roman-42"/>
     <path d="
M32.1719 -5.07812
Q28.375 -14.8438 24.75 -17.8125
Q21.1406 -20.7969 15.0938 -20.7969
L7.90625 -20.7969
L7.90625 -13.2812
L13.1875 -13.2812
Q16.8906 -13.2812 18.9375 -11.5156
Q21 -9.76562 23.4844 -3.21875
L25.0938 0.875
L2.98438 54.6875
L12.5 54.6875
L29.5938 11.9219
L46.6875 54.6875
L56.2031 54.6875
z
" id="BitstreamVeraSans-Roman-79"/>
     <path d="
M10.6875 12.4062
L21 12.4062
L21 0
L10.6875 0
z
" id="BitstreamVeraSans-Roman-2e"/>
     <path d="
M8.5 21.5781
L8.5 54.6875
L17.4844 54.6875
L17.4844 21.9219
Q17.4844 14.1562 20.5 10.2656
Q23.5312 6.39062 29.5938 6.39062
Q36.8594 6.39062 41.0781 11.0312
Q45.3125 15.6719 45.3125 23.6875
L45.3125 54.6875
L54.2969 54.6875
L54.2969 0
L45.3125 0
L45.3125 8.40625
Q42.0469 3.42188 37.7188 1
Q33.4062 -1.42188 27.6875 -1.42188
Q18.2656 -1.42188 13.375 4.4375
Q8.5 10.2969 8.5 21.5781" id="BitstreamVeraSans-Roman-75"/>
     <path d="
M41.1094 46.2969
Q39.5938 47.1719 37.8125 47.5781
Q36.0312 48 33.8906 48
Q26.2656 48 22.1875 43.0469
Q18.1094 38.0938 18.1094 28.8125
L18.1094 0
L9.07812 0
L9.07812 54.6875
L18.1094 54.6875
L18.1094 46.1875
Q20.9531 51.1719 25.4844 53.5781
Q30.0312 56 36.5312 56
Q37.4531 56 38.5781 55.875
Q39.7031 55.7656 41.0625 55.5156
z
" id="BitstreamVeraSans-Roman-72"/>
     <path d="
M48.7812 52.5938
L48.7812 44.1875
Q44.9688 46.2969 41.1406 47.3438
Q37.3125 48.3906 33.4062 48.3906
Q24.6562 48.3906 19.8125 42.8438
Q14.9844 37.3125 14.9844 27.2969
Q14.9844 17.2812 19.8125 11.7344
Q24.6562 6.20312 33.4062 6.20312
Q37.3125 6.20312 41.1406 7.25
Q44.9688 8.29688 48.7812 10.4062
L48.7812 2.09375
Q45.0156 0.34375 40.9844 -0.53125
Q36.9688 -1.42188 32.4219 -1.42188
Q20.0625 -1.42188 12.7812 6.34375
Q5.51562 14.1094 5.51562 27.2969
Q5.51562 40.6719 12.8594 48.3281
Q20.2188 56 33.0156 56
Q37.1562 56 41.1094 55.1406
Q45.0625 54.2969 48.7812 52.5938" id="BitstreamVeraSans-Roman-63"/>
     <path d="
M48.6875 27.2969
Q48.6875 37.2031 44.6094 42.8438
Q40.5312 48.4844 33.4062 48.4844
Q26.2656 48.4844 22.1875 42.8438
Q18.1094 37.2031 18.1094 27.2969
Q18.1094 17.3906 22.1875 11.75
Q26.2656 6.10938 33.4062 6.10938
Q40.5312 6.10938 44.6094 11.75
Q48.6875 17.3906 48.6875 27.2969
M18.1094 46.3906
Q20.9531 51.2656 25.2656 53.625
Q29.5938 56 35.5938 56
Q45.5625 56 51.7812 48.0938
Q58.0156 40.1875 58.0156 27.2969
Q58.0156 14.4062 51.7812 6.48438
Q45.5625 -1.42188 35.5938 -1.42188
Q29.5938 -1.42188 25.2656 0.953125
Q20.9531 3.32812 18.1094 8.20312
L18.1094 0
L9.07812 0
L9.07812 75.9844
L18.1094 75.9844
z
" id="BitstreamVeraSans-Roman-62"/>
    </defs>
    <g style="fill:#808080;" transform="translate(21.888 237.312)scale(0.1 -0.1)">
     <use xlink:href="#BitstreamVeraSans-Roman-42"/>
     <use x="68.603515625" xlink:href="#BitstreamVeraSans-Roman-79"/>
     <use x="120.533203125" xlink:href="#BitstreamVeraSans-Roman-3a"/>
     <use x="154.224609375" xlink:href="#BitstreamVeraSans-Roman-20"/>
     <use x="186.01171875" xlink:href="#BitstreamVeraSans-Roman-45"/>
     <use x="249.1953125" xlink:href="#BitstreamVeraSans-Roman-72"/>
     <use x="290.30859375" xlink:href="#BitstreamVeraSans-Roman-69"/>
     <use x="318.091796875" xlink:href="#BitstreamVeraSans-Roman-63"/>
     <use x="373.072265625" xlink:href="#BitstreamVeraSans-Roman-61"/>
     <use x="434.3515625" xlink:href="#BitstreamVeraSans-Roman-20"/>
     <use x="466.138671875" xlink:href="#BitstreamVeraSans-Roman-4a"/>
     <use x="495.630859375" xlink:href="#BitstreamVeraSans-Roman-2e"/>
     <use x="527.41796875" xlink:href="#BitstreamVeraSans-Roman-20"/>
     <use x="559.205078125" xlink:href="#BitstreamVeraSans-Roman-4b"/>
     <use x="624.78125" xlink:href="#BitstreamVeraSans-Roman-69"/>
     <use x="652.564453125" xlink:href="#BitstreamVeraSans-Roman-6d"/>
     <use x="749.9765625" xlink:href="#BitstreamVeraSans-Roman-2e"/>
     <use x="781.763671875" xlink:href="#BitstreamVeraSans-Roman-20"/>
     <use x="813.55078125" xlink:href="#BitstreamVeraSans-Roman-53"/>
     <use x="877.02734375" xlink:href="#BitstreamVeraSans-Roman-6f"/>
     <use x="938.208984375" xlink:href="#BitstreamVeraSans-Roman-75"/>
     <use x="1001.58789062" xlink:href="#BitstreamVeraSans-Roman-72"/>
     <use x="1040.45117188" xlink:href="#BitstreamVeraSans-Roman-63"/>
     <use x="1095.43164062" xlink:href="#BitstreamVeraSans-Roman-65"/>
     <use x="1156.95507812" xlink:href="#BitstreamVeraSans-Roman-3a"/>
     <use x="1190.64648438" xlink:href="#BitstreamVeraSans-Roman-20"/>
     <use x="1222.43359375" xlink:href="#BitstreamVeraSans-Roman-42"/>
     <use x="1291.03710938" xlink:href="#BitstreamVeraSans-Roman-75"/>
     <use x="1354.41601562" xlink:href="#BitstreamVeraSans-Roman-72"/>
     <use x="1393.27929688" xlink:href="#BitstreamVeraSans-Roman-65"/>
     <use x="1454.80273438" xlink:href="#BitstreamVeraSans-Roman-61"/>
     <use x="1516.08203125" xlink:href="#BitstreamVeraSans-Roman-75"/>
     <use x="1579.4609375" xlink:href="#BitstreamVeraSans-Roman-20"/>
     <use x="1611.24804688" xlink:href="#BitstreamVeraSans-Roman-6f"/>
     <use x="1672.4296875" xlink:href="#BitstreamVeraSans-Roman-66"/>
     <use x="1707.63476562" xlink:href="#BitstreamVeraSans-Roman-20"/>
     <use x="1739.421875" xlink:href="#BitstreamVeraSans-Roman-4c"/>
     <use x="1795.13476562" xlink:href="#BitstreamVeraSans-Roman-61"/>
     <use x="1856.4140625" xlink:href="#BitstreamVeraSans-Roman-62"/>
     <use x="1919.890625" xlink:href="#BitstreamVeraSans-Roman-6f"/>
     <use x="1981.07226562" xlink:href="#BitstreamVeraSans-Roman-72"/>
     <use x="2022.18554688" xlink:href="#BitstreamVeraSans-Roman-20"/>
     <use x="2053.97265625" xlink:href="#BitstreamVeraSans-Roman-53"/>
     <use x="2117.44921875" xlink:href="#BitstreamVeraSans-Roman-74"/>
     <use x="2156.65820312" xlink:href="#BitstreamVeraSans-Roman-61"/>
     <use x="2217.9375" xlink:href="#BitstreamVeraSans-Roman-74"/>
     <use x="2257.14648438" xlink:href="#BitstreamVeraSans-Roman-69"/>
     <use x="2284.9296875" xlink:href="#BitstreamVeraSans-Roman-73"/>
     <use x="2337.02929688" xlink:href="#BitstreamVeraSans-Roman-74"/>
     <use x="2376.23828125" xlink:href="#BitstreamVeraSans-Roman-69"/>
     <use x="2404.02148438" xlink:href="#BitstreamVeraSans-Roman-63"/>
     <use x="2459.00195312" xlink:href="#BitstreamVeraSans-Roman-73"/>
    </g>
   </g>
   <g id="text_19">
    <!-- Layoffs and discharges lag job offerings within Federal jobs industry -->
    <defs>
     <path d="
M1.21875 54.6875
L18.7031 54.6875
L33.4062 17.5781
L45.9062 54.6875
L63.375 54.6875
L40.375 -5.17188
Q36.9219 -14.3125 32.2969 -17.9375
Q27.6875 -21.5781 20.125 -21.5781
L10.0156 -21.5781
L10.0156 -10.1094
L15.4844 -10.1094
Q19.9219 -10.1094 21.9375 -8.6875
Q23.9688 -7.28125 25.0938 -3.60938
L25.5938 -2.09375
z
" id="BitstreamVeraSans-Bold-79"/>
     <path d="
M51.125 52.9844
L51.125 39.7031
Q45.5156 42.0469 40.2812 43.2188
Q35.0625 44.3906 30.4219 44.3906
Q25.4375 44.3906 23.0156 43.1406
Q20.6094 41.8906 20.6094 39.3125
Q20.6094 37.2031 22.4375 36.0781
Q24.2656 34.9688 29 34.4219
L32.0781 33.9844
Q45.5156 32.2812 50.1406 28.375
Q54.7812 24.4688 54.7812 16.1094
Q54.7812 7.375 48.3281 2.96875
Q41.8906 -1.42188 29.1094 -1.42188
Q23.6875 -1.42188 17.8906 -0.5625
Q12.1094 0.296875 6 2
L6 15.2812
Q11.2344 12.75 16.7188 11.4688
Q22.2188 10.2031 27.875 10.2031
Q33.0156 10.2031 35.5938 11.6094
Q38.1875 13.0312 38.1875 15.8281
Q38.1875 18.1719 36.4062 19.3125
Q34.625 20.4531 29.2969 21.0938
L26.2188 21.4844
Q14.5469 22.9531 9.85938 26.9062
Q5.17188 30.8594 5.17188 38.9219
Q5.17188 47.6094 11.125 51.7969
Q17.0938 56 29.3906 56
Q34.2344 56 39.5469 55.2656
Q44.875 54.5469 51.125 52.9844" id="BitstreamVeraSans-Bold-73"/>
     <path d="
M49.0312 39.7969
Q46.7344 40.875 44.4531 41.375
Q42.1875 41.8906 39.8906 41.8906
Q33.1562 41.8906 29.5156 37.5625
Q25.875 33.25 25.875 25.2031
L25.875 0
L8.40625 0
L8.40625 54.6875
L25.875 54.6875
L25.875 45.7031
Q29.25 51.0781 33.6094 53.5312
Q37.9844 56 44.0938 56
Q44.9688 56 45.9844 55.9219
Q47.0156 55.8594 48.9688 55.6094
z
" id="BitstreamVeraSans-Bold-72"/>
     <path d="
M7.8125 21.2969
L7.8125 54.6875
L25.3906 54.6875
L25.3906 49.2188
Q25.3906 44.7812 25.3438 38.0625
Q25.2969 31.3438 25.2969 29.1094
Q25.2969 22.5156 25.6406 19.6094
Q25.9844 16.7031 26.8125 15.375
Q27.875 13.6719 29.6094 12.7344
Q31.3438 11.8125 33.5938 11.8125
Q39.0625 11.8125 42.1875 16.0156
Q45.3125 20.2188 45.3125 27.6875
L45.3125 54.6875
L62.7969 54.6875
L62.7969 0
L45.3125 0
L45.3125 7.90625
Q41.3594 3.125 36.9375 0.84375
Q32.5156 -1.42188 27.2031 -1.42188
Q17.7188 -1.42188 12.7656 4.39062
Q7.8125 10.2031 7.8125 21.2969" id="BitstreamVeraSans-Bold-75"/>
     <path d="
M27.4844 70.2188
L27.4844 54.6875
L45.5156 54.6875
L45.5156 42.1875
L27.4844 42.1875
L27.4844 19
Q27.4844 15.1875 29 13.8438
Q30.5156 12.5 35.0156 12.5
L44 12.5
L44 0
L29 0
Q18.6562 0 14.3281 4.3125
Q10.0156 8.64062 10.0156 19
L10.0156 42.1875
L1.3125 42.1875
L1.3125 54.6875
L10.0156 54.6875
L10.0156 70.2188
z
" id="BitstreamVeraSans-Bold-74"/>
     <path d="
M3.51562 54.6875
L20.5156 54.6875
L29.6875 17
L38.9219 54.6875
L53.5156 54.6875
L62.7031 17.3906
L71.9219 54.6875
L88.9219 54.6875
L74.5156 0
L55.4219 0
L46.1875 37.5938
L37.0156 0
L17.9219 0
z
" id="BitstreamVeraSans-Bold-77"/>
     <path d="
M9.1875 72.9062
L27.9844 72.9062
L27.9844 14.2031
L60.9844 14.2031
L60.9844 0
L9.1875 0
z
" id="BitstreamVeraSans-Bold-4c"/>
     <path d="
M8.40625 75.9844
L25.875 75.9844
L25.875 0
L8.40625 0
z
" id="BitstreamVeraSans-Bold-6c"/>
     <path d="
M8.40625 54.6875
L25.875 54.6875
L25.875 0.984375
Q25.875 -10.0156 20.5938 -15.7969
Q15.3281 -21.5781 5.32812 -21.5781
L-3.32812 -21.5781
L-3.32812 -10.1094
L-0.296875 -10.1094
Q4.6875 -10.1094 6.54688 -7.85938
Q8.40625 -5.60938 8.40625 0.984375
z

M8.40625 75.9844
L25.875 75.9844
L25.875 61.7188
L8.40625 61.7188
z
" id="BitstreamVeraSans-Bold-6a"/>
     <path d="
M34.4219 43.5
Q28.6094 43.5 25.5625 39.3281
Q22.5156 35.1562 22.5156 27.2969
Q22.5156 19.4375 25.5625 15.25
Q28.6094 11.0781 34.4219 11.0781
Q40.1406 11.0781 43.1562 15.25
Q46.1875 19.4375 46.1875 27.2969
Q46.1875 35.1562 43.1562 39.3281
Q40.1406 43.5 34.4219 43.5
M34.4219 56
Q48.5312 56 56.4688 48.375
Q64.4062 40.7656 64.4062 27.2969
Q64.4062 13.8125 56.4688 6.1875
Q48.5312 -1.42188 34.4219 -1.42188
Q20.2656 -1.42188 12.2812 6.1875
Q4.29688 13.8125 4.29688 27.2969
Q4.29688 40.7656 12.2812 48.375
Q20.2656 56 34.4219 56" id="BitstreamVeraSans-Bold-6f"/>
     <path d="
M63.375 33.2969
L63.375 0
L45.7969 0
L45.7969 5.42188
L45.7969 25.4844
Q45.7969 32.5625 45.4844 35.25
Q45.1719 37.9375 44.3906 39.2031
Q43.3594 40.9219 41.5938 41.875
Q39.8438 42.8281 37.5938 42.8281
Q32.125 42.8281 29 38.5938
Q25.875 34.375 25.875 26.9062
L25.875 0
L8.40625 0
L8.40625 54.6875
L25.875 54.6875
L25.875 46.6875
Q29.8281 51.4688 34.2656 53.7344
Q38.7188 56 44.0938 56
Q53.5625 56 58.4688 50.1875
Q63.375 44.3906 63.375 33.2969" id="BitstreamVeraSans-Bold-6e"/>
     <path d="
M63.375 33.2969
L63.375 0
L45.7969 0
L45.7969 5.42188
L45.7969 25.3906
Q45.7969 32.5625 45.4844 35.25
Q45.1719 37.9375 44.3906 39.2031
Q43.3594 40.9219 41.5938 41.875
Q39.8438 42.8281 37.5938 42.8281
Q32.125 42.8281 29 38.5938
Q25.875 34.375 25.875 26.9062
L25.875 0
L8.40625 0
L8.40625 75.9844
L25.875 75.9844
L25.875 46.6875
Q29.8281 51.4688 34.2656 53.7344
Q38.7188 56 44.0938 56
Q53.5625 56 58.4688 50.1875
Q63.375 44.3906 63.375 33.2969" id="BitstreamVeraSans-Bold-68"/>
     <path d="
M8.40625 54.6875
L25.875 54.6875
L25.875 0
L8.40625 0
z

M8.40625 75.9844
L25.875 75.9844
L25.875 61.7188
L8.40625 61.7188
z
" id="BitstreamVeraSans-Bold-69"/>
     <path id="BitstreamVeraSans-Bold-20"/>
     <path d="
M9.1875 72.9062
L59.9062 72.9062
L59.9062 58.6875
L27.9844 58.6875
L27.9844 45.125
L58.0156 45.125
L58.0156 30.9062
L27.9844 30.9062
L27.9844 0
L9.1875 0
z
" id="BitstreamVeraSans-Bold-46"/>
     <path d="
M37.5 11.2812
Q43.1094 11.2812 46.0625 15.375
Q49.0312 19.4844 49.0312 27.2969
Q49.0312 35.1094 46.0625 39.2031
Q43.1094 43.3125 37.5 43.3125
Q31.8906 43.3125 28.875 39.1875
Q25.875 35.0625 25.875 27.2969
Q25.875 19.5312 28.875 15.4062
Q31.8906 11.2812 37.5 11.2812
M25.875 46.6875
Q29.5 51.4688 33.8906 53.7344
Q38.2812 56 44 56
Q54.1094 56 60.5938 47.9688
Q67.0938 39.9375 67.0938 27.2969
Q67.0938 14.6562 60.5938 6.60938
Q54.1094 -1.42188 44 -1.42188
Q38.2812 -1.42188 33.8906 0.84375
Q29.5 3.125 25.875 7.90625
L25.875 0
L8.40625 0
L8.40625 75.9844
L25.875 75.9844
z
" id="BitstreamVeraSans-Bold-62"/>
     <path d="
M52.5938 52.9844
L52.5938 38.7188
Q49.0312 41.1562 45.4375 42.3281
Q41.8438 43.5 37.9844 43.5
Q30.6719 43.5 26.5938 39.2344
Q22.5156 34.9688 22.5156 27.2969
Q22.5156 19.625 26.5938 15.3438
Q30.6719 11.0781 37.9844 11.0781
Q42.0938 11.0781 45.7812 12.2969
Q49.4688 13.5312 52.5938 15.9219
L52.5938 1.60938
Q48.4844 0.09375 44.2656 -0.65625
Q40.0469 -1.42188 35.7969 -1.42188
Q21 -1.42188 12.6406 6.17188
Q4.29688 13.7656 4.29688 27.2969
Q4.29688 40.8281 12.6406 48.4062
Q21 56 35.7969 56
Q40.0938 56 44.2656 55.25
Q48.4375 54.5 52.5938 52.9844" id="BitstreamVeraSans-Bold-63"/>
     <path d="
M32.9062 24.6094
Q27.4375 24.6094 24.6719 22.75
Q21.9219 20.9062 21.9219 17.2812
Q21.9219 13.9688 24.1406 12.0781
Q26.375 10.2031 30.3281 10.2031
Q35.25 10.2031 38.625 13.7344
Q42 17.2812 42 22.6094
L42 24.6094
z

M59.625 31.2031
L59.625 0
L42 0
L42 8.10938
Q38.4844 3.125 34.0781 0.84375
Q29.6875 -1.42188 23.3906 -1.42188
Q14.8906 -1.42188 9.59375 3.53125
Q4.29688 8.5 4.29688 16.4062
Q4.29688 26.0312 10.9062 30.5156
Q17.5312 35.0156 31.6875 35.0156
L42 35.0156
L42 36.375
Q42 40.5312 38.7188 42.4531
Q35.4531 44.3906 28.5156 44.3906
Q22.9062 44.3906 18.0625 43.2656
Q13.2344 42.1406 9.07812 39.8906
L9.07812 53.2188
Q14.7031 54.5938 20.3594 55.2969
Q26.0312 56 31.6875 56
Q46.4844 56 53.0469 50.1719
Q59.625 44.3438 59.625 31.2031" id="BitstreamVeraSans-Bold-61"/>
     <path d="
M44.3906 75.9844
L44.3906 64.5
L34.7188 64.5
Q31 64.5 29.5312 63.1562
Q28.0781 61.8125 28.0781 58.5
L28.0781 54.6875
L43.0156 54.6875
L43.0156 42.1875
L28.0781 42.1875
L28.0781 0
L10.5938 0
L10.5938 42.1875
L1.90625 42.1875
L1.90625 54.6875
L10.5938 54.6875
L10.5938 58.5
Q10.5938 67.4375 15.5781 71.7031
Q20.5625 75.9844 31 75.9844
z
" id="BitstreamVeraSans-Bold-66"/>
     <path d="
M45.6094 9.28125
Q42 4.5 37.6406 2.25
Q33.2969 0 27.5938 0
Q17.5781 0 11.0312 7.875
Q4.5 15.7656 4.5 27.9844
Q4.5 40.2344 11.0312 48.0625
Q17.5781 55.9062 27.5938 55.9062
Q33.2969 55.9062 37.6406 53.6562
Q42 51.4219 45.6094 46.5781
L45.6094 54.6875
L63.1875 54.6875
L63.1875 5.51562
Q63.1875 -7.67188 54.8594 -14.625
Q46.5312 -21.5781 30.7188 -21.5781
Q25.5938 -21.5781 20.7969 -20.7969
Q16.0156 -20.0156 11.1875 -18.4062
L11.1875 -4.78125
Q15.7656 -7.42188 20.1562 -8.71875
Q24.5625 -10.0156 29 -10.0156
Q37.5938 -10.0156 41.5938 -6.25
Q45.6094 -2.48438 45.6094 5.51562
z

M34.0781 43.3125
Q28.6562 43.3125 25.625 39.2969
Q22.6094 35.2969 22.6094 27.9844
Q22.6094 20.4531 25.5312 16.5781
Q28.4688 12.7031 34.0781 12.7031
Q39.5469 12.7031 42.5781 16.7031
Q45.6094 20.7031 45.6094 27.9844
Q45.6094 35.2969 42.5781 39.2969
Q39.5469 43.3125 34.0781 43.3125" id="BitstreamVeraSans-Bold-67"/>
     <path d="
M45.6094 46.6875
L45.6094 75.9844
L63.1875 75.9844
L63.1875 0
L45.6094 0
L45.6094 7.90625
Q42 3.07812 37.6406 0.828125
Q33.2969 -1.42188 27.5938 -1.42188
Q17.4844 -1.42188 10.9844 6.60938
Q4.5 14.6562 4.5 27.2969
Q4.5 39.9375 10.9844 47.9688
Q17.4844 56 27.5938 56
Q33.25 56 37.625 53.7344
Q42 51.4688 45.6094 46.6875
M34.0781 11.2812
Q39.7031 11.2812 42.6562 15.375
Q45.6094 19.4844 45.6094 27.2969
Q45.6094 35.1094 42.6562 39.2031
Q39.7031 43.3125 34.0781 43.3125
Q28.5156 43.3125 25.5625 39.2031
Q22.6094 35.1094 22.6094 27.2969
Q22.6094 19.4844 25.5625 15.375
Q28.5156 11.2812 34.0781 11.2812" id="BitstreamVeraSans-Bold-64"/>
     <path d="
M62.9844 27.4844
L62.9844 22.5156
L22.125 22.5156
Q22.75 16.3594 26.5625 13.2812
Q30.375 10.2031 37.2031 10.2031
Q42.7188 10.2031 48.5 11.8438
Q54.2969 13.4844 60.4062 16.7969
L60.4062 3.32812
Q54.2031 0.984375 48 -0.21875
Q41.7969 -1.42188 35.5938 -1.42188
Q20.75 -1.42188 12.5156 6.125
Q4.29688 13.6719 4.29688 27.2969
Q4.29688 40.6719 12.375 48.3281
Q20.4531 56 34.625 56
Q47.5156 56 55.25 48.2344
Q62.9844 40.4844 62.9844 27.4844
M45.0156 33.2969
Q45.0156 38.2812 42.1094 41.3281
Q39.2031 44.3906 34.5156 44.3906
Q29.4375 44.3906 26.2656 41.5312
Q23.0938 38.6719 22.3125 33.2969
z
" id="BitstreamVeraSans-Bold-65"/>
    </defs>
    <g style="fill:#e24a33;" transform="translate(21.888 14.3492375)scale(0.14 -0.14)">
     <use xlink:href="#BitstreamVeraSans-Bold-4c"/>
     <use x="63.720703125" xlink:href="#BitstreamVeraSans-Bold-61"/>
     <use x="128.076171875" xlink:href="#BitstreamVeraSans-Bold-79"/>
     <use x="193.26171875" xlink:href="#BitstreamVeraSans-Bold-6f"/>
     <use x="261.962890625" xlink:href="#BitstreamVeraSans-Bold-66"/>
     <use x="305.46875" xlink:href="#BitstreamVeraSans-Bold-66"/>
     <use x="348.974609375" xlink:href="#BitstreamVeraSans-Bold-73"/>
     <use x="408.49609375" xlink:href="#BitstreamVeraSans-Bold-20"/>
     <use x="443.310546875" xlink:href="#BitstreamVeraSans-Bold-61"/>
     <use x="510.791015625" xlink:href="#BitstreamVeraSans-Bold-6e"/>
     <use x="581.982421875" xlink:href="#BitstreamVeraSans-Bold-64"/>
     <use x="653.564453125" xlink:href="#BitstreamVeraSans-Bold-20"/>
     <use x="688.37890625" xlink:href="#BitstreamVeraSans-Bold-64"/>
     <use x="759.9609375" xlink:href="#BitstreamVeraSans-Bold-69"/>
     <use x="794.23828125" xlink:href="#BitstreamVeraSans-Bold-73"/>
     <use x="853.759765625" xlink:href="#BitstreamVeraSans-Bold-63"/>
     <use x="913.037109375" xlink:href="#BitstreamVeraSans-Bold-68"/>
     <use x="984.228515625" xlink:href="#BitstreamVeraSans-Bold-61"/>
     <use x="1051.70898438" xlink:href="#BitstreamVeraSans-Bold-72"/>
     <use x="1101.02539062" xlink:href="#BitstreamVeraSans-Bold-67"/>
     <use x="1172.60742188" xlink:href="#BitstreamVeraSans-Bold-65"/>
     <use x="1240.4296875" xlink:href="#BitstreamVeraSans-Bold-73"/>
     <use x="1299.95117188" xlink:href="#BitstreamVeraSans-Bold-20"/>
     <use x="1334.765625" xlink:href="#BitstreamVeraSans-Bold-6c"/>
     <use x="1369.04296875" xlink:href="#BitstreamVeraSans-Bold-61"/>
     <use x="1436.5234375" xlink:href="#BitstreamVeraSans-Bold-67"/>
     <use x="1508.10546875" xlink:href="#BitstreamVeraSans-Bold-20"/>
     <use x="1542.91992188" xlink:href="#BitstreamVeraSans-Bold-6a"/>
     <use x="1577.19726562" xlink:href="#BitstreamVeraSans-Bold-6f"/>
     <use x="1645.8984375" xlink:href="#BitstreamVeraSans-Bold-62"/>
     <use x="1717.48046875" xlink:href="#BitstreamVeraSans-Bold-20"/>
     <use x="1752.29492188" xlink:href="#BitstreamVeraSans-Bold-6f"/>
     <use x="1820.99609375" xlink:href="#BitstreamVeraSans-Bold-66"/>
     <use x="1864.50195312" xlink:href="#BitstreamVeraSans-Bold-66"/>
     <use x="1908.0078125" xlink:href="#BitstreamVeraSans-Bold-65"/>
     <use x="1975.83007812" xlink:href="#BitstreamVeraSans-Bold-72"/>
     <use x="2025.14648438" xlink:href="#BitstreamVeraSans-Bold-69"/>
     <use x="2059.42382812" xlink:href="#BitstreamVeraSans-Bold-6e"/>
     <use x="2130.61523438" xlink:href="#BitstreamVeraSans-Bold-67"/>
     <use x="2202.19726562" xlink:href="#BitstreamVeraSans-Bold-73"/>
     <use x="2261.71875" xlink:href="#BitstreamVeraSans-Bold-20"/>
     <use x="2296.53320312" xlink:href="#BitstreamVeraSans-Bold-77"/>
     <use x="2388.91601562" xlink:href="#BitstreamVeraSans-Bold-69"/>
     <use x="2423.19335938" xlink:href="#BitstreamVeraSans-Bold-74"/>
     <use x="2470.99609375" xlink:href="#BitstreamVeraSans-Bold-68"/>
     <use x="2542.1875" xlink:href="#BitstreamVeraSans-Bold-69"/>
     <use x="2576.46484375" xlink:href="#BitstreamVeraSans-Bold-6e"/>
     <use x="2647.65625" xlink:href="#BitstreamVeraSans-Bold-20"/>
     <use x="2682.47070312" xlink:href="#BitstreamVeraSans-Bold-46"/>
     <use x="2746.78125" xlink:href="#BitstreamVeraSans-Bold-65"/>
     <use x="2814.60351562" xlink:href="#BitstreamVeraSans-Bold-64"/>
     <use x="2886.18554688" xlink:href="#BitstreamVeraSans-Bold-65"/>
     <use x="2954.0078125" xlink:href="#BitstreamVeraSans-Bold-72"/>
     <use x="3003.32421875" xlink:href="#BitstreamVeraSans-Bold-61"/>
     <use x="3070.8046875" xlink:href="#BitstreamVeraSans-Bold-6c"/>
     <use x="3105.08203125" xlink:href="#BitstreamVeraSans-Bold-20"/>
     <use x="3139.89648438" xlink:href="#BitstreamVeraSans-Bold-6a"/>
     <use x="3174.17382812" xlink:href="#BitstreamVeraSans-Bold-6f"/>
     <use x="3242.875" xlink:href="#BitstreamVeraSans-Bold-62"/>
     <use x="3314.45703125" xlink:href="#BitstreamVeraSans-Bold-73"/>
     <use x="3373.97851562" xlink:href="#BitstreamVeraSans-Bold-20"/>
     <use x="3408.79296875" xlink:href="#BitstreamVeraSans-Bold-69"/>
     <use x="3443.0703125" xlink:href="#BitstreamVeraSans-Bold-6e"/>
     <use x="3514.26171875" xlink:href="#BitstreamVeraSans-Bold-64"/>
     <use x="3585.84375" xlink:href="#BitstreamVeraSans-Bold-75"/>
     <use x="3657.03515625" xlink:href="#BitstreamVeraSans-Bold-73"/>
     <use x="3716.55664062" xlink:href="#BitstreamVeraSans-Bold-74"/>
     <use x="3764.359375" xlink:href="#BitstreamVeraSans-Bold-72"/>
     <use x="3813.67578125" xlink:href="#BitstreamVeraSans-Bold-79"/>
    </g>
   </g>
   <g id="text_20">
    <!-- Spike in hiring in April 2010 was shortly followed by a -->
    <defs>
     <path d="
M54.8906 33.0156
L54.8906 0
L45.9062 0
L45.9062 32.7188
Q45.9062 40.4844 42.875 44.3281
Q39.8438 48.1875 33.7969 48.1875
Q26.5156 48.1875 22.3125 43.5469
Q18.1094 38.9219 18.1094 30.9062
L18.1094 0
L9.07812 0
L9.07812 54.6875
L18.1094 54.6875
L18.1094 46.1875
Q21.3438 51.125 25.7031 53.5625
Q30.0781 56 35.7969 56
Q45.2188 56 50.0469 50.1719
Q54.8906 44.3438 54.8906 33.0156" id="BitstreamVeraSans-Roman-6e"/>
     <path d="
M9.42188 75.9844
L18.4062 75.9844
L18.4062 0
L9.42188 0
z
" id="BitstreamVeraSans-Roman-6c"/>
     <path d="
M9.07812 75.9844
L18.1094 75.9844
L18.1094 31.1094
L44.9219 54.6875
L56.3906 54.6875
L27.3906 29.1094
L57.625 0
L45.9062 0
L18.1094 26.7031
L18.1094 0
L9.07812 0
z
" id="BitstreamVeraSans-Roman-6b"/>
     <path d="
M54.8906 33.0156
L54.8906 0
L45.9062 0
L45.9062 32.7188
Q45.9062 40.4844 42.875 44.3281
Q39.8438 48.1875 33.7969 48.1875
Q26.5156 48.1875 22.3125 43.5469
Q18.1094 38.9219 18.1094 30.9062
L18.1094 0
L9.07812 0
L9.07812 75.9844
L18.1094 75.9844
L18.1094 46.1875
Q21.3438 51.125 25.7031 53.5625
Q30.0781 56 35.7969 56
Q45.2188 56 50.0469 50.1719
Q54.8906 44.3438 54.8906 33.0156" id="BitstreamVeraSans-Roman-68"/>
     <path d="
M34.1875 63.1875
L20.7969 26.9062
L47.6094 26.9062
z

M28.6094 72.9062
L39.7969 72.9062
L67.5781 0
L57.3281 0
L50.6875 18.7031
L17.8281 18.7031
L11.1875 0
L0.78125 0
z
" id="BitstreamVeraSans-Roman-41"/>
     <path d="
M45.4062 46.3906
L45.4062 75.9844
L54.3906 75.9844
L54.3906 0
L45.4062 0
L45.4062 8.20312
Q42.5781 3.32812 38.25 0.953125
Q33.9375 -1.42188 27.875 -1.42188
Q17.9688 -1.42188 11.7344 6.48438
Q5.51562 14.4062 5.51562 27.2969
Q5.51562 40.1875 11.7344 48.0938
Q17.9688 56 27.875 56
Q33.9375 56 38.25 53.625
Q42.5781 51.2656 45.4062 46.3906
M14.7969 27.2969
Q14.7969 17.3906 18.875 11.75
Q22.9531 6.10938 30.0781 6.10938
Q37.2031 6.10938 41.2969 11.75
Q45.4062 17.3906 45.4062 27.2969
Q45.4062 37.2031 41.2969 42.8438
Q37.2031 48.4844 30.0781 48.4844
Q22.9531 48.4844 18.875 42.8438
Q14.7969 37.2031 14.7969 27.2969" id="BitstreamVeraSans-Roman-64"/>
     <path d="
M4.20312 54.6875
L13.1875 54.6875
L24.4219 12.0156
L35.5938 54.6875
L46.1875 54.6875
L57.4219 12.0156
L68.6094 54.6875
L77.5938 54.6875
L63.2812 0
L52.6875 0
L40.9219 44.8281
L29.1094 0
L18.5 0
z
" id="BitstreamVeraSans-Roman-77"/>
     <path d="
M45.4062 27.9844
Q45.4062 37.75 41.375 43.1094
Q37.3594 48.4844 30.0781 48.4844
Q22.8594 48.4844 18.8281 43.1094
Q14.7969 37.75 14.7969 27.9844
Q14.7969 18.2656 18.8281 12.8906
Q22.8594 7.51562 30.0781 7.51562
Q37.3594 7.51562 41.375 12.8906
Q45.4062 18.2656 45.4062 27.9844
M54.3906 6.78125
Q54.3906 -7.17188 48.1875 -13.9844
Q42 -20.7969 29.2031 -20.7969
Q24.4688 -20.7969 20.2656 -20.0938
Q16.0625 -19.3906 12.1094 -17.9219
L12.1094 -9.1875
Q16.0625 -11.3281 19.9219 -12.3438
Q23.7812 -13.375 27.7812 -13.375
Q36.625 -13.375 41.0156 -8.76562
Q45.4062 -4.15625 45.4062 5.17188
L45.4062 9.625
Q42.625 4.78125 38.2812 2.39062
Q33.9375 0 27.875 0
Q17.8281 0 11.6719 7.65625
Q5.51562 15.3281 5.51562 27.9844
Q5.51562 40.6719 11.6719 48.3281
Q17.8281 56 27.875 56
Q33.9375 56 38.2812 53.6094
Q42.625 51.2188 45.4062 46.3906
L45.4062 54.6875
L54.3906 54.6875
z
" id="BitstreamVeraSans-Roman-67"/>
     <path d="
M18.1094 8.20312
L18.1094 -20.7969
L9.07812 -20.7969
L9.07812 54.6875
L18.1094 54.6875
L18.1094 46.3906
Q20.9531 51.2656 25.2656 53.625
Q29.5938 56 35.5938 56
Q45.5625 56 51.7812 48.0938
Q58.0156 40.1875 58.0156 27.2969
Q58.0156 14.4062 51.7812 6.48438
Q45.5625 -1.42188 35.5938 -1.42188
Q29.5938 -1.42188 25.2656 0.953125
Q20.9531 3.32812 18.1094 8.20312
M48.6875 27.2969
Q48.6875 37.2031 44.6094 42.8438
Q40.5312 48.4844 33.4062 48.4844
Q26.2656 48.4844 22.1875 42.8438
Q18.1094 37.2031 18.1094 27.2969
Q18.1094 17.3906 22.1875 11.75
Q26.2656 6.10938 33.4062 6.10938
Q40.5312 6.10938 44.6094 11.75
Q48.6875 17.3906 48.6875 27.2969" id="BitstreamVeraSans-Roman-70"/>
    </defs>
    <g style="fill:#808080;" transform="translate(182.592 52.238921875)scale(0.11 -0.11)">
     <use xlink:href="#BitstreamVeraSans-Roman-53"/>
     <use x="63.4765625" xlink:href="#BitstreamVeraSans-Roman-70"/>
     <use x="126.953125" xlink:href="#BitstreamVeraSans-Roman-69"/>
     <use x="154.736328125" xlink:href="#BitstreamVeraSans-Roman-6b"/>
     <use x="209.021484375" xlink:href="#BitstreamVeraSans-Roman-65"/>
     <use x="270.544921875" xlink:href="#BitstreamVeraSans-Roman-20"/>
     <use x="302.33203125" xlink:href="#BitstreamVeraSans-Roman-69"/>
     <use x="330.115234375" xlink:href="#BitstreamVeraSans-Roman-6e"/>
     <use x="393.494140625" xlink:href="#BitstreamVeraSans-Roman-20"/>
     <use x="425.28125" xlink:href="#BitstreamVeraSans-Roman-68"/>
     <use x="488.66015625" xlink:href="#BitstreamVeraSans-Roman-69"/>
     <use x="516.443359375" xlink:href="#BitstreamVeraSans-Roman-72"/>
     <use x="557.556640625" xlink:href="#BitstreamVeraSans-Roman-69"/>
     <use x="585.33984375" xlink:href="#BitstreamVeraSans-Roman-6e"/>
     <use x="648.71875" xlink:href="#BitstreamVeraSans-Roman-67"/>
     <use x="712.1953125" xlink:href="#BitstreamVeraSans-Roman-20"/>
     <use x="743.982421875" xlink:href="#BitstreamVeraSans-Roman-69"/>
     <use x="771.765625" xlink:href="#BitstreamVeraSans-Roman-6e"/>
     <use x="835.14453125" xlink:href="#BitstreamVeraSans-Roman-20"/>
     <use x="866.931640625" xlink:href="#BitstreamVeraSans-Roman-41"/>
     <use x="935.33984375" xlink:href="#BitstreamVeraSans-Roman-70"/>
     <use x="998.81640625" xlink:href="#BitstreamVeraSans-Roman-72"/>
     <use x="1039.9296875" xlink:href="#BitstreamVeraSans-Roman-69"/>
     <use x="1067.71289062" xlink:href="#BitstreamVeraSans-Roman-6c"/>
     <use x="1095.49609375" xlink:href="#BitstreamVeraSans-Roman-20"/>
     <use x="1127.28320312" xlink:href="#BitstreamVeraSans-Roman-32"/>
     <use x="1190.90625" xlink:href="#BitstreamVeraSans-Roman-30"/>
     <use x="1254.52929688" xlink:href="#BitstreamVeraSans-Roman-31"/>
     <use x="1318.15234375" xlink:href="#BitstreamVeraSans-Roman-30"/>
     <use x="1381.77539062" xlink:href="#BitstreamVeraSans-Roman-20"/>
     <use x="1413.5625" xlink:href="#BitstreamVeraSans-Roman-77"/>
     <use x="1495.34960938" xlink:href="#BitstreamVeraSans-Roman-61"/>
     <use x="1556.62890625" xlink:href="#BitstreamVeraSans-Roman-73"/>
     <use x="1608.72851562" xlink:href="#BitstreamVeraSans-Roman-20"/>
     <use x="1640.515625" xlink:href="#BitstreamVeraSans-Roman-73"/>
     <use x="1692.61523438" xlink:href="#BitstreamVeraSans-Roman-68"/>
     <use x="1755.99414062" xlink:href="#BitstreamVeraSans-Roman-6f"/>
     <use x="1817.17578125" xlink:href="#BitstreamVeraSans-Roman-72"/>
     <use x="1858.2890625" xlink:href="#BitstreamVeraSans-Roman-74"/>
     <use x="1897.49804688" xlink:href="#BitstreamVeraSans-Roman-6c"/>
     <use x="1925.28125" xlink:href="#BitstreamVeraSans-Roman-79"/>
     <use x="1984.4609375" xlink:href="#BitstreamVeraSans-Roman-20"/>
     <use x="2016.24804688" xlink:href="#BitstreamVeraSans-Roman-66"/>
     <use x="2051.453125" xlink:href="#BitstreamVeraSans-Roman-6f"/>
     <use x="2112.63476562" xlink:href="#BitstreamVeraSans-Roman-6c"/>
     <use x="2140.41796875" xlink:href="#BitstreamVeraSans-Roman-6c"/>
     <use x="2168.20117188" xlink:href="#BitstreamVeraSans-Roman-6f"/>
     <use x="2229.3828125" xlink:href="#BitstreamVeraSans-Roman-77"/>
     <use x="2311.16992188" xlink:href="#BitstreamVeraSans-Roman-65"/>
     <use x="2372.69335938" xlink:href="#BitstreamVeraSans-Roman-64"/>
     <use x="2436.16992188" xlink:href="#BitstreamVeraSans-Roman-20"/>
     <use x="2467.95703125" xlink:href="#BitstreamVeraSans-Roman-62"/>
     <use x="2531.43359375" xlink:href="#BitstreamVeraSans-Roman-79"/>
     <use x="2590.61328125" xlink:href="#BitstreamVeraSans-Roman-20"/>
     <use x="2622.40039062" xlink:href="#BitstreamVeraSans-Roman-61"/>
    </g>
    <!-- spike in layoffs and discharges in June 2010, causing a -->
    <defs>
     <path d="
M11.7188 12.4062
L22.0156 12.4062
L22.0156 4
L14.0156 -11.625
L7.71875 -11.625
L11.7188 4
z
" id="BitstreamVeraSans-Roman-2c"/>
    </defs>
    <g style="fill:#808080;" transform="translate(182.592 64.556515625)scale(0.11 -0.11)">
     <use xlink:href="#BitstreamVeraSans-Roman-73"/>
     <use x="52.099609375" xlink:href="#BitstreamVeraSans-Roman-70"/>
     <use x="115.576171875" xlink:href="#BitstreamVeraSans-Roman-69"/>
     <use x="143.359375" xlink:href="#BitstreamVeraSans-Roman-6b"/>
     <use x="197.64453125" xlink:href="#BitstreamVeraSans-Roman-65"/>
     <use x="259.16796875" xlink:href="#BitstreamVeraSans-Roman-20"/>
     <use x="290.955078125" xlink:href="#BitstreamVeraSans-Roman-69"/>
     <use x="318.73828125" xlink:href="#BitstreamVeraSans-Roman-6e"/>
     <use x="382.1171875" xlink:href="#BitstreamVeraSans-Roman-20"/>
     <use x="413.904296875" xlink:href="#BitstreamVeraSans-Roman-6c"/>
     <use x="441.6875" xlink:href="#BitstreamVeraSans-Roman-61"/>
     <use x="502.966796875" xlink:href="#BitstreamVeraSans-Roman-79"/>
     <use x="562.146484375" xlink:href="#BitstreamVeraSans-Roman-6f"/>
     <use x="623.328125" xlink:href="#BitstreamVeraSans-Roman-66"/>
     <use x="658.533203125" xlink:href="#BitstreamVeraSans-Roman-66"/>
     <use x="693.73828125" xlink:href="#BitstreamVeraSans-Roman-73"/>
     <use x="745.837890625" xlink:href="#BitstreamVeraSans-Roman-20"/>
     <use x="777.625" xlink:href="#BitstreamVeraSans-Roman-61"/>
     <use x="838.904296875" xlink:href="#BitstreamVeraSans-Roman-6e"/>
     <use x="902.283203125" xlink:href="#BitstreamVeraSans-Roman-64"/>
     <use x="965.759765625" xlink:href="#BitstreamVeraSans-Roman-20"/>
     <use x="997.546875" xlink:href="#BitstreamVeraSans-Roman-64"/>
     <use x="1061.0234375" xlink:href="#BitstreamVeraSans-Roman-69"/>
     <use x="1088.80664062" xlink:href="#BitstreamVeraSans-Roman-73"/>
     <use x="1140.90625" xlink:href="#BitstreamVeraSans-Roman-63"/>
     <use x="1195.88671875" xlink:href="#BitstreamVeraSans-Roman-68"/>
     <use x="1259.265625" xlink:href="#BitstreamVeraSans-Roman-61"/>
     <use x="1320.54492188" xlink:href="#BitstreamVeraSans-Roman-72"/>
     <use x="1359.90820312" xlink:href="#BitstreamVeraSans-Roman-67"/>
     <use x="1423.38476562" xlink:href="#BitstreamVeraSans-Roman-65"/>
     <use x="1484.90820312" xlink:href="#BitstreamVeraSans-Roman-73"/>
     <use x="1537.0078125" xlink:href="#BitstreamVeraSans-Roman-20"/>
     <use x="1568.79492188" xlink:href="#BitstreamVeraSans-Roman-69"/>
     <use x="1596.578125" xlink:href="#BitstreamVeraSans-Roman-6e"/>
     <use x="1659.95703125" xlink:href="#BitstreamVeraSans-Roman-20"/>
     <use x="1691.74414062" xlink:href="#BitstreamVeraSans-Roman-4a"/>
     <use x="1721.23632812" xlink:href="#BitstreamVeraSans-Roman-75"/>
     <use x="1784.61523438" xlink:href="#BitstreamVeraSans-Roman-6e"/>
     <use x="1847.99414062" xlink:href="#BitstreamVeraSans-Roman-65"/>
     <use x="1909.51757812" xlink:href="#BitstreamVeraSans-Roman-20"/>
     <use x="1941.3046875" xlink:href="#BitstreamVeraSans-Roman-32"/>
     <use x="2004.92773438" xlink:href="#BitstreamVeraSans-Roman-30"/>
     <use x="2068.55078125" xlink:href="#BitstreamVeraSans-Roman-31"/>
     <use x="2132.17382812" xlink:href="#BitstreamVeraSans-Roman-30"/>
     <use x="2195.796875" xlink:href="#BitstreamVeraSans-Roman-2c"/>
     <use x="2227.58398438" xlink:href="#BitstreamVeraSans-Roman-20"/>
     <use x="2259.37109375" xlink:href="#BitstreamVeraSans-Roman-63"/>
     <use x="2314.3515625" xlink:href="#BitstreamVeraSans-Roman-61"/>
     <use x="2375.63085938" xlink:href="#BitstreamVeraSans-Roman-75"/>
     <use x="2439.00976562" xlink:href="#BitstreamVeraSans-Roman-73"/>
     <use x="2491.109375" xlink:href="#BitstreamVeraSans-Roman-69"/>
     <use x="2518.89257812" xlink:href="#BitstreamVeraSans-Roman-6e"/>
     <use x="2582.27148438" xlink:href="#BitstreamVeraSans-Roman-67"/>
     <use x="2645.74804688" xlink:href="#BitstreamVeraSans-Roman-20"/>
     <use x="2677.53515625" xlink:href="#BitstreamVeraSans-Roman-61"/>
    </g>
    <!-- sharp increase and subsequent decrease in the Federal -->
    <defs>
     <path d="
M9.8125 72.9062
L51.7031 72.9062
L51.7031 64.5938
L19.6719 64.5938
L19.6719 43.1094
L48.5781 43.1094
L48.5781 34.8125
L19.6719 34.8125
L19.6719 0
L9.8125 0
z
" id="BitstreamVeraSans-Roman-46"/>
     <path d="
M14.7969 27.2969
Q14.7969 17.3906 18.875 11.75
Q22.9531 6.10938 30.0781 6.10938
Q37.2031 6.10938 41.2969 11.75
Q45.4062 17.3906 45.4062 27.2969
Q45.4062 37.2031 41.2969 42.8438
Q37.2031 48.4844 30.0781 48.4844
Q22.9531 48.4844 18.875 42.8438
Q14.7969 37.2031 14.7969 27.2969
M45.4062 8.20312
Q42.5781 3.32812 38.25 0.953125
Q33.9375 -1.42188 27.875 -1.42188
Q17.9688 -1.42188 11.7344 6.48438
Q5.51562 14.4062 5.51562 27.2969
Q5.51562 40.1875 11.7344 48.0938
Q17.9688 56 27.875 56
Q33.9375 56 38.25 53.625
Q42.5781 51.2656 45.4062 46.3906
L45.4062 54.6875
L54.3906 54.6875
L54.3906 -20.7969
L45.4062 -20.7969
z
" id="BitstreamVeraSans-Roman-71"/>
    </defs>
    <g style="fill:#808080;" transform="translate(182.592 76.874109375)scale(0.11 -0.11)">
     <use xlink:href="#BitstreamVeraSans-Roman-73"/>
     <use x="52.099609375" xlink:href="#BitstreamVeraSans-Roman-68"/>
     <use x="115.478515625" xlink:href="#BitstreamVeraSans-Roman-61"/>
     <use x="176.7578125" xlink:href="#BitstreamVeraSans-Roman-72"/>
     <use x="217.87109375" xlink:href="#BitstreamVeraSans-Roman-70"/>
     <use x="281.34765625" xlink:href="#BitstreamVeraSans-Roman-20"/>
     <use x="313.134765625" xlink:href="#BitstreamVeraSans-Roman-69"/>
     <use x="340.91796875" xlink:href="#BitstreamVeraSans-Roman-6e"/>
     <use x="404.296875" xlink:href="#BitstreamVeraSans-Roman-63"/>
     <use x="459.27734375" xlink:href="#BitstreamVeraSans-Roman-72"/>
     <use x="498.140625" xlink:href="#BitstreamVeraSans-Roman-65"/>
     <use x="559.6640625" xlink:href="#BitstreamVeraSans-Roman-61"/>
     <use x="620.943359375" xlink:href="#BitstreamVeraSans-Roman-73"/>
     <use x="673.04296875" xlink:href="#BitstreamVeraSans-Roman-65"/>
     <use x="734.56640625" xlink:href="#BitstreamVeraSans-Roman-20"/>
     <use x="766.353515625" xlink:href="#BitstreamVeraSans-Roman-61"/>
     <use x="827.6328125" xlink:href="#BitstreamVeraSans-Roman-6e"/>
     <use x="891.01171875" xlink:href="#BitstreamVeraSans-Roman-64"/>
     <use x="954.48828125" xlink:href="#BitstreamVeraSans-Roman-20"/>
     <use x="986.275390625" xlink:href="#BitstreamVeraSans-Roman-73"/>
     <use x="1038.375" xlink:href="#BitstreamVeraSans-Roman-75"/>
     <use x="1101.75390625" xlink:href="#BitstreamVeraSans-Roman-62"/>
     <use x="1165.23046875" xlink:href="#BitstreamVeraSans-Roman-73"/>
     <use x="1217.33007812" xlink:href="#BitstreamVeraSans-Roman-65"/>
     <use x="1278.85351562" xlink:href="#BitstreamVeraSans-Roman-71"/>
     <use x="1342.33007812" xlink:href="#BitstreamVeraSans-Roman-75"/>
     <use x="1405.70898438" xlink:href="#BitstreamVeraSans-Roman-65"/>
     <use x="1467.23242188" xlink:href="#BitstreamVeraSans-Roman-6e"/>
     <use x="1530.61132812" xlink:href="#BitstreamVeraSans-Roman-74"/>
     <use x="1569.8203125" xlink:href="#BitstreamVeraSans-Roman-20"/>
     <use x="1601.60742188" xlink:href="#BitstreamVeraSans-Roman-64"/>
     <use x="1665.08398438" xlink:href="#BitstreamVeraSans-Roman-65"/>
     <use x="1726.60742188" xlink:href="#BitstreamVeraSans-Roman-63"/>
     <use x="1781.58789062" xlink:href="#BitstreamVeraSans-Roman-72"/>
     <use x="1820.45117188" xlink:href="#BitstreamVeraSans-Roman-65"/>
     <use x="1881.97460938" xlink:href="#BitstreamVeraSans-Roman-61"/>
     <use x="1943.25390625" xlink:href="#BitstreamVeraSans-Roman-73"/>
     <use x="1995.35351562" xlink:href="#BitstreamVeraSans-Roman-65"/>
     <use x="2056.87695312" xlink:href="#BitstreamVeraSans-Roman-20"/>
     <use x="2088.6640625" xlink:href="#BitstreamVeraSans-Roman-69"/>
     <use x="2116.44726562" xlink:href="#BitstreamVeraSans-Roman-6e"/>
     <use x="2179.82617188" xlink:href="#BitstreamVeraSans-Roman-20"/>
     <use x="2211.61328125" xlink:href="#BitstreamVeraSans-Roman-74"/>
     <use x="2250.82226562" xlink:href="#BitstreamVeraSans-Roman-68"/>
     <use x="2314.20117188" xlink:href="#BitstreamVeraSans-Roman-65"/>
     <use x="2375.72460938" xlink:href="#BitstreamVeraSans-Roman-20"/>
     <use x="2407.51171875" xlink:href="#BitstreamVeraSans-Roman-46"/>
     <use x="2459.53125" xlink:href="#BitstreamVeraSans-Roman-65"/>
     <use x="2521.0546875" xlink:href="#BitstreamVeraSans-Roman-64"/>
     <use x="2584.53125" xlink:href="#BitstreamVeraSans-Roman-65"/>
     <use x="2646.0546875" xlink:href="#BitstreamVeraSans-Roman-72"/>
     <use x="2687.16796875" xlink:href="#BitstreamVeraSans-Roman-61"/>
     <use x="2748.44726562" xlink:href="#BitstreamVeraSans-Roman-6c"/>
    </g>
    <!-- jobs hiring gap -->
    <defs>
     <path d="
M9.42188 54.6875
L18.4062 54.6875
L18.4062 -0.984375
Q18.4062 -11.4219 14.4219 -16.1094
Q10.4531 -20.7969 1.60938 -20.7969
L-1.8125 -20.7969
L-1.8125 -13.1875
L0.59375 -13.1875
Q5.71875 -13.1875 7.5625 -10.8125
Q9.42188 -8.45312 9.42188 -0.984375
z

M9.42188 75.9844
L18.4062 75.9844
L18.4062 64.5938
L9.42188 64.5938
z
" id="BitstreamVeraSans-Roman-6a"/>
    </defs>
    <g style="fill:#808080;" transform="translate(182.592 89.191703125)scale(0.11 -0.11)">
     <use xlink:href="#BitstreamVeraSans-Roman-6a"/>
     <use x="27.783203125" xlink:href="#BitstreamVeraSans-Roman-6f"/>
     <use x="88.96484375" xlink:href="#BitstreamVeraSans-Roman-62"/>
     <use x="152.44140625" xlink:href="#BitstreamVeraSans-Roman-73"/>
     <use x="204.541015625" xlink:href="#BitstreamVeraSans-Roman-20"/>
     <use x="236.328125" xlink:href="#BitstreamVeraSans-Roman-68"/>
     <use x="299.70703125" xlink:href="#BitstreamVeraSans-Roman-69"/>
     <use x="327.490234375" xlink:href="#BitstreamVeraSans-Roman-72"/>
     <use x="368.603515625" xlink:href="#BitstreamVeraSans-Roman-69"/>
     <use x="396.38671875" xlink:href="#BitstreamVeraSans-Roman-6e"/>
     <use x="459.765625" xlink:href="#BitstreamVeraSans-Roman-67"/>
     <use x="523.2421875" xlink:href="#BitstreamVeraSans-Roman-20"/>
     <use x="555.029296875" xlink:href="#BitstreamVeraSans-Roman-67"/>
     <use x="618.505859375" xlink:href="#BitstreamVeraSans-Roman-61"/>
     <use x="679.78515625" xlink:href="#BitstreamVeraSans-Roman-70"/>
    </g>
   </g>
   <g id="legend_1">
    <g id="patch_5">
     <path d="
M227.145 150.976
L408.72 150.976
L408.72 109.376
L227.145 109.376
z
" style="fill:#ffffff;stroke:#ffffff;stroke-linejoin:miter;stroke-width:0.5;"/>
    </g>
    <g id="line2d_35">
     <path d="
M235.545 119.976
L252.345 119.976" style="fill:none;stroke:#e24a33;stroke-dasharray:1.000000,3.000000;stroke-dashoffset:0.0;"/>
    </g>
    <g id="line2d_36"/>
    <g id="text_21">
     <!-- Job offerings -->
     <g style="fill:#808080;" transform="translate(265.545 124.176)scale(0.12 -0.12)">
      <use xlink:href="#BitstreamVeraSans-Roman-4a"/>
      <use x="29.4921875" xlink:href="#BitstreamVeraSans-Roman-6f"/>
      <use x="90.673828125" xlink:href="#BitstreamVeraSans-Roman-62"/>
      <use x="154.150390625" xlink:href="#BitstreamVeraSans-Roman-20"/>
      <use x="185.9375" xlink:href="#BitstreamVeraSans-Roman-6f"/>
      <use x="247.119140625" xlink:href="#BitstreamVeraSans-Roman-66"/>
      <use x="282.32421875" xlink:href="#BitstreamVeraSans-Roman-66"/>
      <use x="317.529296875" xlink:href="#BitstreamVeraSans-Roman-65"/>
      <use x="379.052734375" xlink:href="#BitstreamVeraSans-Roman-72"/>
      <use x="420.166015625" xlink:href="#BitstreamVeraSans-Roman-69"/>
      <use x="447.94921875" xlink:href="#BitstreamVeraSans-Roman-6e"/>
      <use x="511.328125" xlink:href="#BitstreamVeraSans-Roman-67"/>
      <use x="574.8046875" xlink:href="#BitstreamVeraSans-Roman-73"/>
     </g>
    </g>
    <g id="line2d_37">
     <path d="
M235.545 138.976
L252.345 138.976" style="fill:none;stroke:#e24a33;stroke-linecap:square;"/>
    </g>
    <g id="line2d_38"/>
    <g id="text_22">
     <!-- Layoffs and discharges -->
     <g style="fill:#808080;" transform="translate(265.545 143.176)scale(0.12 -0.12)">
      <use xlink:href="#BitstreamVeraSans-Roman-4c"/>
      <use x="55.712890625" xlink:href="#BitstreamVeraSans-Roman-61"/>
      <use x="116.9921875" xlink:href="#BitstreamVeraSans-Roman-79"/>
      <use x="176.171875" xlink:href="#BitstreamVeraSans-Roman-6f"/>
      <use x="237.353515625" xlink:href="#BitstreamVeraSans-Roman-66"/>
      <use x="272.55859375" xlink:href="#BitstreamVeraSans-Roman-66"/>
      <use x="307.763671875" xlink:href="#BitstreamVeraSans-Roman-73"/>
      <use x="359.86328125" xlink:href="#BitstreamVeraSans-Roman-20"/>
      <use x="391.650390625" xlink:href="#BitstreamVeraSans-Roman-61"/>
      <use x="452.9296875" xlink:href="#BitstreamVeraSans-Roman-6e"/>
      <use x="516.30859375" xlink:href="#BitstreamVeraSans-Roman-64"/>
      <use x="579.78515625" xlink:href="#BitstreamVeraSans-Roman-20"/>
      <use x="611.572265625" xlink:href="#BitstreamVeraSans-Roman-64"/>
      <use x="675.048828125" xlink:href="#BitstreamVeraSans-Roman-69"/>
      <use x="702.83203125" xlink:href="#BitstreamVeraSans-Roman-73"/>
      <use x="754.931640625" xlink:href="#BitstreamVeraSans-Roman-63"/>
      <use x="809.912109375" xlink:href="#BitstreamVeraSans-Roman-68"/>
      <use x="873.291015625" xlink:href="#BitstreamVeraSans-Roman-61"/>
      <use x="934.5703125" xlink:href="#BitstreamVeraSans-Roman-72"/>
      <use x="973.93359375" xlink:href="#BitstreamVeraSans-Roman-67"/>
      <use x="1037.41015625" xlink:href="#BitstreamVeraSans-Roman-65"/>
      <use x="1098.93359375" xlink:href="#BitstreamVeraSans-Roman-73"/>
     </g>
    </g>
   </g>
  </g>
 </g>
 <defs>
  <clipPath id="pa16bc83be2">
   <rect height="178.56" width="357.12" x="57.6" y="23.04"/>
  </clipPath>
 </defs>
</svg>
