<?xml version="1.0" encoding="utf-8" standalone="no"?>
<!DOCTYPE svg PUBLIC "-//W3C//DTD SVG 1.1//EN"
  "http://www.w3.org/Graphics/SVG/1.1/DTD/svg11.dtd">
<!-- Created with matplotlib (http://matplotlib.org/) -->
<svg height="277pt" version="1.1" viewBox="0 0 839 277" width="839pt" xmlns="http://www.w3.org/2000/svg" xmlns:xlink="http://www.w3.org/1999/xlink">
 <defs>
  <style type="text/css">
*{stroke-linecap:butt;stroke-linejoin:round;}
  </style>
 </defs>
 <g id="figure_1">
  <g id="patch_1">
   <path d="
M0 277.088
L839.514 277.088
L839.514 0
L0 0
z
" style="fill:#ffffff;"/>
  </g>
  <g id="axes_1">
   <g id="patch_2">
    <path d="
M58.5033 265.049
L571.537 265.049
L571.537 36.8494
L58.5033 36.8494
z
" style="fill:#ffffff;"/>
   </g>
   <g id="matplotlib.axis_1">
    <g id="xtick_1">
     <g id="line2d_1">
      <path clip-path="url(#p00cf3e369c)" d="
M58.5033 265.049
L58.5033 36.8494" style="fill:none;stroke:#ffffff;stroke-linecap:square;stroke-width:0.5;"/>
     </g>
    </g>
    <g id="xtick_2">
     <g id="line2d_2">
      <path clip-path="url(#p00cf3e369c)" d="
M121.971 265.049
L121.971 36.8494" style="fill:none;stroke:#ffffff;stroke-linecap:square;stroke-width:0.5;"/>
     </g>
    </g>
    <g id="xtick_3">
     <g id="line2d_3">
      <path clip-path="url(#p00cf3e369c)" d="
M185.439 265.049
L185.439 36.8494" style="fill:none;stroke:#ffffff;stroke-linecap:square;stroke-width:0.5;"/>
     </g>
    </g>
    <g id="xtick_4">
     <g id="line2d_4">
      <path clip-path="url(#p00cf3e369c)" d="
M248.907 265.049
L248.907 36.8494" style="fill:none;stroke:#ffffff;stroke-linecap:square;stroke-width:0.5;"/>
     </g>
    </g>
    <g id="xtick_5">
     <g id="line2d_5">
      <path clip-path="url(#p00cf3e369c)" d="
M312.375 265.049
L312.375 36.8494" style="fill:none;stroke:#ffffff;stroke-linecap:square;stroke-width:0.5;"/>
     </g>
    </g>
    <g id="xtick_6">
     <g id="line2d_6">
      <path clip-path="url(#p00cf3e369c)" d="
M375.844 265.049
L375.844 36.8494" style="fill:none;stroke:#ffffff;stroke-linecap:square;stroke-width:0.5;"/>
     </g>
    </g>
    <g id="xtick_7">
     <g id="line2d_7">
      <path clip-path="url(#p00cf3e369c)" d="
M439.312 265.049
L439.312 36.8494" style="fill:none;stroke:#ffffff;stroke-linecap:square;stroke-width:0.5;"/>
     </g>
    </g>
    <g id="xtick_8">
     <g id="line2d_8">
      <path clip-path="url(#p00cf3e369c)" d="
M502.78 265.049
L502.78 36.8494" style="fill:none;stroke:#ffffff;stroke-linecap:square;stroke-width:0.5;"/>
     </g>
    </g>
    <g id="xtick_9">
     <g id="line2d_9">
      <path clip-path="url(#p00cf3e369c)" d="
M566.248 265.049
L566.248 36.8494" style="fill:none;stroke:#ffffff;stroke-linecap:square;stroke-width:0.5;"/>
     </g>
    </g>
    <g id="xtick_10"/>
    <g id="xtick_11"/>
    <g id="xtick_12"/>
    <g id="xtick_13"/>
    <g id="xtick_14"/>
    <g id="xtick_15"/>
    <g id="xtick_16"/>
    <g id="xtick_17"/>
    <g id="xtick_18"/>
    <g id="xtick_19"/>
    <g id="xtick_20"/>
    <g id="xtick_21"/>
    <g id="xtick_22"/>
    <g id="xtick_23"/>
    <g id="xtick_24"/>
    <g id="xtick_25"/>
    <g id="xtick_26"/>
    <g id="xtick_27"/>
    <g id="xtick_28"/>
    <g id="xtick_29"/>
    <g id="xtick_30"/>
    <g id="xtick_31"/>
    <g id="xtick_32"/>
    <g id="xtick_33"/>
    <g id="xtick_34"/>
    <g id="xtick_35"/>
    <g id="xtick_36"/>
    <g id="xtick_37"/>
    <g id="xtick_38"/>
    <g id="xtick_39"/>
    <g id="xtick_40"/>
    <g id="xtick_41"/>
    <g id="xtick_42"/>
   </g>
   <g id="matplotlib.axis_2">
    <g id="ytick_1">
     <g id="line2d_10">
      <path clip-path="url(#p00cf3e369c)" d="
M58.5033 265.049
L571.537 265.049" style="fill:none;stroke:#ffffff;stroke-linecap:square;stroke-width:0.5;"/>
     </g>
     <g id="line2d_11">
      <defs>
       <path d="
M0 0
L-4 0" id="mf591f037a3" style="stroke:#555555;stroke-width:0.5;"/>
      </defs>
      <g>
       <use style="fill:#555555;stroke:#555555;stroke-width:0.5;" x="58.5033311856" xlink:href="#mf591f037a3" y="265.049375"/>
      </g>
     </g>
     <g id="text_1">
      <!-- −100 -->
      <defs>
       <path d="
M10.5938 35.5
L73.1875 35.5
L73.1875 27.2031
L10.5938 27.2031
z
" id="BitstreamVeraSans-Roman-2212"/>
       <path d="
M31.7812 66.4062
Q24.1719 66.4062 20.3281 58.9062
Q16.5 51.4219 16.5 36.375
Q16.5 21.3906 20.3281 13.8906
Q24.1719 6.39062 31.7812 6.39062
Q39.4531 6.39062 43.2812 13.8906
Q47.125 21.3906 47.125 36.375
Q47.125 51.4219 43.2812 58.9062
Q39.4531 66.4062 31.7812 66.4062
M31.7812 74.2188
Q44.0469 74.2188 50.5156 64.5156
Q56.9844 54.8281 56.9844 36.375
Q56.9844 17.9688 50.5156 8.26562
Q44.0469 -1.42188 31.7812 -1.42188
Q19.5312 -1.42188 13.0625 8.26562
Q6.59375 17.9688 6.59375 36.375
Q6.59375 54.8281 13.0625 64.5156
Q19.5312 74.2188 31.7812 74.2188" id="BitstreamVeraSans-Roman-30"/>
       <path d="
M12.4062 8.29688
L28.5156 8.29688
L28.5156 63.9219
L10.9844 60.4062
L10.9844 69.3906
L28.4219 72.9062
L38.2812 72.9062
L38.2812 8.29688
L54.3906 8.29688
L54.3906 0
L12.4062 0
z
" id="BitstreamVeraSans-Roman-31"/>
      </defs>
      <g style="fill:#555555;" transform="translate(24.7595811856 267.80875)scale(0.1 -0.1)">
       <use xlink:href="#BitstreamVeraSans-Roman-2212"/>
       <use x="83.7890625" xlink:href="#BitstreamVeraSans-Roman-31"/>
       <use x="147.412109375" xlink:href="#BitstreamVeraSans-Roman-30"/>
       <use x="211.03515625" xlink:href="#BitstreamVeraSans-Roman-30"/>
      </g>
     </g>
    </g>
    <g id="ytick_2">
     <g id="line2d_12">
      <path clip-path="url(#p00cf3e369c)" d="
M58.5033 232.449
L571.537 232.449" style="fill:none;stroke:#ffffff;stroke-linecap:square;stroke-width:0.5;"/>
     </g>
     <g id="line2d_13">
      <g>
       <use style="fill:#555555;stroke:#555555;stroke-width:0.5;" x="58.5033311856" xlink:href="#mf591f037a3" y="232.449375"/>
      </g>
     </g>
     <g id="text_2">
      <!-- 0 -->
      <g style="fill:#555555;" transform="translate(45.4642686856 235.20875)scale(0.1 -0.1)">
       <use xlink:href="#BitstreamVeraSans-Roman-30"/>
      </g>
     </g>
    </g>
    <g id="ytick_3">
     <g id="line2d_14">
      <path clip-path="url(#p00cf3e369c)" d="
M58.5033 199.849
L571.537 199.849" style="fill:none;stroke:#ffffff;stroke-linecap:square;stroke-width:0.5;"/>
     </g>
     <g id="line2d_15">
      <g>
       <use style="fill:#555555;stroke:#555555;stroke-width:0.5;" x="58.5033311856" xlink:href="#mf591f037a3" y="199.849375"/>
      </g>
     </g>
     <g id="text_3">
      <!-- 100 -->
      <g style="fill:#555555;" transform="translate(33.1783311856 202.60875)scale(0.1 -0.1)">
       <use xlink:href="#BitstreamVeraSans-Roman-31"/>
       <use x="63.623046875" xlink:href="#BitstreamVeraSans-Roman-30"/>
       <use x="127.24609375" xlink:href="#BitstreamVeraSans-Roman-30"/>
      </g>
     </g>
    </g>
    <g id="ytick_4">
     <g id="line2d_16">
      <path clip-path="url(#p00cf3e369c)" d="
M58.5033 167.249
L571.537 167.249" style="fill:none;stroke:#ffffff;stroke-linecap:square;stroke-width:0.5;"/>
     </g>
     <g id="line2d_17">
      <g>
       <use style="fill:#555555;stroke:#555555;stroke-width:0.5;" x="58.5033311856" xlink:href="#mf591f037a3" y="167.249375"/>
      </g>
     </g>
     <g id="text_4">
      <!-- 200 -->
      <defs>
       <path d="
M19.1875 8.29688
L53.6094 8.29688
L53.6094 0
L7.32812 0
L7.32812 8.29688
Q12.9375 14.1094 22.625 23.8906
Q32.3281 33.6875 34.8125 36.5312
Q39.5469 41.8438 41.4219 45.5312
Q43.3125 49.2188 43.3125 52.7812
Q43.3125 58.5938 39.2344 62.25
Q35.1562 65.9219 28.6094 65.9219
Q23.9688 65.9219 18.8125 64.3125
Q13.6719 62.7031 7.8125 59.4219
L7.8125 69.3906
Q13.7656 71.7812 18.9375 73
Q24.125 74.2188 28.4219 74.2188
Q39.75 74.2188 46.4844 68.5469
Q53.2188 62.8906 53.2188 53.4219
Q53.2188 48.9219 51.5312 44.8906
Q49.8594 40.875 45.4062 35.4062
Q44.1875 33.9844 37.6406 27.2188
Q31.1094 20.4531 19.1875 8.29688" id="BitstreamVeraSans-Roman-32"/>
      </defs>
      <g style="fill:#555555;" transform="translate(32.8127061856 170.00875)scale(0.1 -0.1)">
       <use xlink:href="#BitstreamVeraSans-Roman-32"/>
       <use x="63.623046875" xlink:href="#BitstreamVeraSans-Roman-30"/>
       <use x="127.24609375" xlink:href="#BitstreamVeraSans-Roman-30"/>
      </g>
     </g>
    </g>
    <g id="ytick_5">
     <g id="line2d_18">
      <path clip-path="url(#p00cf3e369c)" d="
M58.5033 134.649
L571.537 134.649" style="fill:none;stroke:#ffffff;stroke-linecap:square;stroke-width:0.5;"/>
     </g>
     <g id="line2d_19">
      <g>
       <use style="fill:#555555;stroke:#555555;stroke-width:0.5;" x="58.5033311856" xlink:href="#mf591f037a3" y="134.649375"/>
      </g>
     </g>
     <g id="text_5">
      <!-- 300 -->
      <defs>
       <path d="
M40.5781 39.3125
Q47.6562 37.7969 51.625 33
Q55.6094 28.2188 55.6094 21.1875
Q55.6094 10.4062 48.1875 4.48438
Q40.7656 -1.42188 27.0938 -1.42188
Q22.5156 -1.42188 17.6562 -0.515625
Q12.7969 0.390625 7.625 2.20312
L7.625 11.7188
Q11.7188 9.32812 16.5938 8.10938
Q21.4844 6.89062 26.8125 6.89062
Q36.0781 6.89062 40.9375 10.5469
Q45.7969 14.2031 45.7969 21.1875
Q45.7969 27.6406 41.2812 31.2656
Q36.7656 34.9062 28.7188 34.9062
L20.2188 34.9062
L20.2188 43.0156
L29.1094 43.0156
Q36.375 43.0156 40.2344 45.9219
Q44.0938 48.8281 44.0938 54.2969
Q44.0938 59.9062 40.1094 62.9062
Q36.1406 65.9219 28.7188 65.9219
Q24.6562 65.9219 20.0156 65.0312
Q15.375 64.1562 9.8125 62.3125
L9.8125 71.0938
Q15.4375 72.6562 20.3438 73.4375
Q25.25 74.2188 29.5938 74.2188
Q40.8281 74.2188 47.3594 69.1094
Q53.9062 64.0156 53.9062 55.3281
Q53.9062 49.2656 50.4375 45.0938
Q46.9688 40.9219 40.5781 39.3125" id="BitstreamVeraSans-Roman-33"/>
      </defs>
      <g style="fill:#555555;" transform="translate(32.8423936856 137.40875)scale(0.1 -0.1)">
       <use xlink:href="#BitstreamVeraSans-Roman-33"/>
       <use x="63.623046875" xlink:href="#BitstreamVeraSans-Roman-30"/>
       <use x="127.24609375" xlink:href="#BitstreamVeraSans-Roman-30"/>
      </g>
     </g>
    </g>
    <g id="ytick_6">
     <g id="line2d_20">
      <path clip-path="url(#p00cf3e369c)" d="
M58.5033 102.049
L571.537 102.049" style="fill:none;stroke:#ffffff;stroke-linecap:square;stroke-width:0.5;"/>
     </g>
     <g id="line2d_21">
      <g>
       <use style="fill:#555555;stroke:#555555;stroke-width:0.5;" x="58.5033311856" xlink:href="#mf591f037a3" y="102.049375"/>
      </g>
     </g>
     <g id="text_6">
      <!-- 400 -->
      <defs>
       <path d="
M37.7969 64.3125
L12.8906 25.3906
L37.7969 25.3906
z

M35.2031 72.9062
L47.6094 72.9062
L47.6094 25.3906
L58.0156 25.3906
L58.0156 17.1875
L47.6094 17.1875
L47.6094 0
L37.7969 0
L37.7969 17.1875
L4.89062 17.1875
L4.89062 26.7031
z
" id="BitstreamVeraSans-Roman-34"/>
      </defs>
      <g style="fill:#555555;" transform="translate(32.5689561856 104.80875)scale(0.1 -0.1)">
       <use xlink:href="#BitstreamVeraSans-Roman-34"/>
       <use x="63.623046875" xlink:href="#BitstreamVeraSans-Roman-30"/>
       <use x="127.24609375" xlink:href="#BitstreamVeraSans-Roman-30"/>
      </g>
     </g>
    </g>
    <g id="ytick_7">
     <g id="line2d_22">
      <path clip-path="url(#p00cf3e369c)" d="
M58.5033 69.4494
L571.537 69.4494" style="fill:none;stroke:#ffffff;stroke-linecap:square;stroke-width:0.5;"/>
     </g>
     <g id="line2d_23">
      <g>
       <use style="fill:#555555;stroke:#555555;stroke-width:0.5;" x="58.5033311856" xlink:href="#mf591f037a3" y="69.449375"/>
      </g>
     </g>
     <g id="text_7">
      <!-- 500 -->
      <defs>
       <path d="
M10.7969 72.9062
L49.5156 72.9062
L49.5156 64.5938
L19.8281 64.5938
L19.8281 46.7344
Q21.9688 47.4688 24.1094 47.8281
Q26.2656 48.1875 28.4219 48.1875
Q40.625 48.1875 47.75 41.5
Q54.8906 34.8125 54.8906 23.3906
Q54.8906 11.625 47.5625 5.09375
Q40.2344 -1.42188 26.9062 -1.42188
Q22.3125 -1.42188 17.5469 -0.640625
Q12.7969 0.140625 7.71875 1.70312
L7.71875 11.625
Q12.1094 9.23438 16.7969 8.0625
Q21.4844 6.89062 26.7031 6.89062
Q35.1562 6.89062 40.0781 11.3281
Q45.0156 15.7656 45.0156 23.3906
Q45.0156 31 40.0781 35.4375
Q35.1562 39.8906 26.7031 39.8906
Q22.75 39.8906 18.8125 39.0156
Q14.8906 38.1406 10.7969 36.2812
z
" id="BitstreamVeraSans-Roman-35"/>
      </defs>
      <g style="fill:#555555;" transform="translate(32.8517686856 72.20875)scale(0.1 -0.1)">
       <use xlink:href="#BitstreamVeraSans-Roman-35"/>
       <use x="63.623046875" xlink:href="#BitstreamVeraSans-Roman-30"/>
       <use x="127.24609375" xlink:href="#BitstreamVeraSans-Roman-30"/>
      </g>
     </g>
    </g>
    <g id="ytick_8">
     <g id="line2d_24">
      <path clip-path="url(#p00cf3e369c)" d="
M58.5033 36.8494
L571.537 36.8494" style="fill:none;stroke:#ffffff;stroke-linecap:square;stroke-width:0.5;"/>
     </g>
     <g id="line2d_25">
      <g>
       <use style="fill:#555555;stroke:#555555;stroke-width:0.5;" x="58.5033311856" xlink:href="#mf591f037a3" y="36.849375"/>
      </g>
     </g>
     <g id="text_8">
      <!-- 600 -->
      <defs>
       <path d="
M33.0156 40.375
Q26.375 40.375 22.4844 35.8281
Q18.6094 31.2969 18.6094 23.3906
Q18.6094 15.5312 22.4844 10.9531
Q26.375 6.39062 33.0156 6.39062
Q39.6562 6.39062 43.5312 10.9531
Q47.4062 15.5312 47.4062 23.3906
Q47.4062 31.2969 43.5312 35.8281
Q39.6562 40.375 33.0156 40.375
M52.5938 71.2969
L52.5938 62.3125
Q48.875 64.0625 45.0938 64.9844
Q41.3125 65.9219 37.5938 65.9219
Q27.8281 65.9219 22.6719 59.3281
Q17.5312 52.7344 16.7969 39.4062
Q19.6719 43.6562 24.0156 45.9219
Q28.375 48.1875 33.5938 48.1875
Q44.5781 48.1875 50.9531 41.5156
Q57.3281 34.8594 57.3281 23.3906
Q57.3281 12.1562 50.6875 5.35938
Q44.0469 -1.42188 33.0156 -1.42188
Q20.3594 -1.42188 13.6719 8.26562
Q6.98438 17.9688 6.98438 36.375
Q6.98438 53.6562 15.1875 63.9375
Q23.3906 74.2188 37.2031 74.2188
Q40.9219 74.2188 44.7031 73.4844
Q48.4844 72.75 52.5938 71.2969" id="BitstreamVeraSans-Roman-36"/>
      </defs>
      <g style="fill:#555555;" transform="translate(32.7783311856 39.60875)scale(0.1 -0.1)">
       <use xlink:href="#BitstreamVeraSans-Roman-36"/>
       <use x="63.623046875" xlink:href="#BitstreamVeraSans-Roman-30"/>
       <use x="127.24609375" xlink:href="#BitstreamVeraSans-Roman-30"/>
      </g>
     </g>
    </g>
   </g>
   <g id="line2d_26">
    <path clip-path="url(#p00cf3e369c)" d="
M58.5033 175.399
L63.7923 152.253
L69.0813 156.817
L74.3703 171.161
L79.6593 163.337
L84.9483 155.187
L90.2374 164.641
L95.5264 174.421
L100.815 190.395
L106.104 198.545
L111.393 188.113
L116.682 191.699
L121.971 207.999
L127.26 213.215
L132.549 214.845
L137.838 216.475
L143.127 202.457
L148.416 215.171
L153.705 213.867
L158.994 227.233
L164.283 212.563
L169.572 210.607
L174.861 213.541
L180.15 208.325
L185.439 178.007
L190.728 209.629
L196.017 222.343
L201.306 215.171
L206.595 218.431
L211.884 231.471
L217.173 225.603
L222.462 224.625
L227.751 219.083
L233.04 188.113
L238.329 213.867
L243.618 207.021
L248.907 200.827
L254.196 199.523
L259.485 192.025
L264.774 194.633
L270.063 192.677
L275.352 198.545
L280.641 189.417
L285.93 193.981
L291.219 187.787
L296.508 184.527
L301.797 183.223
L307.086 185.179
L312.375 175.725
L317.664 185.831
L322.953 171.487
L328.242 163.011
L333.531 174.421
L338.821 155.513
L344.11 176.051
L349.399 191.047
L354.688 156.817
L359.977 163.989
L365.266 163.989
L370.555 168.553
L375.844 206.695
L381.133 177.029
L386.422 169.857
L391.711 175.725
L397 187.135
L402.289 168.553
L407.578 184.527
L412.867 183.549
L418.156 190.395
L423.445 183.223
L428.734 182.245
L434.023 201.479
L439.312 182.897
L444.601 168.553
L449.89 174.421
L455.179 179.637
L460.468 145.407
L465.757 149.971
L471.046 144.755
L476.335 113.785
L481.624 151.601
L486.913 132.041
L492.202 161.707
L497.491 124.217
L502.78 138.887
L508.069 129.107
L513.358 143.125
L518.647 91.2914
L523.936 113.133
L529.225 96.8334
L534.514 72.3834
L539.803 101.723
L545.092 82.4894
L550.381 107.265
L555.67 81.1854
L560.959 93.8994
L566.248 60.6474
L571.537 116.719" style="fill:none;stroke:#e24a33;stroke-linecap:square;"/>
   </g>
   <g id="line2d_27">
    <path clip-path="url(#p00cf3e369c)" d="
M58.5033 220.387
L63.7923 222.343
L69.0813 219.083
L74.3703 234.079
L79.6593 227.559
L84.9483 225.929
L90.2374 225.929
L95.5264 217.127
L100.815 231.145
L106.104 225.603
L111.393 230.819
L116.682 213.215
L121.971 223.647
L127.26 219.409
L132.549 224.951
L137.838 222.995
L143.127 219.735
L148.416 222.995
L153.705 234.731
L158.994 231.145
L164.283 222.669
L169.572 234.731
L174.861 219.083
L180.15 229.841
L185.439 222.669
L190.728 227.885
L196.017 220.061
L201.306 210.607
L206.595 210.607
L211.884 219.735
L217.173 203.435
L222.462 201.479
L227.751 207.347
L233.04 203.761
L238.329 193.981
L243.618 210.607
L248.907 203.761
L254.196 205.391
L259.485 211.585
L264.774 203.109
L270.063 216.475
L275.352 207.347
L280.641 213.215
L285.93 218.757
L291.219 219.735
L296.508 209.303
L301.797 228.211
L307.086 214.519
L312.375 218.105
L317.664 217.779
L322.953 210.933
L328.242 215.171
L333.531 216.149
L338.821 216.149
L344.11 209.303
L349.399 207.021
L354.688 201.153
L359.977 209.955
L365.266 216.149
L370.555 200.501
L375.844 226.581
L381.133 181.919
L386.422 196.263
L391.711 203.435
L397 204.413
L402.289 194.959
L407.578 194.307
L412.867 212.889
L418.156 206.043
L423.445 206.043
L428.734 210.281
L434.023 204.087
L439.312 205.065
L444.601 210.607
L449.89 207.347
L455.179 197.567
L460.468 195.937
L465.757 193.655
L471.046 202.783
L476.335 191.047
L481.624 209.955
L486.913 186.809
L492.202 200.175
L497.491 212.237
L502.78 197.893
L508.069 186.809
L513.358 214.519
L518.647 188.765
L523.936 196.263
L529.225 217.453
L534.514 192.351
L539.803 189.091
L545.092 182.897
L550.381 197.893
L555.67 175.399
L560.959 174.747
L566.248 188.765
L571.537 205.717" style="fill:none;stroke:#348abd;stroke-linecap:square;"/>
   </g>
   <g id="line2d_28">
    <path clip-path="url(#p00cf3e369c)" d="
M58.5033 205.065
L63.7923 202.131
L69.0813 208.325
L74.3703 205.391
L79.6593 189.743
L84.9483 201.479
L90.2374 204.413
L95.5264 207.673
L100.815 200.501
L106.104 214.519
L111.393 200.827
L116.682 226.581
L121.971 228.863
L127.26 217.127
L132.549 222.343
L137.838 209.303
L143.127 225.603
L148.416 218.105
L153.705 225.277
L158.994 222.669
L164.283 231.471
L169.572 231.145
L174.861 230.493
L180.15 223.321
L185.439 228.537
L190.728 235.057
L196.017 230.493
L201.306 217.453
L206.595 230.493
L211.884 234.405
L217.173 227.559
L222.462 222.343
L227.751 225.603
L233.04 226.907
L238.329 248.423
L243.618 214.193
L248.907 222.995
L254.196 213.867
L259.485 215.171
L264.774 218.757
L270.063 224.951
L275.352 223.321
L280.641 215.497
L285.93 209.955
L291.219 203.761
L296.508 212.889
L301.797 217.453
L307.086 223.647
L312.375 222.017
L317.664 211.259
L322.953 208.651
L328.242 217.127
L333.531 214.193
L338.821 219.083
L344.11 216.801
L349.399 212.563
L354.688 216.149
L359.977 209.303
L365.266 221.039
L370.555 213.541
L375.844 205.065
L381.133 201.479
L386.422 203.109
L391.711 197.241
L397 193.981
L402.289 200.175
L407.578 205.717
L412.867 206.695
L418.156 211.585
L423.445 200.827
L428.734 216.801
L434.023 218.105
L439.312 210.281
L444.601 207.021
L449.89 205.391
L455.179 196.263
L460.468 190.069
L465.757 181.593
L471.046 179.637
L476.335 188.113
L481.624 200.501
L486.913 206.369
L492.202 194.633
L497.491 196.915
L502.78 181.267
L508.069 184.201
L513.358 185.179
L518.647 194.633
L523.936 178.333
L529.225 201.479
L534.514 184.201
L539.803 198.545
L545.092 189.417
L550.381 197.567
L555.67 200.827
L560.959 199.523
L566.248 202.457
L571.537 207.999" style="fill:none;stroke:#988ed5;stroke-linecap:square;"/>
   </g>
   <g id="line2d_29">
    <path clip-path="url(#p00cf3e369c)" d="
M58.5033 243.512
L63.7923 249.162
L69.0813 246.62
L74.3703 244.577
L79.6593 241.947
L84.9483 248.402
L90.2374 243.164
L95.5264 246.641
L100.815 251.792
L106.104 252.14
L111.393 248.749
L116.682 255.422
L121.971 256.769
L127.26 252.27
L132.549 253.226
L137.838 258.138
L143.127 255.161
L148.416 253.313
L153.705 260.855
L158.994 256.552
L164.283 255.052
L169.572 253.444
L174.861 256.791
L180.15 255.096
L185.439 249.923
L190.728 250.14
L196.017 257.225
L201.306 244.316
L206.595 258.616
L211.884 253.531
L217.173 250.423
L222.462 249.38
L227.751 254.378
L233.04 250.705
L238.329 253.531
L243.618 252.205
L248.907 245.555
L254.196 248.206
L259.485 250.51
L264.774 245.837
L270.063 247.793
L275.352 249.727
L280.641 245.229
L285.93 247.119
L291.219 246.38
L296.508 243.642
L301.797 248.51
L307.086 247.967
L312.375 243.968
L317.664 245.489
L322.953 242.338
L328.242 239.73
L333.531 241.73
L338.821 239.991
L344.11 240.165
L349.399 245.163
L354.688 242.295
L359.977 239.426
L365.266 243.229
L370.555 242.512
L375.844 242.664
L381.133 242.534
L386.422 236.774
L391.711 238.991
L397 240.621
L402.289 235.84
L407.578 236.97
L412.867 241.469
L418.156 241.99
L423.445 238.252
L428.734 241.382
L434.023 242.49
L439.312 240.23
L444.601 240.295
L449.89 238.339
L455.179 233.275
L460.468 233.58
L465.757 232.862
L471.046 236.383
L476.335 227.168
L481.624 236.47
L486.913 233.884
L492.202 239.817
L497.491 238.274
L502.78 231.863
L508.069 228.559
L513.358 231.537
L518.647 223.734
L523.936 228.776
L529.225 234.449
L534.514 220.322
L539.803 228.798
L545.092 228.103
L550.381 229.689
L555.67 235.47
L560.959 230.493
L566.248 222.409
L571.537 231.058" style="fill:none;stroke:#777777;stroke-dasharray:1.000000,3.000000;stroke-dashoffset:0.0;"/>
   </g>
   <g id="patch_3">
    <path d="
M58.5033 265.049
L571.537 265.049" style="fill:none;stroke:#d3d3d3;stroke-linecap:square;stroke-linejoin:miter;"/>
   </g>
   <g id="patch_4">
    <path d="
M58.5033 265.049
L58.5033 36.8494" style="fill:none;stroke:#d3d3d3;stroke-linecap:square;stroke-linejoin:miter;"/>
   </g>
   <g id="text_9">
    <!-- Top 3 industries with highest average hiring gap -->
    <defs>
     <path d="
M63.375 33.2969
L63.375 0
L45.7969 0
L45.7969 5.42188
L45.7969 25.3906
Q45.7969 32.5625 45.4844 35.25
Q45.1719 37.9375 44.3906 39.2031
Q43.3594 40.9219 41.5938 41.875
Q39.8438 42.8281 37.5938 42.8281
Q32.125 42.8281 29 38.5938
Q25.875 34.375 25.875 26.9062
L25.875 0
L8.40625 0
L8.40625 75.9844
L25.875 75.9844
L25.875 46.6875
Q29.8281 51.4688 34.2656 53.7344
Q38.7188 56 44.0938 56
Q53.5625 56 58.4688 50.1875
Q63.375 44.3906 63.375 33.2969" id="BitstreamVeraSans-Bold-68"/>
     <path d="
M8.40625 54.6875
L25.875 54.6875
L25.875 0
L8.40625 0
z

M8.40625 75.9844
L25.875 75.9844
L25.875 61.7188
L8.40625 61.7188
z
" id="BitstreamVeraSans-Bold-69"/>
     <path d="
M32.9062 24.6094
Q27.4375 24.6094 24.6719 22.75
Q21.9219 20.9062 21.9219 17.2812
Q21.9219 13.9688 24.1406 12.0781
Q26.375 10.2031 30.3281 10.2031
Q35.25 10.2031 38.625 13.7344
Q42 17.2812 42 22.6094
L42 24.6094
z

M59.625 31.2031
L59.625 0
L42 0
L42 8.10938
Q38.4844 3.125 34.0781 0.84375
Q29.6875 -1.42188 23.3906 -1.42188
Q14.8906 -1.42188 9.59375 3.53125
Q4.29688 8.5 4.29688 16.4062
Q4.29688 26.0312 10.9062 30.5156
Q17.5312 35.0156 31.6875 35.0156
L42 35.0156
L42 36.375
Q42 40.5312 38.7188 42.4531
Q35.4531 44.3906 28.5156 44.3906
Q22.9062 44.3906 18.0625 43.2656
Q13.2344 42.1406 9.07812 39.8906
L9.07812 53.2188
Q14.7031 54.5938 20.3594 55.2969
Q26.0312 56 31.6875 56
Q46.4844 56 53.0469 50.1719
Q59.625 44.3438 59.625 31.2031" id="BitstreamVeraSans-Bold-61"/>
     <path id="BitstreamVeraSans-Bold-20"/>
     <path d="
M46.5781 39.3125
Q53.9531 37.4062 57.7812 32.6875
Q61.625 27.9844 61.625 20.7031
Q61.625 9.85938 53.3125 4.21875
Q45.0156 -1.42188 29.1094 -1.42188
Q23.4844 -1.42188 17.8438 -0.515625
Q12.2031 0.390625 6.6875 2.20312
L6.6875 16.7031
Q11.9688 14.0625 17.1562 12.7188
Q22.3594 11.375 27.3906 11.375
Q34.8594 11.375 38.8438 13.9531
Q42.8281 16.5469 42.8281 21.3906
Q42.8281 26.375 38.75 28.9375
Q34.6719 31.5 26.7031 31.5
L19.1875 31.5
L19.1875 43.6094
L27.0938 43.6094
Q34.1875 43.6094 37.6406 45.8281
Q41.1094 48.0469 41.1094 52.5938
Q41.1094 56.7812 37.7344 59.0781
Q34.375 61.375 28.2188 61.375
Q23.6875 61.375 19.0469 60.3438
Q14.4062 59.3281 9.8125 57.3281
L9.8125 71.0938
Q15.375 72.6562 20.8438 73.4375
Q26.3125 74.2188 31.5938 74.2188
Q45.7969 74.2188 52.8438 69.5469
Q59.9062 64.8906 59.9062 55.5156
Q59.9062 49.125 56.5312 45.0469
Q53.1719 40.9688 46.5781 39.3125" id="BitstreamVeraSans-Bold-33"/>
     <path d="
M25.875 7.90625
L25.875 -20.7969
L8.40625 -20.7969
L8.40625 54.6875
L25.875 54.6875
L25.875 46.6875
Q29.5 51.4688 33.8906 53.7344
Q38.2812 56 44 56
Q54.1094 56 60.5938 47.9688
Q67.0938 39.9375 67.0938 27.2969
Q67.0938 14.6562 60.5938 6.60938
Q54.1094 -1.42188 44 -1.42188
Q38.2812 -1.42188 33.8906 0.84375
Q29.5 3.125 25.875 7.90625
M37.5 43.3125
Q31.8906 43.3125 28.875 39.1875
Q25.875 35.0625 25.875 27.2969
Q25.875 19.5312 28.875 15.4062
Q31.8906 11.2812 37.5 11.2812
Q43.1094 11.2812 46.0625 15.375
Q49.0312 19.4844 49.0312 27.2969
Q49.0312 35.1094 46.0625 39.2031
Q43.1094 43.3125 37.5 43.3125" id="BitstreamVeraSans-Bold-70"/>
     <path d="
M51.125 52.9844
L51.125 39.7031
Q45.5156 42.0469 40.2812 43.2188
Q35.0625 44.3906 30.4219 44.3906
Q25.4375 44.3906 23.0156 43.1406
Q20.6094 41.8906 20.6094 39.3125
Q20.6094 37.2031 22.4375 36.0781
Q24.2656 34.9688 29 34.4219
L32.0781 33.9844
Q45.5156 32.2812 50.1406 28.375
Q54.7812 24.4688 54.7812 16.1094
Q54.7812 7.375 48.3281 2.96875
Q41.8906 -1.42188 29.1094 -1.42188
Q23.6875 -1.42188 17.8906 -0.5625
Q12.1094 0.296875 6 2
L6 15.2812
Q11.2344 12.75 16.7188 11.4688
Q22.2188 10.2031 27.875 10.2031
Q33.0156 10.2031 35.5938 11.6094
Q38.1875 13.0312 38.1875 15.8281
Q38.1875 18.1719 36.4062 19.3125
Q34.625 20.4531 29.2969 21.0938
L26.2188 21.4844
Q14.5469 22.9531 9.85938 26.9062
Q5.17188 30.8594 5.17188 38.9219
Q5.17188 47.6094 11.125 51.7969
Q17.0938 56 29.3906 56
Q34.2344 56 39.5469 55.2656
Q44.875 54.5469 51.125 52.9844" id="BitstreamVeraSans-Bold-73"/>
     <path d="
M0.484375 72.9062
L67.6719 72.9062
L67.6719 58.6875
L43.5 58.6875
L43.5 0
L24.7031 0
L24.7031 58.6875
L0.484375 58.6875
z
" id="BitstreamVeraSans-Bold-54"/>
     <path d="
M7.8125 21.2969
L7.8125 54.6875
L25.3906 54.6875
L25.3906 49.2188
Q25.3906 44.7812 25.3438 38.0625
Q25.2969 31.3438 25.2969 29.1094
Q25.2969 22.5156 25.6406 19.6094
Q25.9844 16.7031 26.8125 15.375
Q27.875 13.6719 29.6094 12.7344
Q31.3438 11.8125 33.5938 11.8125
Q39.0625 11.8125 42.1875 16.0156
Q45.3125 20.2188 45.3125 27.6875
L45.3125 54.6875
L62.7969 54.6875
L62.7969 0
L45.3125 0
L45.3125 7.90625
Q41.3594 3.125 36.9375 0.84375
Q32.5156 -1.42188 27.2031 -1.42188
Q17.7188 -1.42188 12.7656 4.39062
Q7.8125 10.2031 7.8125 21.2969" id="BitstreamVeraSans-Bold-75"/>
     <path d="
M27.4844 70.2188
L27.4844 54.6875
L45.5156 54.6875
L45.5156 42.1875
L27.4844 42.1875
L27.4844 19
Q27.4844 15.1875 29 13.8438
Q30.5156 12.5 35.0156 12.5
L44 12.5
L44 0
L29 0
Q18.6562 0 14.3281 4.3125
Q10.0156 8.64062 10.0156 19
L10.0156 42.1875
L1.3125 42.1875
L1.3125 54.6875
L10.0156 54.6875
L10.0156 70.2188
z
" id="BitstreamVeraSans-Bold-74"/>
     <path d="
M45.6094 46.6875
L45.6094 75.9844
L63.1875 75.9844
L63.1875 0
L45.6094 0
L45.6094 7.90625
Q42 3.07812 37.6406 0.828125
Q33.2969 -1.42188 27.5938 -1.42188
Q17.4844 -1.42188 10.9844 6.60938
Q4.5 14.6562 4.5 27.2969
Q4.5 39.9375 10.9844 47.9688
Q17.4844 56 27.5938 56
Q33.25 56 37.625 53.7344
Q42 51.4688 45.6094 46.6875
M34.0781 11.2812
Q39.7031 11.2812 42.6562 15.375
Q45.6094 19.4844 45.6094 27.2969
Q45.6094 35.1094 42.6562 39.2031
Q39.7031 43.3125 34.0781 43.3125
Q28.5156 43.3125 25.5625 39.2031
Q22.6094 35.1094 22.6094 27.2969
Q22.6094 19.4844 25.5625 15.375
Q28.5156 11.2812 34.0781 11.2812" id="BitstreamVeraSans-Bold-64"/>
     <path d="
M62.9844 27.4844
L62.9844 22.5156
L22.125 22.5156
Q22.75 16.3594 26.5625 13.2812
Q30.375 10.2031 37.2031 10.2031
Q42.7188 10.2031 48.5 11.8438
Q54.2969 13.4844 60.4062 16.7969
L60.4062 3.32812
Q54.2031 0.984375 48 -0.21875
Q41.7969 -1.42188 35.5938 -1.42188
Q20.75 -1.42188 12.5156 6.125
Q4.29688 13.6719 4.29688 27.2969
Q4.29688 40.6719 12.375 48.3281
Q20.4531 56 34.625 56
Q47.5156 56 55.25 48.2344
Q62.9844 40.4844 62.9844 27.4844
M45.0156 33.2969
Q45.0156 38.2812 42.1094 41.3281
Q39.2031 44.3906 34.5156 44.3906
Q29.4375 44.3906 26.2656 41.5312
Q23.0938 38.6719 22.3125 33.2969
z
" id="BitstreamVeraSans-Bold-65"/>
     <path d="
M49.0312 39.7969
Q46.7344 40.875 44.4531 41.375
Q42.1875 41.8906 39.8906 41.8906
Q33.1562 41.8906 29.5156 37.5625
Q25.875 33.25 25.875 25.2031
L25.875 0
L8.40625 0
L8.40625 54.6875
L25.875 54.6875
L25.875 45.7031
Q29.25 51.0781 33.6094 53.5312
Q37.9844 56 44.0938 56
Q44.9688 56 45.9844 55.9219
Q47.0156 55.8594 48.9688 55.6094
z
" id="BitstreamVeraSans-Bold-72"/>
     <path d="
M3.51562 54.6875
L20.5156 54.6875
L29.6875 17
L38.9219 54.6875
L53.5156 54.6875
L62.7031 17.3906
L71.9219 54.6875
L88.9219 54.6875
L74.5156 0
L55.4219 0
L46.1875 37.5938
L37.0156 0
L17.9219 0
z
" id="BitstreamVeraSans-Bold-77"/>
     <path d="
M45.6094 9.28125
Q42 4.5 37.6406 2.25
Q33.2969 0 27.5938 0
Q17.5781 0 11.0312 7.875
Q4.5 15.7656 4.5 27.9844
Q4.5 40.2344 11.0312 48.0625
Q17.5781 55.9062 27.5938 55.9062
Q33.2969 55.9062 37.6406 53.6562
Q42 51.4219 45.6094 46.5781
L45.6094 54.6875
L63.1875 54.6875
L63.1875 5.51562
Q63.1875 -7.67188 54.8594 -14.625
Q46.5312 -21.5781 30.7188 -21.5781
Q25.5938 -21.5781 20.7969 -20.7969
Q16.0156 -20.0156 11.1875 -18.4062
L11.1875 -4.78125
Q15.7656 -7.42188 20.1562 -8.71875
Q24.5625 -10.0156 29 -10.0156
Q37.5938 -10.0156 41.5938 -6.25
Q45.6094 -2.48438 45.6094 5.51562
z

M34.0781 43.3125
Q28.6562 43.3125 25.625 39.2969
Q22.6094 35.2969 22.6094 27.9844
Q22.6094 20.4531 25.5312 16.5781
Q28.4688 12.7031 34.0781 12.7031
Q39.5469 12.7031 42.5781 16.7031
Q45.6094 20.7031 45.6094 27.9844
Q45.6094 35.2969 42.5781 39.2969
Q39.5469 43.3125 34.0781 43.3125" id="BitstreamVeraSans-Bold-67"/>
     <path d="
M1.51562 54.6875
L19 54.6875
L32.625 16.8906
L46.1875 54.6875
L63.7188 54.6875
L42.1875 0
L23 0
z
" id="BitstreamVeraSans-Bold-76"/>
     <path d="
M34.4219 43.5
Q28.6094 43.5 25.5625 39.3281
Q22.5156 35.1562 22.5156 27.2969
Q22.5156 19.4375 25.5625 15.25
Q28.6094 11.0781 34.4219 11.0781
Q40.1406 11.0781 43.1562 15.25
Q46.1875 19.4375 46.1875 27.2969
Q46.1875 35.1562 43.1562 39.3281
Q40.1406 43.5 34.4219 43.5
M34.4219 56
Q48.5312 56 56.4688 48.375
Q64.4062 40.7656 64.4062 27.2969
Q64.4062 13.8125 56.4688 6.1875
Q48.5312 -1.42188 34.4219 -1.42188
Q20.2656 -1.42188 12.2812 6.1875
Q4.29688 13.8125 4.29688 27.2969
Q4.29688 40.7656 12.2812 48.375
Q20.2656 56 34.4219 56" id="BitstreamVeraSans-Bold-6f"/>
     <path d="
M63.375 33.2969
L63.375 0
L45.7969 0
L45.7969 5.42188
L45.7969 25.4844
Q45.7969 32.5625 45.4844 35.25
Q45.1719 37.9375 44.3906 39.2031
Q43.3594 40.9219 41.5938 41.875
Q39.8438 42.8281 37.5938 42.8281
Q32.125 42.8281 29 38.5938
Q25.875 34.375 25.875 26.9062
L25.875 0
L8.40625 0
L8.40625 54.6875
L25.875 54.6875
L25.875 46.6875
Q29.8281 51.4688 34.2656 53.7344
Q38.7188 56 44.0938 56
Q53.5625 56 58.4688 50.1875
Q63.375 44.3906 63.375 33.2969" id="BitstreamVeraSans-Bold-6e"/>
    </defs>
    <g style="fill:#808080;" transform="translate(7.2 17.8378125)scale(0.14 -0.14)">
     <use xlink:href="#BitstreamVeraSans-Bold-54"/>
     <use x="54.962890625" xlink:href="#BitstreamVeraSans-Bold-6f"/>
     <use x="123.6640625" xlink:href="#BitstreamVeraSans-Bold-70"/>
     <use x="195.24609375" xlink:href="#BitstreamVeraSans-Bold-20"/>
     <use x="230.060546875" xlink:href="#BitstreamVeraSans-Bold-33"/>
     <use x="299.640625" xlink:href="#BitstreamVeraSans-Bold-20"/>
     <use x="334.455078125" xlink:href="#BitstreamVeraSans-Bold-69"/>
     <use x="368.732421875" xlink:href="#BitstreamVeraSans-Bold-6e"/>
     <use x="439.923828125" xlink:href="#BitstreamVeraSans-Bold-64"/>
     <use x="511.505859375" xlink:href="#BitstreamVeraSans-Bold-75"/>
     <use x="582.697265625" xlink:href="#BitstreamVeraSans-Bold-73"/>
     <use x="642.21875" xlink:href="#BitstreamVeraSans-Bold-74"/>
     <use x="690.021484375" xlink:href="#BitstreamVeraSans-Bold-72"/>
     <use x="739.337890625" xlink:href="#BitstreamVeraSans-Bold-69"/>
     <use x="773.615234375" xlink:href="#BitstreamVeraSans-Bold-65"/>
     <use x="841.4375" xlink:href="#BitstreamVeraSans-Bold-73"/>
     <use x="900.958984375" xlink:href="#BitstreamVeraSans-Bold-20"/>
     <use x="935.7734375" xlink:href="#BitstreamVeraSans-Bold-77"/>
     <use x="1028.15625" xlink:href="#BitstreamVeraSans-Bold-69"/>
     <use x="1062.43359375" xlink:href="#BitstreamVeraSans-Bold-74"/>
     <use x="1110.23632812" xlink:href="#BitstreamVeraSans-Bold-68"/>
     <use x="1181.42773438" xlink:href="#BitstreamVeraSans-Bold-20"/>
     <use x="1216.2421875" xlink:href="#BitstreamVeraSans-Bold-68"/>
     <use x="1287.43359375" xlink:href="#BitstreamVeraSans-Bold-69"/>
     <use x="1321.7109375" xlink:href="#BitstreamVeraSans-Bold-67"/>
     <use x="1393.29296875" xlink:href="#BitstreamVeraSans-Bold-68"/>
     <use x="1464.484375" xlink:href="#BitstreamVeraSans-Bold-65"/>
     <use x="1532.30664062" xlink:href="#BitstreamVeraSans-Bold-73"/>
     <use x="1591.828125" xlink:href="#BitstreamVeraSans-Bold-74"/>
     <use x="1639.63085938" xlink:href="#BitstreamVeraSans-Bold-20"/>
     <use x="1674.4453125" xlink:href="#BitstreamVeraSans-Bold-61"/>
     <use x="1741.92578125" xlink:href="#BitstreamVeraSans-Bold-76"/>
     <use x="1807.11132812" xlink:href="#BitstreamVeraSans-Bold-65"/>
     <use x="1874.93359375" xlink:href="#BitstreamVeraSans-Bold-72"/>
     <use x="1924.25" xlink:href="#BitstreamVeraSans-Bold-61"/>
     <use x="1991.73046875" xlink:href="#BitstreamVeraSans-Bold-67"/>
     <use x="2063.3125" xlink:href="#BitstreamVeraSans-Bold-65"/>
     <use x="2131.13476562" xlink:href="#BitstreamVeraSans-Bold-20"/>
     <use x="2165.94921875" xlink:href="#BitstreamVeraSans-Bold-68"/>
     <use x="2237.140625" xlink:href="#BitstreamVeraSans-Bold-69"/>
     <use x="2271.41796875" xlink:href="#BitstreamVeraSans-Bold-72"/>
     <use x="2320.734375" xlink:href="#BitstreamVeraSans-Bold-69"/>
     <use x="2355.01171875" xlink:href="#BitstreamVeraSans-Bold-6e"/>
     <use x="2426.203125" xlink:href="#BitstreamVeraSans-Bold-67"/>
     <use x="2497.78515625" xlink:href="#BitstreamVeraSans-Bold-20"/>
     <use x="2532.59960938" xlink:href="#BitstreamVeraSans-Bold-67"/>
     <use x="2604.18164062" xlink:href="#BitstreamVeraSans-Bold-61"/>
     <use x="2671.66210938" xlink:href="#BitstreamVeraSans-Bold-70"/>
    </g>
   </g>
   <g id="text_10">
    <!-- Number (in thousands) of hiring gaps -->
    <defs>
     <path id="BitstreamVeraSans-Roman-20"/>
     <path d="
M9.8125 72.9062
L23.0938 72.9062
L55.4219 11.9219
L55.4219 72.9062
L64.9844 72.9062
L64.9844 0
L51.7031 0
L19.3906 60.9844
L19.3906 0
L9.8125 0
z
" id="BitstreamVeraSans-Roman-4e"/>
     <path d="
M37.1094 75.9844
L37.1094 68.5
L28.5156 68.5
Q23.6875 68.5 21.7969 66.5469
Q19.9219 64.5938 19.9219 59.5156
L19.9219 54.6875
L34.7188 54.6875
L34.7188 47.7031
L19.9219 47.7031
L19.9219 0
L10.8906 0
L10.8906 47.7031
L2.29688 47.7031
L2.29688 54.6875
L10.8906 54.6875
L10.8906 58.5
Q10.8906 67.625 15.1406 71.7969
Q19.3906 75.9844 28.6094 75.9844
z
" id="BitstreamVeraSans-Roman-66"/>
     <path d="
M18.1094 8.20312
L18.1094 -20.7969
L9.07812 -20.7969
L9.07812 54.6875
L18.1094 54.6875
L18.1094 46.3906
Q20.9531 51.2656 25.2656 53.625
Q29.5938 56 35.5938 56
Q45.5625 56 51.7812 48.0938
Q58.0156 40.1875 58.0156 27.2969
Q58.0156 14.4062 51.7812 6.48438
Q45.5625 -1.42188 35.5938 -1.42188
Q29.5938 -1.42188 25.2656 0.953125
Q20.9531 3.32812 18.1094 8.20312
M48.6875 27.2969
Q48.6875 37.2031 44.6094 42.8438
Q40.5312 48.4844 33.4062 48.4844
Q26.2656 48.4844 22.1875 42.8438
Q18.1094 37.2031 18.1094 27.2969
Q18.1094 17.3906 22.1875 11.75
Q26.2656 6.10938 33.4062 6.10938
Q40.5312 6.10938 44.6094 11.75
Q48.6875 17.3906 48.6875 27.2969" id="BitstreamVeraSans-Roman-70"/>
     <path d="
M54.8906 33.0156
L54.8906 0
L45.9062 0
L45.9062 32.7188
Q45.9062 40.4844 42.875 44.3281
Q39.8438 48.1875 33.7969 48.1875
Q26.5156 48.1875 22.3125 43.5469
Q18.1094 38.9219 18.1094 30.9062
L18.1094 0
L9.07812 0
L9.07812 54.6875
L18.1094 54.6875
L18.1094 46.1875
Q21.3438 51.125 25.7031 53.5625
Q30.0781 56 35.7969 56
Q45.2188 56 50.0469 50.1719
Q54.8906 44.3438 54.8906 33.0156" id="BitstreamVeraSans-Roman-6e"/>
     <path d="
M52 44.1875
Q55.375 50.25 60.0625 53.125
Q64.75 56 71.0938 56
Q79.6406 56 84.2812 50.0156
Q88.9219 44.0469 88.9219 33.0156
L88.9219 0
L79.8906 0
L79.8906 32.7188
Q79.8906 40.5781 77.0938 44.375
Q74.3125 48.1875 68.6094 48.1875
Q61.625 48.1875 57.5625 43.5469
Q53.5156 38.9219 53.5156 30.9062
L53.5156 0
L44.4844 0
L44.4844 32.7188
Q44.4844 40.625 41.7031 44.4062
Q38.9219 48.1875 33.1094 48.1875
Q26.2188 48.1875 22.1562 43.5312
Q18.1094 38.875 18.1094 30.9062
L18.1094 0
L9.07812 0
L9.07812 54.6875
L18.1094 54.6875
L18.1094 46.1875
Q21.1875 51.2188 25.4844 53.6094
Q29.7812 56 35.6875 56
Q41.6562 56 45.8281 52.9688
Q50 49.9531 52 44.1875" id="BitstreamVeraSans-Roman-6d"/>
     <path d="
M30.6094 48.3906
Q23.3906 48.3906 19.1875 42.75
Q14.9844 37.1094 14.9844 27.2969
Q14.9844 17.4844 19.1562 11.8438
Q23.3438 6.20312 30.6094 6.20312
Q37.7969 6.20312 41.9844 11.8594
Q46.1875 17.5312 46.1875 27.2969
Q46.1875 37.0156 41.9844 42.7031
Q37.7969 48.3906 30.6094 48.3906
M30.6094 56
Q42.3281 56 49.0156 48.375
Q55.7188 40.7656 55.7188 27.2969
Q55.7188 13.875 49.0156 6.21875
Q42.3281 -1.42188 30.6094 -1.42188
Q18.8438 -1.42188 12.1719 6.21875
Q5.51562 13.875 5.51562 27.2969
Q5.51562 40.7656 12.1719 48.375
Q18.8438 56 30.6094 56" id="BitstreamVeraSans-Roman-6f"/>
     <path d="
M8.01562 75.875
L15.8281 75.875
Q23.1406 64.3594 26.7812 53.3125
Q30.4219 42.2812 30.4219 31.3906
Q30.4219 20.4531 26.7812 9.375
Q23.1406 -1.70312 15.8281 -13.1875
L8.01562 -13.1875
Q14.5 -2 17.7031 9.0625
Q20.9062 20.125 20.9062 31.3906
Q20.9062 42.6719 17.7031 53.6562
Q14.5 64.6562 8.01562 75.875" id="BitstreamVeraSans-Roman-29"/>
     <path d="
M34.2812 27.4844
Q23.3906 27.4844 19.1875 25
Q14.9844 22.5156 14.9844 16.5
Q14.9844 11.7188 18.1406 8.90625
Q21.2969 6.10938 26.7031 6.10938
Q34.1875 6.10938 38.7031 11.4062
Q43.2188 16.7031 43.2188 25.4844
L43.2188 27.4844
z

M52.2031 31.2031
L52.2031 0
L43.2188 0
L43.2188 8.29688
Q40.1406 3.32812 35.5469 0.953125
Q30.9531 -1.42188 24.3125 -1.42188
Q15.9219 -1.42188 10.9531 3.29688
Q6 8.01562 6 15.9219
Q6 25.1406 12.1719 29.8281
Q18.3594 34.5156 30.6094 34.5156
L43.2188 34.5156
L43.2188 35.4062
Q43.2188 41.6094 39.1406 45
Q35.0625 48.3906 27.6875 48.3906
Q23 48.3906 18.5469 47.2656
Q14.1094 46.1406 10.0156 43.8906
L10.0156 52.2031
Q14.9375 54.1094 19.5781 55.0469
Q24.2188 56 28.6094 56
Q40.4844 56 46.3438 49.8438
Q52.2031 43.7031 52.2031 31.2031" id="BitstreamVeraSans-Roman-61"/>
     <path d="
M9.42188 54.6875
L18.4062 54.6875
L18.4062 0
L9.42188 0
z

M9.42188 75.9844
L18.4062 75.9844
L18.4062 64.5938
L9.42188 64.5938
z
" id="BitstreamVeraSans-Roman-69"/>
     <path d="
M54.8906 33.0156
L54.8906 0
L45.9062 0
L45.9062 32.7188
Q45.9062 40.4844 42.875 44.3281
Q39.8438 48.1875 33.7969 48.1875
Q26.5156 48.1875 22.3125 43.5469
Q18.1094 38.9219 18.1094 30.9062
L18.1094 0
L9.07812 0
L9.07812 75.9844
L18.1094 75.9844
L18.1094 46.1875
Q21.3438 51.125 25.7031 53.5625
Q30.0781 56 35.7969 56
Q45.2188 56 50.0469 50.1719
Q54.8906 44.3438 54.8906 33.0156" id="BitstreamVeraSans-Roman-68"/>
     <path d="
M31 75.875
Q24.4688 64.6562 21.2812 53.6562
Q18.1094 42.6719 18.1094 31.3906
Q18.1094 20.125 21.3125 9.0625
Q24.5156 -2 31 -13.1875
L23.1875 -13.1875
Q15.875 -1.70312 12.2344 9.375
Q8.59375 20.4531 8.59375 31.3906
Q8.59375 42.2812 12.2031 53.3125
Q15.8281 64.3594 23.1875 75.875
z
" id="BitstreamVeraSans-Roman-28"/>
     <path d="
M56.2031 29.5938
L56.2031 25.2031
L14.8906 25.2031
Q15.4844 15.9219 20.4844 11.0625
Q25.4844 6.20312 34.4219 6.20312
Q39.5938 6.20312 44.4531 7.46875
Q49.3125 8.73438 54.1094 11.2812
L54.1094 2.78125
Q49.2656 0.734375 44.1875 -0.34375
Q39.1094 -1.42188 33.8906 -1.42188
Q20.7969 -1.42188 13.1562 6.1875
Q5.51562 13.8125 5.51562 26.8125
Q5.51562 40.2344 12.7656 48.1094
Q20.0156 56 32.3281 56
Q43.3594 56 49.7812 48.8906
Q56.2031 41.7969 56.2031 29.5938
M47.2188 32.2344
Q47.125 39.5938 43.0938 43.9844
Q39.0625 48.3906 32.4219 48.3906
Q24.9062 48.3906 20.3906 44.1406
Q15.875 39.8906 15.1875 32.1719
z
" id="BitstreamVeraSans-Roman-65"/>
     <path d="
M45.4062 46.3906
L45.4062 75.9844
L54.3906 75.9844
L54.3906 0
L45.4062 0
L45.4062 8.20312
Q42.5781 3.32812 38.25 0.953125
Q33.9375 -1.42188 27.875 -1.42188
Q17.9688 -1.42188 11.7344 6.48438
Q5.51562 14.4062 5.51562 27.2969
Q5.51562 40.1875 11.7344 48.0938
Q17.9688 56 27.875 56
Q33.9375 56 38.25 53.625
Q42.5781 51.2656 45.4062 46.3906
M14.7969 27.2969
Q14.7969 17.3906 18.875 11.75
Q22.9531 6.10938 30.0781 6.10938
Q37.2031 6.10938 41.2969 11.75
Q45.4062 17.3906 45.4062 27.2969
Q45.4062 37.2031 41.2969 42.8438
Q37.2031 48.4844 30.0781 48.4844
Q22.9531 48.4844 18.875 42.8438
Q14.7969 37.2031 14.7969 27.2969" id="BitstreamVeraSans-Roman-64"/>
     <path d="
M18.3125 70.2188
L18.3125 54.6875
L36.8125 54.6875
L36.8125 47.7031
L18.3125 47.7031
L18.3125 18.0156
Q18.3125 11.3281 20.1406 9.42188
Q21.9688 7.51562 27.5938 7.51562
L36.8125 7.51562
L36.8125 0
L27.5938 0
Q17.1875 0 13.2344 3.875
Q9.28125 7.76562 9.28125 18.0156
L9.28125 47.7031
L2.6875 47.7031
L2.6875 54.6875
L9.28125 54.6875
L9.28125 70.2188
z
" id="BitstreamVeraSans-Roman-74"/>
     <path d="
M8.5 21.5781
L8.5 54.6875
L17.4844 54.6875
L17.4844 21.9219
Q17.4844 14.1562 20.5 10.2656
Q23.5312 6.39062 29.5938 6.39062
Q36.8594 6.39062 41.0781 11.0312
Q45.3125 15.6719 45.3125 23.6875
L45.3125 54.6875
L54.2969 54.6875
L54.2969 0
L45.3125 0
L45.3125 8.40625
Q42.0469 3.42188 37.7188 1
Q33.4062 -1.42188 27.6875 -1.42188
Q18.2656 -1.42188 13.375 4.4375
Q8.5 10.2969 8.5 21.5781" id="BitstreamVeraSans-Roman-75"/>
     <path d="
M41.1094 46.2969
Q39.5938 47.1719 37.8125 47.5781
Q36.0312 48 33.8906 48
Q26.2656 48 22.1875 43.0469
Q18.1094 38.0938 18.1094 28.8125
L18.1094 0
L9.07812 0
L9.07812 54.6875
L18.1094 54.6875
L18.1094 46.1875
Q20.9531 51.1719 25.4844 53.5781
Q30.0312 56 36.5312 56
Q37.4531 56 38.5781 55.875
Q39.7031 55.7656 41.0625 55.5156
z
" id="BitstreamVeraSans-Roman-72"/>
     <path d="
M44.2812 53.0781
L44.2812 44.5781
Q40.4844 46.5312 36.375 47.5
Q32.2812 48.4844 27.875 48.4844
Q21.1875 48.4844 17.8438 46.4375
Q14.5 44.3906 14.5 40.2812
Q14.5 37.1562 16.8906 35.375
Q19.2812 33.5938 26.5156 31.9844
L29.5938 31.2969
Q39.1562 29.25 43.1875 25.5156
Q47.2188 21.7812 47.2188 15.0938
Q47.2188 7.46875 41.1875 3.01562
Q35.1562 -1.42188 24.6094 -1.42188
Q20.2188 -1.42188 15.4531 -0.5625
Q10.6875 0.296875 5.42188 2
L5.42188 11.2812
Q10.4062 8.6875 15.2344 7.39062
Q20.0625 6.10938 24.8125 6.10938
Q31.1562 6.10938 34.5625 8.28125
Q37.9844 10.4531 37.9844 14.4062
Q37.9844 18.0625 35.5156 20.0156
Q33.0625 21.9688 24.7031 23.7812
L21.5781 24.5156
Q13.2344 26.2656 9.51562 29.9062
Q5.8125 33.5469 5.8125 39.8906
Q5.8125 47.6094 11.2812 51.7969
Q16.75 56 26.8125 56
Q31.7812 56 36.1719 55.2656
Q40.5781 54.5469 44.2812 53.0781" id="BitstreamVeraSans-Roman-73"/>
     <path d="
M45.4062 27.9844
Q45.4062 37.75 41.375 43.1094
Q37.3594 48.4844 30.0781 48.4844
Q22.8594 48.4844 18.8281 43.1094
Q14.7969 37.75 14.7969 27.9844
Q14.7969 18.2656 18.8281 12.8906
Q22.8594 7.51562 30.0781 7.51562
Q37.3594 7.51562 41.375 12.8906
Q45.4062 18.2656 45.4062 27.9844
M54.3906 6.78125
Q54.3906 -7.17188 48.1875 -13.9844
Q42 -20.7969 29.2031 -20.7969
Q24.4688 -20.7969 20.2656 -20.0938
Q16.0625 -19.3906 12.1094 -17.9219
L12.1094 -9.1875
Q16.0625 -11.3281 19.9219 -12.3438
Q23.7812 -13.375 27.7812 -13.375
Q36.625 -13.375 41.0156 -8.76562
Q45.4062 -4.15625 45.4062 5.17188
L45.4062 9.625
Q42.625 4.78125 38.2812 2.39062
Q33.9375 0 27.875 0
Q17.8281 0 11.6719 7.65625
Q5.51562 15.3281 5.51562 27.9844
Q5.51562 40.6719 11.6719 48.3281
Q17.8281 56 27.875 56
Q33.9375 56 38.2812 53.6094
Q42.625 51.2188 45.4062 46.3906
L45.4062 54.6875
L54.3906 54.6875
z
" id="BitstreamVeraSans-Roman-67"/>
     <path d="
M48.6875 27.2969
Q48.6875 37.2031 44.6094 42.8438
Q40.5312 48.4844 33.4062 48.4844
Q26.2656 48.4844 22.1875 42.8438
Q18.1094 37.2031 18.1094 27.2969
Q18.1094 17.3906 22.1875 11.75
Q26.2656 6.10938 33.4062 6.10938
Q40.5312 6.10938 44.6094 11.75
Q48.6875 17.3906 48.6875 27.2969
M18.1094 46.3906
Q20.9531 51.2656 25.2656 53.625
Q29.5938 56 35.5938 56
Q45.5625 56 51.7812 48.0938
Q58.0156 40.1875 58.0156 27.2969
Q58.0156 14.4062 51.7812 6.48438
Q45.5625 -1.42188 35.5938 -1.42188
Q29.5938 -1.42188 25.2656 0.953125
Q20.9531 3.32812 18.1094 8.20312
L18.1094 0
L9.07812 0
L9.07812 75.9844
L18.1094 75.9844
z
" id="BitstreamVeraSans-Roman-62"/>
    </defs>
    <g style="fill:#808080;" transform="translate(15.55828125 265.049375)rotate(-90.0)scale(0.11 -0.11)">
     <use xlink:href="#BitstreamVeraSans-Roman-4e"/>
     <use x="74.8046875" xlink:href="#BitstreamVeraSans-Roman-75"/>
     <use x="138.18359375" xlink:href="#BitstreamVeraSans-Roman-6d"/>
     <use x="235.595703125" xlink:href="#BitstreamVeraSans-Roman-62"/>
     <use x="299.072265625" xlink:href="#BitstreamVeraSans-Roman-65"/>
     <use x="360.595703125" xlink:href="#BitstreamVeraSans-Roman-72"/>
     <use x="401.708984375" xlink:href="#BitstreamVeraSans-Roman-20"/>
     <use x="433.49609375" xlink:href="#BitstreamVeraSans-Roman-28"/>
     <use x="472.509765625" xlink:href="#BitstreamVeraSans-Roman-69"/>
     <use x="500.29296875" xlink:href="#BitstreamVeraSans-Roman-6e"/>
     <use x="563.671875" xlink:href="#BitstreamVeraSans-Roman-20"/>
     <use x="595.458984375" xlink:href="#BitstreamVeraSans-Roman-74"/>
     <use x="634.66796875" xlink:href="#BitstreamVeraSans-Roman-68"/>
     <use x="698.046875" xlink:href="#BitstreamVeraSans-Roman-6f"/>
     <use x="759.228515625" xlink:href="#BitstreamVeraSans-Roman-75"/>
     <use x="822.607421875" xlink:href="#BitstreamVeraSans-Roman-73"/>
     <use x="874.70703125" xlink:href="#BitstreamVeraSans-Roman-61"/>
     <use x="935.986328125" xlink:href="#BitstreamVeraSans-Roman-6e"/>
     <use x="999.365234375" xlink:href="#BitstreamVeraSans-Roman-64"/>
     <use x="1062.84179688" xlink:href="#BitstreamVeraSans-Roman-73"/>
     <use x="1114.94140625" xlink:href="#BitstreamVeraSans-Roman-29"/>
     <use x="1153.95507812" xlink:href="#BitstreamVeraSans-Roman-20"/>
     <use x="1185.7421875" xlink:href="#BitstreamVeraSans-Roman-6f"/>
     <use x="1246.92382812" xlink:href="#BitstreamVeraSans-Roman-66"/>
     <use x="1282.12890625" xlink:href="#BitstreamVeraSans-Roman-20"/>
     <use x="1313.91601562" xlink:href="#BitstreamVeraSans-Roman-68"/>
     <use x="1377.29492188" xlink:href="#BitstreamVeraSans-Roman-69"/>
     <use x="1405.078125" xlink:href="#BitstreamVeraSans-Roman-72"/>
     <use x="1446.19140625" xlink:href="#BitstreamVeraSans-Roman-69"/>
     <use x="1473.97460938" xlink:href="#BitstreamVeraSans-Roman-6e"/>
     <use x="1537.35351562" xlink:href="#BitstreamVeraSans-Roman-67"/>
     <use x="1600.83007812" xlink:href="#BitstreamVeraSans-Roman-20"/>
     <use x="1632.6171875" xlink:href="#BitstreamVeraSans-Roman-67"/>
     <use x="1696.09375" xlink:href="#BitstreamVeraSans-Roman-61"/>
     <use x="1757.37304688" xlink:href="#BitstreamVeraSans-Roman-70"/>
     <use x="1820.84960938" xlink:href="#BitstreamVeraSans-Roman-73"/>
    </g>
   </g>
   <g id="text_11">
    <!-- Increases in the hiring gap for the Health care -->
    <defs>
     <path d="
M9.42188 75.9844
L18.4062 75.9844
L18.4062 0
L9.42188 0
z
" id="BitstreamVeraSans-Roman-6c"/>
     <path d="
M48.7812 52.5938
L48.7812 44.1875
Q44.9688 46.2969 41.1406 47.3438
Q37.3125 48.3906 33.4062 48.3906
Q24.6562 48.3906 19.8125 42.8438
Q14.9844 37.3125 14.9844 27.2969
Q14.9844 17.2812 19.8125 11.7344
Q24.6562 6.20312 33.4062 6.20312
Q37.3125 6.20312 41.1406 7.25
Q44.9688 8.29688 48.7812 10.4062
L48.7812 2.09375
Q45.0156 0.34375 40.9844 -0.53125
Q36.9688 -1.42188 32.4219 -1.42188
Q20.0625 -1.42188 12.7812 6.34375
Q5.51562 14.1094 5.51562 27.2969
Q5.51562 40.6719 12.8594 48.3281
Q20.2188 56 33.0156 56
Q37.1562 56 41.1094 55.1406
Q45.0625 54.2969 48.7812 52.5938" id="BitstreamVeraSans-Roman-63"/>
     <path d="
M9.8125 72.9062
L19.6719 72.9062
L19.6719 0
L9.8125 0
z
" id="BitstreamVeraSans-Roman-49"/>
     <path d="
M9.8125 72.9062
L19.6719 72.9062
L19.6719 43.0156
L55.5156 43.0156
L55.5156 72.9062
L65.375 72.9062
L65.375 0
L55.5156 0
L55.5156 34.7188
L19.6719 34.7188
L19.6719 0
L9.8125 0
z
" id="BitstreamVeraSans-Roman-48"/>
    </defs>
    <g style="fill:#e24a33;" transform="translate(263.716655928 68.35659375)scale(0.11 -0.11)">
     <use xlink:href="#BitstreamVeraSans-Roman-49"/>
     <use x="29.4921875" xlink:href="#BitstreamVeraSans-Roman-6e"/>
     <use x="92.87109375" xlink:href="#BitstreamVeraSans-Roman-63"/>
     <use x="147.8515625" xlink:href="#BitstreamVeraSans-Roman-72"/>
     <use x="186.71484375" xlink:href="#BitstreamVeraSans-Roman-65"/>
     <use x="248.23828125" xlink:href="#BitstreamVeraSans-Roman-61"/>
     <use x="309.517578125" xlink:href="#BitstreamVeraSans-Roman-73"/>
     <use x="361.6171875" xlink:href="#BitstreamVeraSans-Roman-65"/>
     <use x="423.140625" xlink:href="#BitstreamVeraSans-Roman-73"/>
     <use x="475.240234375" xlink:href="#BitstreamVeraSans-Roman-20"/>
     <use x="507.02734375" xlink:href="#BitstreamVeraSans-Roman-69"/>
     <use x="534.810546875" xlink:href="#BitstreamVeraSans-Roman-6e"/>
     <use x="598.189453125" xlink:href="#BitstreamVeraSans-Roman-20"/>
     <use x="629.9765625" xlink:href="#BitstreamVeraSans-Roman-74"/>
     <use x="669.185546875" xlink:href="#BitstreamVeraSans-Roman-68"/>
     <use x="732.564453125" xlink:href="#BitstreamVeraSans-Roman-65"/>
     <use x="794.087890625" xlink:href="#BitstreamVeraSans-Roman-20"/>
     <use x="825.875" xlink:href="#BitstreamVeraSans-Roman-68"/>
     <use x="889.25390625" xlink:href="#BitstreamVeraSans-Roman-69"/>
     <use x="917.037109375" xlink:href="#BitstreamVeraSans-Roman-72"/>
     <use x="958.150390625" xlink:href="#BitstreamVeraSans-Roman-69"/>
     <use x="985.93359375" xlink:href="#BitstreamVeraSans-Roman-6e"/>
     <use x="1049.3125" xlink:href="#BitstreamVeraSans-Roman-67"/>
     <use x="1112.7890625" xlink:href="#BitstreamVeraSans-Roman-20"/>
     <use x="1144.57617188" xlink:href="#BitstreamVeraSans-Roman-67"/>
     <use x="1208.05273438" xlink:href="#BitstreamVeraSans-Roman-61"/>
     <use x="1269.33203125" xlink:href="#BitstreamVeraSans-Roman-70"/>
     <use x="1332.80859375" xlink:href="#BitstreamVeraSans-Roman-20"/>
     <use x="1364.59570312" xlink:href="#BitstreamVeraSans-Roman-66"/>
     <use x="1399.80078125" xlink:href="#BitstreamVeraSans-Roman-6f"/>
     <use x="1460.98242188" xlink:href="#BitstreamVeraSans-Roman-72"/>
     <use x="1502.09570312" xlink:href="#BitstreamVeraSans-Roman-20"/>
     <use x="1533.8828125" xlink:href="#BitstreamVeraSans-Roman-74"/>
     <use x="1573.09179688" xlink:href="#BitstreamVeraSans-Roman-68"/>
     <use x="1636.47070312" xlink:href="#BitstreamVeraSans-Roman-65"/>
     <use x="1697.99414062" xlink:href="#BitstreamVeraSans-Roman-20"/>
     <use x="1729.78125" xlink:href="#BitstreamVeraSans-Roman-48"/>
     <use x="1804.9765625" xlink:href="#BitstreamVeraSans-Roman-65"/>
     <use x="1866.5" xlink:href="#BitstreamVeraSans-Roman-61"/>
     <use x="1927.77929688" xlink:href="#BitstreamVeraSans-Roman-6c"/>
     <use x="1955.5625" xlink:href="#BitstreamVeraSans-Roman-74"/>
     <use x="1994.77148438" xlink:href="#BitstreamVeraSans-Roman-68"/>
     <use x="2058.15039062" xlink:href="#BitstreamVeraSans-Roman-20"/>
     <use x="2089.9375" xlink:href="#BitstreamVeraSans-Roman-63"/>
     <use x="2144.91796875" xlink:href="#BitstreamVeraSans-Roman-61"/>
     <use x="2206.19726562" xlink:href="#BitstreamVeraSans-Roman-72"/>
     <use x="2245.06054688" xlink:href="#BitstreamVeraSans-Roman-65"/>
    </g>
    <!-- and social assistance industry have been -->
    <defs>
     <path d="
M2.98438 54.6875
L12.5 54.6875
L29.5938 8.79688
L46.6875 54.6875
L56.2031 54.6875
L35.6875 0
L23.4844 0
z
" id="BitstreamVeraSans-Roman-76"/>
     <path d="
M32.1719 -5.07812
Q28.375 -14.8438 24.75 -17.8125
Q21.1406 -20.7969 15.0938 -20.7969
L7.90625 -20.7969
L7.90625 -13.2812
L13.1875 -13.2812
Q16.8906 -13.2812 18.9375 -11.5156
Q21 -9.76562 23.4844 -3.21875
L25.0938 0.875
L2.98438 54.6875
L12.5 54.6875
L29.5938 11.9219
L46.6875 54.6875
L56.2031 54.6875
z
" id="BitstreamVeraSans-Roman-79"/>
    </defs>
    <g style="fill:#e24a33;" transform="translate(263.716655928 80.6741875)scale(0.11 -0.11)">
     <use xlink:href="#BitstreamVeraSans-Roman-61"/>
     <use x="61.279296875" xlink:href="#BitstreamVeraSans-Roman-6e"/>
     <use x="124.658203125" xlink:href="#BitstreamVeraSans-Roman-64"/>
     <use x="188.134765625" xlink:href="#BitstreamVeraSans-Roman-20"/>
     <use x="219.921875" xlink:href="#BitstreamVeraSans-Roman-73"/>
     <use x="272.021484375" xlink:href="#BitstreamVeraSans-Roman-6f"/>
     <use x="333.203125" xlink:href="#BitstreamVeraSans-Roman-63"/>
     <use x="388.18359375" xlink:href="#BitstreamVeraSans-Roman-69"/>
     <use x="415.966796875" xlink:href="#BitstreamVeraSans-Roman-61"/>
     <use x="477.24609375" xlink:href="#BitstreamVeraSans-Roman-6c"/>
     <use x="505.029296875" xlink:href="#BitstreamVeraSans-Roman-20"/>
     <use x="536.81640625" xlink:href="#BitstreamVeraSans-Roman-61"/>
     <use x="598.095703125" xlink:href="#BitstreamVeraSans-Roman-73"/>
     <use x="650.1953125" xlink:href="#BitstreamVeraSans-Roman-73"/>
     <use x="702.294921875" xlink:href="#BitstreamVeraSans-Roman-69"/>
     <use x="730.078125" xlink:href="#BitstreamVeraSans-Roman-73"/>
     <use x="782.177734375" xlink:href="#BitstreamVeraSans-Roman-74"/>
     <use x="821.38671875" xlink:href="#BitstreamVeraSans-Roman-61"/>
     <use x="882.666015625" xlink:href="#BitstreamVeraSans-Roman-6e"/>
     <use x="946.044921875" xlink:href="#BitstreamVeraSans-Roman-63"/>
     <use x="1001.02539062" xlink:href="#BitstreamVeraSans-Roman-65"/>
     <use x="1062.54882812" xlink:href="#BitstreamVeraSans-Roman-20"/>
     <use x="1094.3359375" xlink:href="#BitstreamVeraSans-Roman-69"/>
     <use x="1122.11914062" xlink:href="#BitstreamVeraSans-Roman-6e"/>
     <use x="1185.49804688" xlink:href="#BitstreamVeraSans-Roman-64"/>
     <use x="1248.97460938" xlink:href="#BitstreamVeraSans-Roman-75"/>
     <use x="1312.35351562" xlink:href="#BitstreamVeraSans-Roman-73"/>
     <use x="1364.453125" xlink:href="#BitstreamVeraSans-Roman-74"/>
     <use x="1403.66210938" xlink:href="#BitstreamVeraSans-Roman-72"/>
     <use x="1444.77539062" xlink:href="#BitstreamVeraSans-Roman-79"/>
     <use x="1503.95507812" xlink:href="#BitstreamVeraSans-Roman-20"/>
     <use x="1535.7421875" xlink:href="#BitstreamVeraSans-Roman-68"/>
     <use x="1599.12109375" xlink:href="#BitstreamVeraSans-Roman-61"/>
     <use x="1660.40039062" xlink:href="#BitstreamVeraSans-Roman-76"/>
     <use x="1719.58007812" xlink:href="#BitstreamVeraSans-Roman-65"/>
     <use x="1781.10351562" xlink:href="#BitstreamVeraSans-Roman-20"/>
     <use x="1812.890625" xlink:href="#BitstreamVeraSans-Roman-62"/>
     <use x="1876.3671875" xlink:href="#BitstreamVeraSans-Roman-65"/>
     <use x="1937.890625" xlink:href="#BitstreamVeraSans-Roman-65"/>
     <use x="1999.4140625" xlink:href="#BitstreamVeraSans-Roman-6e"/>
    </g>
    <!-- steadily outpacing all other industries -->
    <g style="fill:#e24a33;" transform="translate(263.716655928 92.99178125)scale(0.11 -0.11)">
     <use xlink:href="#BitstreamVeraSans-Roman-73"/>
     <use x="52.099609375" xlink:href="#BitstreamVeraSans-Roman-74"/>
     <use x="91.30859375" xlink:href="#BitstreamVeraSans-Roman-65"/>
     <use x="152.83203125" xlink:href="#BitstreamVeraSans-Roman-61"/>
     <use x="214.111328125" xlink:href="#BitstreamVeraSans-Roman-64"/>
     <use x="277.587890625" xlink:href="#BitstreamVeraSans-Roman-69"/>
     <use x="305.37109375" xlink:href="#BitstreamVeraSans-Roman-6c"/>
     <use x="333.154296875" xlink:href="#BitstreamVeraSans-Roman-79"/>
     <use x="392.333984375" xlink:href="#BitstreamVeraSans-Roman-20"/>
     <use x="424.12109375" xlink:href="#BitstreamVeraSans-Roman-6f"/>
     <use x="485.302734375" xlink:href="#BitstreamVeraSans-Roman-75"/>
     <use x="548.681640625" xlink:href="#BitstreamVeraSans-Roman-74"/>
     <use x="587.890625" xlink:href="#BitstreamVeraSans-Roman-70"/>
     <use x="651.3671875" xlink:href="#BitstreamVeraSans-Roman-61"/>
     <use x="712.646484375" xlink:href="#BitstreamVeraSans-Roman-63"/>
     <use x="767.626953125" xlink:href="#BitstreamVeraSans-Roman-69"/>
     <use x="795.41015625" xlink:href="#BitstreamVeraSans-Roman-6e"/>
     <use x="858.7890625" xlink:href="#BitstreamVeraSans-Roman-67"/>
     <use x="922.265625" xlink:href="#BitstreamVeraSans-Roman-20"/>
     <use x="954.052734375" xlink:href="#BitstreamVeraSans-Roman-61"/>
     <use x="1015.33203125" xlink:href="#BitstreamVeraSans-Roman-6c"/>
     <use x="1043.11523438" xlink:href="#BitstreamVeraSans-Roman-6c"/>
     <use x="1070.8984375" xlink:href="#BitstreamVeraSans-Roman-20"/>
     <use x="1102.68554688" xlink:href="#BitstreamVeraSans-Roman-6f"/>
     <use x="1163.8671875" xlink:href="#BitstreamVeraSans-Roman-74"/>
     <use x="1203.07617188" xlink:href="#BitstreamVeraSans-Roman-68"/>
     <use x="1266.45507812" xlink:href="#BitstreamVeraSans-Roman-65"/>
     <use x="1327.97851562" xlink:href="#BitstreamVeraSans-Roman-72"/>
     <use x="1369.09179688" xlink:href="#BitstreamVeraSans-Roman-20"/>
     <use x="1400.87890625" xlink:href="#BitstreamVeraSans-Roman-69"/>
     <use x="1428.66210938" xlink:href="#BitstreamVeraSans-Roman-6e"/>
     <use x="1492.04101562" xlink:href="#BitstreamVeraSans-Roman-64"/>
     <use x="1555.51757812" xlink:href="#BitstreamVeraSans-Roman-75"/>
     <use x="1618.89648438" xlink:href="#BitstreamVeraSans-Roman-73"/>
     <use x="1670.99609375" xlink:href="#BitstreamVeraSans-Roman-74"/>
     <use x="1710.20507812" xlink:href="#BitstreamVeraSans-Roman-72"/>
     <use x="1751.31835938" xlink:href="#BitstreamVeraSans-Roman-69"/>
     <use x="1779.1015625" xlink:href="#BitstreamVeraSans-Roman-65"/>
     <use x="1840.625" xlink:href="#BitstreamVeraSans-Roman-73"/>
    </g>
    <!-- since the beginning of 2013 -->
    <g style="fill:#e24a33;" transform="translate(263.716655928 105.309375)scale(0.11 -0.11)">
     <use xlink:href="#BitstreamVeraSans-Roman-73"/>
     <use x="52.099609375" xlink:href="#BitstreamVeraSans-Roman-69"/>
     <use x="79.8828125" xlink:href="#BitstreamVeraSans-Roman-6e"/>
     <use x="143.26171875" xlink:href="#BitstreamVeraSans-Roman-63"/>
     <use x="198.2421875" xlink:href="#BitstreamVeraSans-Roman-65"/>
     <use x="259.765625" xlink:href="#BitstreamVeraSans-Roman-20"/>
     <use x="291.552734375" xlink:href="#BitstreamVeraSans-Roman-74"/>
     <use x="330.76171875" xlink:href="#BitstreamVeraSans-Roman-68"/>
     <use x="394.140625" xlink:href="#BitstreamVeraSans-Roman-65"/>
     <use x="455.6640625" xlink:href="#BitstreamVeraSans-Roman-20"/>
     <use x="487.451171875" xlink:href="#BitstreamVeraSans-Roman-62"/>
     <use x="550.927734375" xlink:href="#BitstreamVeraSans-Roman-65"/>
     <use x="612.451171875" xlink:href="#BitstreamVeraSans-Roman-67"/>
     <use x="675.927734375" xlink:href="#BitstreamVeraSans-Roman-69"/>
     <use x="703.7109375" xlink:href="#BitstreamVeraSans-Roman-6e"/>
     <use x="767.08984375" xlink:href="#BitstreamVeraSans-Roman-6e"/>
     <use x="830.46875" xlink:href="#BitstreamVeraSans-Roman-69"/>
     <use x="858.251953125" xlink:href="#BitstreamVeraSans-Roman-6e"/>
     <use x="921.630859375" xlink:href="#BitstreamVeraSans-Roman-67"/>
     <use x="985.107421875" xlink:href="#BitstreamVeraSans-Roman-20"/>
     <use x="1016.89453125" xlink:href="#BitstreamVeraSans-Roman-6f"/>
     <use x="1078.07617188" xlink:href="#BitstreamVeraSans-Roman-66"/>
     <use x="1113.28125" xlink:href="#BitstreamVeraSans-Roman-20"/>
     <use x="1145.06835938" xlink:href="#BitstreamVeraSans-Roman-32"/>
     <use x="1208.69140625" xlink:href="#BitstreamVeraSans-Roman-30"/>
     <use x="1272.31445312" xlink:href="#BitstreamVeraSans-Roman-31"/>
     <use x="1335.9375" xlink:href="#BitstreamVeraSans-Roman-33"/>
    </g>
   </g>
   <g id="text_12">
    <!-- Average industry hiring gap is below -->
    <defs>
     <path d="
M4.20312 54.6875
L13.1875 54.6875
L24.4219 12.0156
L35.5938 54.6875
L46.1875 54.6875
L57.4219 12.0156
L68.6094 54.6875
L77.5938 54.6875
L63.2812 0
L52.6875 0
L40.9219 44.8281
L29.1094 0
L18.5 0
z
" id="BitstreamVeraSans-Roman-77"/>
     <path d="
M34.1875 63.1875
L20.7969 26.9062
L47.6094 26.9062
z

M28.6094 72.9062
L39.7969 72.9062
L67.5781 0
L57.3281 0
L50.6875 18.7031
L17.8281 18.7031
L11.1875 0
L0.78125 0
z
" id="BitstreamVeraSans-Roman-41"/>
    </defs>
    <g style="fill:#808080;" transform="translate(581.797309278 218.50178125)scale(0.11 -0.11)">
     <use xlink:href="#BitstreamVeraSans-Roman-41"/>
     <use x="62.533203125" xlink:href="#BitstreamVeraSans-Roman-76"/>
     <use x="121.712890625" xlink:href="#BitstreamVeraSans-Roman-65"/>
     <use x="183.236328125" xlink:href="#BitstreamVeraSans-Roman-72"/>
     <use x="224.349609375" xlink:href="#BitstreamVeraSans-Roman-61"/>
     <use x="285.62890625" xlink:href="#BitstreamVeraSans-Roman-67"/>
     <use x="349.10546875" xlink:href="#BitstreamVeraSans-Roman-65"/>
     <use x="410.62890625" xlink:href="#BitstreamVeraSans-Roman-20"/>
     <use x="442.416015625" xlink:href="#BitstreamVeraSans-Roman-69"/>
     <use x="470.19921875" xlink:href="#BitstreamVeraSans-Roman-6e"/>
     <use x="533.578125" xlink:href="#BitstreamVeraSans-Roman-64"/>
     <use x="597.0546875" xlink:href="#BitstreamVeraSans-Roman-75"/>
     <use x="660.43359375" xlink:href="#BitstreamVeraSans-Roman-73"/>
     <use x="712.533203125" xlink:href="#BitstreamVeraSans-Roman-74"/>
     <use x="751.7421875" xlink:href="#BitstreamVeraSans-Roman-72"/>
     <use x="792.85546875" xlink:href="#BitstreamVeraSans-Roman-79"/>
     <use x="852.03515625" xlink:href="#BitstreamVeraSans-Roman-20"/>
     <use x="883.822265625" xlink:href="#BitstreamVeraSans-Roman-68"/>
     <use x="947.201171875" xlink:href="#BitstreamVeraSans-Roman-69"/>
     <use x="974.984375" xlink:href="#BitstreamVeraSans-Roman-72"/>
     <use x="1016.09765625" xlink:href="#BitstreamVeraSans-Roman-69"/>
     <use x="1043.88085938" xlink:href="#BitstreamVeraSans-Roman-6e"/>
     <use x="1107.25976562" xlink:href="#BitstreamVeraSans-Roman-67"/>
     <use x="1170.73632812" xlink:href="#BitstreamVeraSans-Roman-20"/>
     <use x="1202.5234375" xlink:href="#BitstreamVeraSans-Roman-67"/>
     <use x="1266.0" xlink:href="#BitstreamVeraSans-Roman-61"/>
     <use x="1327.27929688" xlink:href="#BitstreamVeraSans-Roman-70"/>
     <use x="1390.75585938" xlink:href="#BitstreamVeraSans-Roman-20"/>
     <use x="1422.54296875" xlink:href="#BitstreamVeraSans-Roman-69"/>
     <use x="1450.32617188" xlink:href="#BitstreamVeraSans-Roman-73"/>
     <use x="1502.42578125" xlink:href="#BitstreamVeraSans-Roman-20"/>
     <use x="1534.21289062" xlink:href="#BitstreamVeraSans-Roman-62"/>
     <use x="1597.68945312" xlink:href="#BitstreamVeraSans-Roman-65"/>
     <use x="1659.21289062" xlink:href="#BitstreamVeraSans-Roman-6c"/>
     <use x="1686.99609375" xlink:href="#BitstreamVeraSans-Roman-6f"/>
     <use x="1748.17773438" xlink:href="#BitstreamVeraSans-Roman-77"/>
    </g>
    <!-- or near 0 for much of 2008 - 2006 -->
    <defs>
     <path d="
M31.7812 34.625
Q24.75 34.625 20.7188 30.8594
Q16.7031 27.0938 16.7031 20.5156
Q16.7031 13.9219 20.7188 10.1562
Q24.75 6.39062 31.7812 6.39062
Q38.8125 6.39062 42.8594 10.1719
Q46.9219 13.9688 46.9219 20.5156
Q46.9219 27.0938 42.8906 30.8594
Q38.875 34.625 31.7812 34.625
M21.9219 38.8125
Q15.5781 40.375 12.0312 44.7188
Q8.5 49.0781 8.5 55.3281
Q8.5 64.0625 14.7188 69.1406
Q20.9531 74.2188 31.7812 74.2188
Q42.6719 74.2188 48.875 69.1406
Q55.0781 64.0625 55.0781 55.3281
Q55.0781 49.0781 51.5312 44.7188
Q48 40.375 41.7031 38.8125
Q48.8281 37.1562 52.7969 32.3125
Q56.7812 27.4844 56.7812 20.5156
Q56.7812 9.90625 50.3125 4.23438
Q43.8438 -1.42188 31.7812 -1.42188
Q19.7344 -1.42188 13.25 4.23438
Q6.78125 9.90625 6.78125 20.5156
Q6.78125 27.4844 10.7812 32.3125
Q14.7969 37.1562 21.9219 38.8125
M18.3125 54.3906
Q18.3125 48.7344 21.8438 45.5625
Q25.3906 42.3906 31.7812 42.3906
Q38.1406 42.3906 41.7188 45.5625
Q45.3125 48.7344 45.3125 54.3906
Q45.3125 60.0625 41.7188 63.2344
Q38.1406 66.4062 31.7812 66.4062
Q25.3906 66.4062 21.8438 63.2344
Q18.3125 60.0625 18.3125 54.3906" id="BitstreamVeraSans-Roman-38"/>
     <path d="
M4.89062 31.3906
L31.2031 31.3906
L31.2031 23.3906
L4.89062 23.3906
z
" id="BitstreamVeraSans-Roman-2d"/>
    </defs>
    <g style="fill:#808080;" transform="translate(581.797309278 230.819375)scale(0.11 -0.11)">
     <use xlink:href="#BitstreamVeraSans-Roman-6f"/>
     <use x="61.181640625" xlink:href="#BitstreamVeraSans-Roman-72"/>
     <use x="102.294921875" xlink:href="#BitstreamVeraSans-Roman-20"/>
     <use x="134.08203125" xlink:href="#BitstreamVeraSans-Roman-6e"/>
     <use x="197.4609375" xlink:href="#BitstreamVeraSans-Roman-65"/>
     <use x="258.984375" xlink:href="#BitstreamVeraSans-Roman-61"/>
     <use x="320.263671875" xlink:href="#BitstreamVeraSans-Roman-72"/>
     <use x="361.376953125" xlink:href="#BitstreamVeraSans-Roman-20"/>
     <use x="393.1640625" xlink:href="#BitstreamVeraSans-Roman-30"/>
     <use x="456.787109375" xlink:href="#BitstreamVeraSans-Roman-20"/>
     <use x="488.57421875" xlink:href="#BitstreamVeraSans-Roman-66"/>
     <use x="523.779296875" xlink:href="#BitstreamVeraSans-Roman-6f"/>
     <use x="584.9609375" xlink:href="#BitstreamVeraSans-Roman-72"/>
     <use x="626.07421875" xlink:href="#BitstreamVeraSans-Roman-20"/>
     <use x="657.861328125" xlink:href="#BitstreamVeraSans-Roman-6d"/>
     <use x="755.2734375" xlink:href="#BitstreamVeraSans-Roman-75"/>
     <use x="818.65234375" xlink:href="#BitstreamVeraSans-Roman-63"/>
     <use x="873.6328125" xlink:href="#BitstreamVeraSans-Roman-68"/>
     <use x="937.01171875" xlink:href="#BitstreamVeraSans-Roman-20"/>
     <use x="968.798828125" xlink:href="#BitstreamVeraSans-Roman-6f"/>
     <use x="1029.98046875" xlink:href="#BitstreamVeraSans-Roman-66"/>
     <use x="1065.18554688" xlink:href="#BitstreamVeraSans-Roman-20"/>
     <use x="1096.97265625" xlink:href="#BitstreamVeraSans-Roman-32"/>
     <use x="1160.59570312" xlink:href="#BitstreamVeraSans-Roman-30"/>
     <use x="1224.21875" xlink:href="#BitstreamVeraSans-Roman-30"/>
     <use x="1287.84179688" xlink:href="#BitstreamVeraSans-Roman-38"/>
     <use x="1351.46484375" xlink:href="#BitstreamVeraSans-Roman-20"/>
     <use x="1383.25195312" xlink:href="#BitstreamVeraSans-Roman-2d"/>
     <use x="1419.3359375" xlink:href="#BitstreamVeraSans-Roman-20"/>
     <use x="1451.12304688" xlink:href="#BitstreamVeraSans-Roman-32"/>
     <use x="1514.74609375" xlink:href="#BitstreamVeraSans-Roman-30"/>
     <use x="1578.36914062" xlink:href="#BitstreamVeraSans-Roman-30"/>
     <use x="1641.9921875" xlink:href="#BitstreamVeraSans-Roman-36"/>
    </g>
   </g>
   <g id="legend_1">
    <g id="patch_5">
     <path d="
M605.876 170.25
L832.314 170.25
L832.314 99.8994
L605.876 99.8994
z
" style="fill:#ffffff;stroke:#ffffff;stroke-linejoin:miter;stroke-width:0.5;"/>
    </g>
    <g id="line2d_30">
     <path d="
M614.276 108.899
L631.076 108.899" style="fill:none;stroke:#e24a33;stroke-linecap:square;"/>
    </g>
    <g id="line2d_31"/>
    <g id="text_13">
     <!-- Health care and social assistance -->
     <g style="fill:#e24a33;" transform="translate(644.276308956 113.099375)scale(0.11 -0.11)">
      <use xlink:href="#BitstreamVeraSans-Roman-48"/>
      <use x="75.1953125" xlink:href="#BitstreamVeraSans-Roman-65"/>
      <use x="136.71875" xlink:href="#BitstreamVeraSans-Roman-61"/>
      <use x="197.998046875" xlink:href="#BitstreamVeraSans-Roman-6c"/>
      <use x="225.78125" xlink:href="#BitstreamVeraSans-Roman-74"/>
      <use x="264.990234375" xlink:href="#BitstreamVeraSans-Roman-68"/>
      <use x="328.369140625" xlink:href="#BitstreamVeraSans-Roman-20"/>
      <use x="360.15625" xlink:href="#BitstreamVeraSans-Roman-63"/>
      <use x="415.13671875" xlink:href="#BitstreamVeraSans-Roman-61"/>
      <use x="476.416015625" xlink:href="#BitstreamVeraSans-Roman-72"/>
      <use x="515.279296875" xlink:href="#BitstreamVeraSans-Roman-65"/>
      <use x="576.802734375" xlink:href="#BitstreamVeraSans-Roman-20"/>
      <use x="608.58984375" xlink:href="#BitstreamVeraSans-Roman-61"/>
      <use x="669.869140625" xlink:href="#BitstreamVeraSans-Roman-6e"/>
      <use x="733.248046875" xlink:href="#BitstreamVeraSans-Roman-64"/>
      <use x="796.724609375" xlink:href="#BitstreamVeraSans-Roman-20"/>
      <use x="828.51171875" xlink:href="#BitstreamVeraSans-Roman-73"/>
      <use x="880.611328125" xlink:href="#BitstreamVeraSans-Roman-6f"/>
      <use x="941.79296875" xlink:href="#BitstreamVeraSans-Roman-63"/>
      <use x="996.7734375" xlink:href="#BitstreamVeraSans-Roman-69"/>
      <use x="1024.55664062" xlink:href="#BitstreamVeraSans-Roman-61"/>
      <use x="1085.8359375" xlink:href="#BitstreamVeraSans-Roman-6c"/>
      <use x="1113.61914062" xlink:href="#BitstreamVeraSans-Roman-20"/>
      <use x="1145.40625" xlink:href="#BitstreamVeraSans-Roman-61"/>
      <use x="1206.68554688" xlink:href="#BitstreamVeraSans-Roman-73"/>
      <use x="1258.78515625" xlink:href="#BitstreamVeraSans-Roman-73"/>
      <use x="1310.88476562" xlink:href="#BitstreamVeraSans-Roman-69"/>
      <use x="1338.66796875" xlink:href="#BitstreamVeraSans-Roman-73"/>
      <use x="1390.76757812" xlink:href="#BitstreamVeraSans-Roman-74"/>
      <use x="1429.9765625" xlink:href="#BitstreamVeraSans-Roman-61"/>
      <use x="1491.25585938" xlink:href="#BitstreamVeraSans-Roman-6e"/>
      <use x="1554.63476562" xlink:href="#BitstreamVeraSans-Roman-63"/>
      <use x="1609.61523438" xlink:href="#BitstreamVeraSans-Roman-65"/>
     </g>
    </g>
    <g id="line2d_32">
     <path d="
M614.276 125.587
L631.076 125.587" style="fill:none;stroke:#348abd;stroke-linecap:square;"/>
    </g>
    <g id="line2d_33"/>
    <g id="text_14">
     <!-- Finance and insurance -->
     <defs>
      <path d="
M9.8125 72.9062
L51.7031 72.9062
L51.7031 64.5938
L19.6719 64.5938
L19.6719 43.1094
L48.5781 43.1094
L48.5781 34.8125
L19.6719 34.8125
L19.6719 0
L9.8125 0
z
" id="BitstreamVeraSans-Roman-46"/>
     </defs>
     <g style="fill:#348abd;" transform="translate(644.276308956 129.78703125)scale(0.11 -0.11)">
      <use xlink:href="#BitstreamVeraSans-Roman-46"/>
      <use x="50.26953125" xlink:href="#BitstreamVeraSans-Roman-69"/>
      <use x="78.052734375" xlink:href="#BitstreamVeraSans-Roman-6e"/>
      <use x="141.431640625" xlink:href="#BitstreamVeraSans-Roman-61"/>
      <use x="202.7109375" xlink:href="#BitstreamVeraSans-Roman-6e"/>
      <use x="266.08984375" xlink:href="#BitstreamVeraSans-Roman-63"/>
      <use x="321.0703125" xlink:href="#BitstreamVeraSans-Roman-65"/>
      <use x="382.59375" xlink:href="#BitstreamVeraSans-Roman-20"/>
      <use x="414.380859375" xlink:href="#BitstreamVeraSans-Roman-61"/>
      <use x="475.66015625" xlink:href="#BitstreamVeraSans-Roman-6e"/>
      <use x="539.0390625" xlink:href="#BitstreamVeraSans-Roman-64"/>
      <use x="602.515625" xlink:href="#BitstreamVeraSans-Roman-20"/>
      <use x="634.302734375" xlink:href="#BitstreamVeraSans-Roman-69"/>
      <use x="662.0859375" xlink:href="#BitstreamVeraSans-Roman-6e"/>
      <use x="725.46484375" xlink:href="#BitstreamVeraSans-Roman-73"/>
      <use x="777.564453125" xlink:href="#BitstreamVeraSans-Roman-75"/>
      <use x="840.943359375" xlink:href="#BitstreamVeraSans-Roman-72"/>
      <use x="882.056640625" xlink:href="#BitstreamVeraSans-Roman-61"/>
      <use x="943.3359375" xlink:href="#BitstreamVeraSans-Roman-6e"/>
      <use x="1006.71484375" xlink:href="#BitstreamVeraSans-Roman-63"/>
      <use x="1061.6953125" xlink:href="#BitstreamVeraSans-Roman-65"/>
     </g>
    </g>
    <g id="line2d_34">
     <path d="
M614.276 142.275
L631.076 142.275" style="fill:none;stroke:#988ed5;stroke-linecap:square;"/>
    </g>
    <g id="line2d_35"/>
    <g id="text_15">
     <!-- State and local -->
     <defs>
      <path d="
M53.5156 70.5156
L53.5156 60.8906
Q47.9062 63.5781 42.9219 64.8906
Q37.9375 66.2188 33.2969 66.2188
Q25.25 66.2188 20.875 63.0938
Q16.5 59.9688 16.5 54.2031
Q16.5 49.3594 19.4062 46.8906
Q22.3125 44.4375 30.4219 42.9219
L36.375 41.7031
Q47.4062 39.5938 52.6562 34.2969
Q57.9062 29 57.9062 20.125
Q57.9062 9.51562 50.7969 4.04688
Q43.7031 -1.42188 29.9844 -1.42188
Q24.8125 -1.42188 18.9688 -0.25
Q13.1406 0.921875 6.89062 3.21875
L6.89062 13.375
Q12.8906 10.0156 18.6562 8.29688
Q24.4219 6.59375 29.9844 6.59375
Q38.4219 6.59375 43.0156 9.90625
Q47.6094 13.2344 47.6094 19.3906
Q47.6094 24.75 44.3125 27.7812
Q41.0156 30.8125 33.5 32.3281
L27.4844 33.5
Q16.4531 35.6875 11.5156 40.375
Q6.59375 45.0625 6.59375 53.4219
Q6.59375 63.0938 13.4062 68.6562
Q20.2188 74.2188 32.1719 74.2188
Q37.3125 74.2188 42.625 73.2812
Q47.9531 72.3594 53.5156 70.5156" id="BitstreamVeraSans-Roman-53"/>
     </defs>
     <g style="fill:#988ed5;" transform="translate(644.276308956 146.4746875)scale(0.11 -0.11)">
      <use xlink:href="#BitstreamVeraSans-Roman-53"/>
      <use x="63.4765625" xlink:href="#BitstreamVeraSans-Roman-74"/>
      <use x="102.685546875" xlink:href="#BitstreamVeraSans-Roman-61"/>
      <use x="163.96484375" xlink:href="#BitstreamVeraSans-Roman-74"/>
      <use x="203.173828125" xlink:href="#BitstreamVeraSans-Roman-65"/>
      <use x="264.697265625" xlink:href="#BitstreamVeraSans-Roman-20"/>
      <use x="296.484375" xlink:href="#BitstreamVeraSans-Roman-61"/>
      <use x="357.763671875" xlink:href="#BitstreamVeraSans-Roman-6e"/>
      <use x="421.142578125" xlink:href="#BitstreamVeraSans-Roman-64"/>
      <use x="484.619140625" xlink:href="#BitstreamVeraSans-Roman-20"/>
      <use x="516.40625" xlink:href="#BitstreamVeraSans-Roman-6c"/>
      <use x="544.189453125" xlink:href="#BitstreamVeraSans-Roman-6f"/>
      <use x="605.37109375" xlink:href="#BitstreamVeraSans-Roman-63"/>
      <use x="660.3515625" xlink:href="#BitstreamVeraSans-Roman-61"/>
      <use x="721.630859375" xlink:href="#BitstreamVeraSans-Roman-6c"/>
     </g>
    </g>
    <g id="line2d_36">
     <path d="
M614.276 158.962
L631.076 158.962" style="fill:none;stroke:#777777;stroke-dasharray:1.000000,3.000000;stroke-dashoffset:0.0;"/>
    </g>
    <g id="line2d_37"/>
    <g id="text_16">
     <!-- Industry average -->
     <g style="fill:#808080;" transform="translate(644.276308956 163.16234375)scale(0.11 -0.11)">
      <use xlink:href="#BitstreamVeraSans-Roman-49"/>
      <use x="29.4921875" xlink:href="#BitstreamVeraSans-Roman-6e"/>
      <use x="92.87109375" xlink:href="#BitstreamVeraSans-Roman-64"/>
      <use x="156.34765625" xlink:href="#BitstreamVeraSans-Roman-75"/>
      <use x="219.7265625" xlink:href="#BitstreamVeraSans-Roman-73"/>
      <use x="271.826171875" xlink:href="#BitstreamVeraSans-Roman-74"/>
      <use x="311.03515625" xlink:href="#BitstreamVeraSans-Roman-72"/>
      <use x="352.1484375" xlink:href="#BitstreamVeraSans-Roman-79"/>
      <use x="411.328125" xlink:href="#BitstreamVeraSans-Roman-20"/>
      <use x="443.115234375" xlink:href="#BitstreamVeraSans-Roman-61"/>
      <use x="504.39453125" xlink:href="#BitstreamVeraSans-Roman-76"/>
      <use x="563.57421875" xlink:href="#BitstreamVeraSans-Roman-65"/>
      <use x="625.09765625" xlink:href="#BitstreamVeraSans-Roman-72"/>
      <use x="666.2109375" xlink:href="#BitstreamVeraSans-Roman-61"/>
      <use x="727.490234375" xlink:href="#BitstreamVeraSans-Roman-67"/>
      <use x="790.966796875" xlink:href="#BitstreamVeraSans-Roman-65"/>
     </g>
    </g>
   </g>
  </g>
 </g>
 <defs>
  <clipPath id="p00cf3e369c">
   <rect height="228.2" width="513.033311856" x="58.5033311856" y="36.849375"/>
  </clipPath>
 </defs>
</svg>
